<?xml version="1.0" encoding="UTF-8" standalone="no"?>
<!DOCTYPE svg PUBLIC "-//W3C//DTD SVG 1.1//EN"
 "http://www.w3.org/Graphics/SVG/1.1/DTD/svg11.dtd">
<!-- Generated by graphviz version 2.50.0 (0)
 -->
<!-- Pages: 1 -->
<svg width="827pt" height="156pt"
 viewBox="0.00 0.00 827.00 156.00" xmlns="http://www.w3.org/2000/svg" xmlns:xlink="http://www.w3.org/1999/xlink">
<g id="graph0" class="graph" transform="scale(1 1) rotate(0) translate(4 152)">
<polygon fill="white" stroke="transparent" points="-4,4 -4,-152 823,-152 823,4 -4,4"/>
<!-- 13170636800 -->
<g id="node1" class="node">
<title>13170636800</title>
<polygon fill="none" stroke="black" points="0,-111.5 0,-147.5 108,-147.5 108,-111.5 0,-111.5"/>
<text text-anchor="middle" x="11.5" y="-125.8" font-family="Times,serif" font-size="14.00">b</text>
<polyline fill="none" stroke="black" points="23,-111.5 23,-147.5 "/>
<text text-anchor="middle" x="65.5" y="-125.8" font-family="Times,serif" font-size="14.00">data &#45;3.0000</text>
</g>
<!-- 13170624320* -->
<g id="node8" class="node">
<title>13170624320*</title>
<ellipse fill="none" stroke="black" cx="171" cy="-101.5" rx="27" ry="18"/>
<text text-anchor="middle" x="171" y="-97.8" font-family="Times,serif" font-size="14.00">*</text>
</g>
<!-- 13170636800&#45;&gt;13170624320* -->
<g id="edge4" class="edge">
<title>13170636800&#45;&gt;13170624320*</title>
<path fill="none" stroke="black" d="M108.12,-116.57C117.51,-114.28 127.06,-111.95 135.76,-109.84"/>
<polygon fill="black" stroke="black" points="136.62,-113.23 145.51,-107.46 134.97,-106.43 136.62,-113.23"/>
</g>
<!-- 13170637328 -->
<g id="node2" class="node">
<title>13170637328</title>
<polygon fill="none" stroke="black" points="478.5,-0.5 478.5,-36.5 579.5,-36.5 579.5,-0.5 478.5,-0.5"/>
<text text-anchor="middle" x="489" y="-14.8" font-family="Times,serif" font-size="14.00">f</text>
<polyline fill="none" stroke="black" points="499.5,-0.5 499.5,-36.5 "/>
<text text-anchor="middle" x="539.5" y="-14.8" font-family="Times,serif" font-size="14.00">data 2.0000</text>
</g>
<!-- 13170631328* -->
<g id="node4" class="node">
<title>13170631328*</title>
<ellipse fill="none" stroke="black" cx="646" cy="-45.5" rx="27" ry="18"/>
<text text-anchor="middle" x="646" y="-41.8" font-family="Times,serif" font-size="14.00">*</text>
</g>
<!-- 13170637328&#45;&gt;13170631328* -->
<g id="edge8" class="edge">
<title>13170637328&#45;&gt;13170631328*</title>
<path fill="none" stroke="black" d="M579.77,-30.19C590.02,-32.59 600.61,-35.08 610.2,-37.33"/>
<polygon fill="black" stroke="black" points="609.61,-40.79 620.14,-39.66 611.21,-33.97 609.61,-40.79"/>
</g>
<!-- 13170631328 -->
<g id="node3" class="node">
<title>13170631328</title>
<polygon fill="none" stroke="black" points="709,-27.5 709,-63.5 819,-63.5 819,-27.5 709,-27.5"/>
<text text-anchor="middle" x="721.5" y="-41.8" font-family="Times,serif" font-size="14.00">L</text>
<polyline fill="none" stroke="black" points="734,-27.5 734,-63.5 "/>
<text text-anchor="middle" x="776.5" y="-41.8" font-family="Times,serif" font-size="14.00">data &#45;8.0000</text>
</g>
<!-- 13170631328*&#45;&gt;13170631328 -->
<g id="edge1" class="edge">
<title>13170631328*&#45;&gt;13170631328</title>
<path fill="none" stroke="black" d="M673.03,-45.5C680.7,-45.5 689.45,-45.5 698.42,-45.5"/>
<polygon fill="black" stroke="black" points="698.58,-49 708.58,-45.5 698.58,-42 698.58,-49"/>
</g>
<!-- 13170631952 -->
<g id="node5" class="node">
<title>13170631952</title>
<polygon fill="none" stroke="black" points="475,-55.5 475,-91.5 583,-91.5 583,-55.5 475,-55.5"/>
<text text-anchor="middle" x="486.5" y="-69.8" font-family="Times,serif" font-size="14.00">e</text>
<polyline fill="none" stroke="black" points="498,-55.5 498,-91.5 "/>
<text text-anchor="middle" x="540.5" y="-69.8" font-family="Times,serif" font-size="14.00">data &#45;4.0000</text>
</g>
<!-- 13170631952&#45;&gt;13170631328* -->
<g id="edge7" class="edge">
<title>13170631952&#45;&gt;13170631328*</title>
<path fill="none" stroke="black" d="M583.12,-60.57C592.51,-58.28 602.06,-55.95 610.76,-53.84"/>
<polygon fill="black" stroke="black" points="611.62,-57.23 620.51,-51.46 609.97,-50.43 611.62,-57.23"/>
</g>
<!-- 13170631952+ -->
<g id="node6" class="node">
<title>13170631952+</title>
<ellipse fill="none" stroke="black" cx="412" cy="-73.5" rx="27" ry="18"/>
<text text-anchor="middle" x="412" y="-69.8" font-family="Times,serif" font-size="14.00">+</text>
</g>
<!-- 13170631952+&#45;&gt;13170631952 -->
<g id="edge2" class="edge">
<title>13170631952+&#45;&gt;13170631952</title>
<path fill="none" stroke="black" d="M439.1,-73.5C446.8,-73.5 455.59,-73.5 464.57,-73.5"/>
<polygon fill="black" stroke="black" points="464.75,-77 474.75,-73.5 464.75,-70 464.75,-77"/>
</g>
<!-- 13170624320 -->
<g id="node7" class="node">
<title>13170624320</title>
<polygon fill="none" stroke="black" points="234,-83.5 234,-119.5 349,-119.5 349,-83.5 234,-83.5"/>
<text text-anchor="middle" x="245.5" y="-97.8" font-family="Times,serif" font-size="14.00">d</text>
<polyline fill="none" stroke="black" points="257,-83.5 257,-119.5 "/>
<text text-anchor="middle" x="303" y="-97.8" font-family="Times,serif" font-size="14.00">data &#45;12.0000</text>
</g>
<!-- 13170624320&#45;&gt;13170631952+ -->
<g id="edge6" class="edge">
<title>13170624320&#45;&gt;13170631952+</title>
<path fill="none" stroke="black" d="M349.32,-88.07C358.53,-85.9 367.81,-83.71 376.28,-81.7"/>
<polygon fill="black" stroke="black" points="377.23,-85.08 386.15,-79.37 375.62,-78.26 377.23,-85.08"/>
</g>
<!-- 13170624320*&#45;&gt;13170624320 -->
<g id="edge3" class="edge">
<title>13170624320*&#45;&gt;13170624320</title>
<path fill="none" stroke="black" d="M198.01,-101.5C205.81,-101.5 214.75,-101.5 223.93,-101.5"/>
<polygon fill="black" stroke="black" points="223.95,-105 233.95,-101.5 223.95,-98 223.95,-105"/>
</g>
<!-- 13170626384 -->
<g id="node9" class="node">
<title>13170626384</title>
<polygon fill="none" stroke="black" points="2.5,-56.5 2.5,-92.5 105.5,-92.5 105.5,-56.5 2.5,-56.5"/>
<text text-anchor="middle" x="14" y="-70.8" font-family="Times,serif" font-size="14.00">a</text>
<polyline fill="none" stroke="black" points="25.5,-56.5 25.5,-92.5 "/>
<text text-anchor="middle" x="65.5" y="-70.8" font-family="Times,serif" font-size="14.00">data 4.0000</text>
</g>
<!-- 13170626384&#45;&gt;13170624320* -->
<g id="edge5" class="edge">
<title>13170626384&#45;&gt;13170624320*</title>
<path fill="none" stroke="black" d="M105.78,-86.42C115.74,-88.76 125.98,-91.17 135.28,-93.35"/>
<polygon fill="black" stroke="black" points="134.77,-96.82 145.3,-95.7 136.37,-90.01 134.77,-96.82"/>
</g>
<!-- 13170627440 -->
<g id="node10" class="node">
<title>13170627440</title>
<polygon fill="none" stroke="black" points="240,-28.5 240,-64.5 343,-64.5 343,-28.5 240,-28.5"/>
<text text-anchor="middle" x="251.5" y="-42.8" font-family="Times,serif" font-size="14.00">c</text>
<polyline fill="none" stroke="black" points="263,-28.5 263,-64.5 "/>
<text text-anchor="middle" x="303" y="-42.8" font-family="Times,serif" font-size="14.00">data 8.0000</text>
</g>
<!-- 13170627440&#45;&gt;13170631952+ -->
<g id="edge9" class="edge">
<title>13170627440&#45;&gt;13170631952+</title>
<path fill="none" stroke="black" d="M343.1,-58.03C354.33,-60.59 365.98,-63.24 376.4,-65.62"/>
<polygon fill="black" stroke="black" points="375.81,-69.07 386.34,-67.88 377.37,-62.25 375.81,-69.07"/>
</g>
</g>
</svg>
