<?xml version="1.0" encoding="UTF-8" standalone="no"?>
<!DOCTYPE svg PUBLIC "-//W3C//DTD SVG 1.1//EN"
 "http://www.w3.org/Graphics/SVG/1.1/DTD/svg11.dtd">
<!-- Generated by graphviz version 2.50.0 (0)
 -->
<!-- Pages: 1 -->
<svg width="591pt" height="128pt"
 viewBox="0.00 0.00 591.00 128.00" xmlns="http://www.w3.org/2000/svg" xmlns:xlink="http://www.w3.org/1999/xlink">
<g id="graph0" class="graph" transform="scale(1 1) rotate(0) translate(4 124)">
<polygon fill="white" stroke="transparent" points="-4,4 -4,-124 587,-124 587,4 -4,4"/>
<!-- 4829749776 -->
<g id="node1" class="node">
<title>4829749776</title>
<polygon fill="none" stroke="black" points="0,-83.5 0,-119.5 108,-119.5 108,-83.5 0,-83.5"/>
<text text-anchor="middle" x="11.5" y="-97.8" font-family="Times,serif" font-size="14.00">b</text>
<polyline fill="none" stroke="black" points="23,-83.5 23,-119.5 "/>
<text text-anchor="middle" x="65.5" y="-97.8" font-family="Times,serif" font-size="14.00">data &#45;3.0000</text>
</g>
<!-- 4829972672* -->
<g id="node3" class="node">
<title>4829972672*</title>
<ellipse fill="none" stroke="black" cx="171" cy="-73.5" rx="27" ry="18"/>
<text text-anchor="middle" x="171" y="-69.8" font-family="Times,serif" font-size="14.00">*</text>
</g>
<!-- 4829749776&#45;&gt;4829972672* -->
<g id="edge3" class="edge">
<title>4829749776&#45;&gt;4829972672*</title>
<path fill="none" stroke="black" d="M108.12,-88.57C117.51,-86.28 127.06,-83.95 135.76,-81.84"/>
<polygon fill="black" stroke="black" points="136.62,-85.23 145.51,-79.46 134.97,-78.43 136.62,-85.23"/>
</g>
<!-- 4829972672 -->
<g id="node2" class="node">
<title>4829972672</title>
<polygon fill="none" stroke="black" points="234,-55.5 234,-91.5 349,-91.5 349,-55.5 234,-55.5"/>
<text text-anchor="middle" x="245.5" y="-69.8" font-family="Times,serif" font-size="14.00">d</text>
<polyline fill="none" stroke="black" points="257,-55.5 257,-91.5 "/>
<text text-anchor="middle" x="303" y="-69.8" font-family="Times,serif" font-size="14.00">data &#45;12.0000</text>
</g>
<!-- 4829972768+ -->
<g id="node6" class="node">
<title>4829972768+</title>
<ellipse fill="none" stroke="black" cx="412" cy="-45.5" rx="27" ry="18"/>
<text text-anchor="middle" x="412" y="-41.8" font-family="Times,serif" font-size="14.00">+</text>
</g>
<!-- 4829972672&#45;&gt;4829972768+ -->
<g id="edge5" class="edge">
<title>4829972672&#45;&gt;4829972768+</title>
<path fill="none" stroke="black" d="M349.32,-60.07C358.53,-57.9 367.81,-55.71 376.28,-53.7"/>
<polygon fill="black" stroke="black" points="377.23,-57.08 386.15,-51.37 375.62,-50.26 377.23,-57.08"/>
</g>
<!-- 4829972672*&#45;&gt;4829972672 -->
<g id="edge1" class="edge">
<title>4829972672*&#45;&gt;4829972672</title>
<path fill="none" stroke="black" d="M198.01,-73.5C205.81,-73.5 214.75,-73.5 223.93,-73.5"/>
<polygon fill="black" stroke="black" points="223.95,-77 233.95,-73.5 223.95,-70 223.95,-77"/>
</g>
<!-- 4549225760 -->
<g id="node4" class="node">
<title>4549225760</title>
<polygon fill="none" stroke="black" points="240,-0.5 240,-36.5 343,-36.5 343,-0.5 240,-0.5"/>
<text text-anchor="middle" x="251.5" y="-14.8" font-family="Times,serif" font-size="14.00">c</text>
<polyline fill="none" stroke="black" points="263,-0.5 263,-36.5 "/>
<text text-anchor="middle" x="303" y="-14.8" font-family="Times,serif" font-size="14.00">data 8.0000</text>
</g>
<!-- 4549225760&#45;&gt;4829972768+ -->
<g id="edge6" class="edge">
<title>4549225760&#45;&gt;4829972768+</title>
<path fill="none" stroke="black" d="M343.1,-30.03C354.33,-32.59 365.98,-35.24 376.4,-37.62"/>
<polygon fill="black" stroke="black" points="375.81,-41.07 386.34,-39.88 377.37,-34.25 375.81,-41.07"/>
</g>
<!-- 4829972768 -->
<g id="node5" class="node">
<title>4829972768</title>
<polygon fill="none" stroke="black" points="475,-27.5 475,-63.5 583,-63.5 583,-27.5 475,-27.5"/>
<text text-anchor="middle" x="486.5" y="-41.8" font-family="Times,serif" font-size="14.00">e</text>
<polyline fill="none" stroke="black" points="498,-27.5 498,-63.5 "/>
<text text-anchor="middle" x="540.5" y="-41.8" font-family="Times,serif" font-size="14.00">data &#45;4.0000</text>
</g>
<!-- 4829972768+&#45;&gt;4829972768 -->
<g id="edge2" class="edge">
<title>4829972768+&#45;&gt;4829972768</title>
<path fill="none" stroke="black" d="M439.1,-45.5C446.8,-45.5 455.59,-45.5 464.57,-45.5"/>
<polygon fill="black" stroke="black" points="464.75,-49 474.75,-45.5 464.75,-42 464.75,-49"/>
</g>
<!-- 4828475760 -->
<g id="node7" class="node">
<title>4828475760</title>
<polygon fill="none" stroke="black" points="2.5,-28.5 2.5,-64.5 105.5,-64.5 105.5,-28.5 2.5,-28.5"/>
<text text-anchor="middle" x="14" y="-42.8" font-family="Times,serif" font-size="14.00">a</text>
<polyline fill="none" stroke="black" points="25.5,-28.5 25.5,-64.5 "/>
<text text-anchor="middle" x="65.5" y="-42.8" font-family="Times,serif" font-size="14.00">data 4.0000</text>
</g>
<!-- 4828475760&#45;&gt;4829972672* -->
<g id="edge4" class="edge">
<title>4828475760&#45;&gt;4829972672*</title>
<path fill="none" stroke="black" d="M105.78,-58.42C115.74,-60.76 125.98,-63.17 135.28,-65.35"/>
<polygon fill="black" stroke="black" points="134.77,-68.82 145.3,-67.7 136.37,-62.01 134.77,-68.82"/>
</g>
</g>
</svg>
