<?xml version="1.0" encoding="UTF-8" standalone="no"?>
<!DOCTYPE svg PUBLIC "-//W3C//DTD SVG 1.1//EN"
 "http://www.w3.org/Graphics/SVG/1.1/DTD/svg11.dtd">
<!-- Generated by graphviz version 2.50.0 (0)
 -->
<!-- Pages: 1 -->
<svg width="827pt" height="154pt"
 viewBox="0.00 0.00 827.00 154.00" xmlns="http://www.w3.org/2000/svg" xmlns:xlink="http://www.w3.org/1999/xlink">
<g id="graph0" class="graph" transform="scale(1 1) rotate(0) translate(4 150)">
<polygon fill="white" stroke="transparent" points="-4,4 -4,-150 823,-150 823,4 -4,4"/>
<!-- 4829972048 -->
<g id="node1" class="node">
<title>4829972048</title>
<polygon fill="none" stroke="black" points="475,-54.5 475,-90.5 583,-90.5 583,-54.5 475,-54.5"/>
<text text-anchor="middle" x="486.5" y="-68.8" font-family="Times,serif" font-size="14.00">e</text>
<polyline fill="none" stroke="black" points="498,-54.5 498,-90.5 "/>
<text text-anchor="middle" x="540.5" y="-68.8" font-family="Times,serif" font-size="14.00">data &#45;4.0000</text>
</g>
<!-- 4829971952* -->
<g id="node10" class="node">
<title>4829971952*</title>
<ellipse fill="none" stroke="black" cx="646" cy="-99.5" rx="27" ry="18"/>
<text text-anchor="middle" x="646" y="-95.8" font-family="Times,serif" font-size="14.00">*</text>
</g>
<!-- 4829972048&#45;&gt;4829971952* -->
<g id="edge4" class="edge">
<title>4829972048&#45;&gt;4829971952*</title>
<path fill="none" stroke="black" d="M583.12,-84.97C592.33,-87.13 601.68,-89.33 610.24,-91.34"/>
<polygon fill="black" stroke="black" points="609.68,-94.8 620.21,-93.68 611.28,-87.99 609.68,-94.8"/>
</g>
<!-- 4829972048+ -->
<g id="node2" class="node">
<title>4829972048+</title>
<ellipse fill="none" stroke="black" cx="412" cy="-72.5" rx="27" ry="18"/>
<text text-anchor="middle" x="412" y="-68.8" font-family="Times,serif" font-size="14.00">+</text>
</g>
<!-- 4829972048+&#45;&gt;4829972048 -->
<g id="edge1" class="edge">
<title>4829972048+&#45;&gt;4829972048</title>
<path fill="none" stroke="black" d="M439.1,-72.5C446.8,-72.5 455.59,-72.5 464.57,-72.5"/>
<polygon fill="black" stroke="black" points="464.75,-76 474.75,-72.5 464.75,-69 464.75,-76"/>
</g>
<!-- 4829972096 -->
<g id="node3" class="node">
<title>4829972096</title>
<polygon fill="none" stroke="black" points="240,-82.5 240,-118.5 343,-118.5 343,-82.5 240,-82.5"/>
<text text-anchor="middle" x="251.5" y="-96.8" font-family="Times,serif" font-size="14.00">c</text>
<polyline fill="none" stroke="black" points="263,-82.5 263,-118.5 "/>
<text text-anchor="middle" x="303" y="-96.8" font-family="Times,serif" font-size="14.00">data 8.0000</text>
</g>
<!-- 4829972096&#45;&gt;4829972048+ -->
<g id="edge7" class="edge">
<title>4829972096&#45;&gt;4829972048+</title>
<path fill="none" stroke="black" d="M343.1,-88.54C354.33,-85.89 365.98,-83.14 376.4,-80.68"/>
<polygon fill="black" stroke="black" points="377.41,-84.03 386.34,-78.33 375.8,-77.22 377.41,-84.03"/>
</g>
<!-- 4829970704 -->
<g id="node4" class="node">
<title>4829970704</title>
<polygon fill="none" stroke="black" points="478.5,-109.5 478.5,-145.5 579.5,-145.5 579.5,-109.5 478.5,-109.5"/>
<text text-anchor="middle" x="489" y="-123.8" font-family="Times,serif" font-size="14.00">f</text>
<polyline fill="none" stroke="black" points="499.5,-109.5 499.5,-145.5 "/>
<text text-anchor="middle" x="539.5" y="-123.8" font-family="Times,serif" font-size="14.00">data 2.0000</text>
</g>
<!-- 4829970704&#45;&gt;4829971952* -->
<g id="edge6" class="edge">
<title>4829970704&#45;&gt;4829971952*</title>
<path fill="none" stroke="black" d="M579.77,-115.38C590.11,-112.86 600.8,-110.26 610.45,-107.91"/>
<polygon fill="black" stroke="black" points="611.56,-111.24 620.45,-105.48 609.9,-104.44 611.56,-111.24"/>
</g>
<!-- 4829972288 -->
<g id="node5" class="node">
<title>4829972288</title>
<polygon fill="none" stroke="black" points="234,-27.5 234,-63.5 349,-63.5 349,-27.5 234,-27.5"/>
<text text-anchor="middle" x="245.5" y="-41.8" font-family="Times,serif" font-size="14.00">d</text>
<polyline fill="none" stroke="black" points="257,-27.5 257,-63.5 "/>
<text text-anchor="middle" x="303" y="-41.8" font-family="Times,serif" font-size="14.00">data &#45;12.0000</text>
</g>
<!-- 4829972288&#45;&gt;4829972048+ -->
<g id="edge9" class="edge">
<title>4829972288&#45;&gt;4829972048+</title>
<path fill="none" stroke="black" d="M349.32,-58.45C358.53,-60.54 367.81,-62.66 376.28,-64.59"/>
<polygon fill="black" stroke="black" points="375.63,-68.03 386.15,-66.84 377.18,-61.2 375.63,-68.03"/>
</g>
<!-- 4829972288* -->
<g id="node6" class="node">
<title>4829972288*</title>
<ellipse fill="none" stroke="black" cx="171" cy="-45.5" rx="27" ry="18"/>
<text text-anchor="middle" x="171" y="-41.8" font-family="Times,serif" font-size="14.00">*</text>
</g>
<!-- 4829972288*&#45;&gt;4829972288 -->
<g id="edge2" class="edge">
<title>4829972288*&#45;&gt;4829972288</title>
<path fill="none" stroke="black" d="M198.01,-45.5C205.81,-45.5 214.75,-45.5 223.93,-45.5"/>
<polygon fill="black" stroke="black" points="223.95,-49 233.95,-45.5 223.95,-42 223.95,-49"/>
</g>
<!-- 4829972336 -->
<g id="node7" class="node">
<title>4829972336</title>
<polygon fill="none" stroke="black" points="0,-55.5 0,-91.5 108,-91.5 108,-55.5 0,-55.5"/>
<text text-anchor="middle" x="11.5" y="-69.8" font-family="Times,serif" font-size="14.00">b</text>
<polyline fill="none" stroke="black" points="23,-55.5 23,-91.5 "/>
<text text-anchor="middle" x="65.5" y="-69.8" font-family="Times,serif" font-size="14.00">data &#45;3.0000</text>
</g>
<!-- 4829972336&#45;&gt;4829972288* -->
<g id="edge5" class="edge">
<title>4829972336&#45;&gt;4829972288*</title>
<path fill="none" stroke="black" d="M108.12,-60.57C117.51,-58.28 127.06,-55.95 135.76,-53.84"/>
<polygon fill="black" stroke="black" points="136.62,-57.23 145.51,-51.46 134.97,-50.43 136.62,-57.23"/>
</g>
<!-- 4829972384 -->
<g id="node8" class="node">
<title>4829972384</title>
<polygon fill="none" stroke="black" points="2.5,-0.5 2.5,-36.5 105.5,-36.5 105.5,-0.5 2.5,-0.5"/>
<text text-anchor="middle" x="14" y="-14.8" font-family="Times,serif" font-size="14.00">a</text>
<polyline fill="none" stroke="black" points="25.5,-0.5 25.5,-36.5 "/>
<text text-anchor="middle" x="65.5" y="-14.8" font-family="Times,serif" font-size="14.00">data 4.0000</text>
</g>
<!-- 4829972384&#45;&gt;4829972288* -->
<g id="edge8" class="edge">
<title>4829972384&#45;&gt;4829972288*</title>
<path fill="none" stroke="black" d="M105.78,-30.42C115.74,-32.76 125.98,-35.17 135.28,-37.35"/>
<polygon fill="black" stroke="black" points="134.77,-40.82 145.3,-39.7 136.37,-34.01 134.77,-40.82"/>
</g>
<!-- 4829971952 -->
<g id="node9" class="node">
<title>4829971952</title>
<polygon fill="none" stroke="black" points="709,-81.5 709,-117.5 819,-117.5 819,-81.5 709,-81.5"/>
<text text-anchor="middle" x="721.5" y="-95.8" font-family="Times,serif" font-size="14.00">L</text>
<polyline fill="none" stroke="black" points="734,-81.5 734,-117.5 "/>
<text text-anchor="middle" x="776.5" y="-95.8" font-family="Times,serif" font-size="14.00">data &#45;8.0000</text>
</g>
<!-- 4829971952*&#45;&gt;4829971952 -->
<g id="edge3" class="edge">
<title>4829971952*&#45;&gt;4829971952</title>
<path fill="none" stroke="black" d="M673.03,-99.5C680.7,-99.5 689.45,-99.5 698.42,-99.5"/>
<polygon fill="black" stroke="black" points="698.58,-103 708.58,-99.5 698.58,-96 698.58,-103"/>
</g>
</g>
</svg>
