<?xml version="1.0" encoding="UTF-8" standalone="no"?>
<!DOCTYPE svg PUBLIC "-//W3C//DTD SVG 1.1//EN"
 "http://www.w3.org/Graphics/SVG/1.1/DTD/svg11.dtd">
<!-- Generated by graphviz version 2.50.0 (0)
 -->
<!-- Pages: 1 -->
<svg width="1572pt" height="210pt"
 viewBox="0.00 0.00 1571.99 210.00" xmlns="http://www.w3.org/2000/svg" xmlns:xlink="http://www.w3.org/1999/xlink">
<g id="graph0" class="graph" transform="scale(1 1) rotate(0) translate(4 206)">
<polygon fill="white" stroke="transparent" points="-4,4 -4,-206 1567.99,-206 1567.99,4 -4,4"/>
<!-- 6280730176 -->
<g id="node1" class="node">
<title>6280730176</title>
<polygon fill="none" stroke="black" points="672,-82.5 672,-118.5 931,-118.5 931,-82.5 672,-82.5"/>
<text text-anchor="middle" x="718" y="-96.8" font-family="Times,serif" font-size="14.00">x1w1 + x2w2</text>
<polyline fill="none" stroke="black" points="764,-82.5 764,-118.5 "/>
<text text-anchor="middle" x="806.5" y="-96.8" font-family="Times,serif" font-size="14.00">data &#45;6.0000</text>
<polyline fill="none" stroke="black" points="849,-82.5 849,-118.5 "/>
<text text-anchor="middle" x="890" y="-96.8" font-family="Times,serif" font-size="14.00">grad 1.0000</text>
</g>
<!-- 6280727392+ -->
<g id="node12" class="node">
<title>6280727392+</title>
<ellipse fill="none" stroke="black" cx="994" cy="-127.5" rx="27" ry="18"/>
<text text-anchor="middle" x="994" y="-123.8" font-family="Times,serif" font-size="14.00">+</text>
</g>
<!-- 6280730176&#45;&gt;6280727392+ -->
<g id="edge7" class="edge">
<title>6280730176&#45;&gt;6280727392+</title>
<path fill="none" stroke="black" d="M929.57,-118.51C939.55,-119.92 949,-121.26 957.42,-122.46"/>
<polygon fill="black" stroke="black" points="957.09,-125.95 967.48,-123.88 958.07,-119.01 957.09,-125.95"/>
</g>
<!-- 6280730176+ -->
<g id="node2" class="node">
<title>6280730176+</title>
<ellipse fill="none" stroke="black" cx="609" cy="-100.5" rx="27" ry="18"/>
<text text-anchor="middle" x="609" y="-96.8" font-family="Times,serif" font-size="14.00">+</text>
</g>
<!-- 6280730176+&#45;&gt;6280730176 -->
<g id="edge1" class="edge">
<title>6280730176+&#45;&gt;6280730176</title>
<path fill="none" stroke="black" d="M636.09,-100.5C643.58,-100.5 652.3,-100.5 661.75,-100.5"/>
<polygon fill="black" stroke="black" points="661.84,-104 671.84,-100.5 661.84,-97 661.84,-104"/>
</g>
<!-- 6052991088 -->
<g id="node3" class="node">
<title>6052991088</title>
<polygon fill="none" stroke="black" points="2,-55.5 2,-91.5 198,-91.5 198,-55.5 2,-55.5"/>
<text text-anchor="middle" x="17" y="-69.8" font-family="Times,serif" font-size="14.00">x1</text>
<polyline fill="none" stroke="black" points="32,-55.5 32,-91.5 "/>
<text text-anchor="middle" x="72" y="-69.8" font-family="Times,serif" font-size="14.00">data 2.0000</text>
<polyline fill="none" stroke="black" points="112,-55.5 112,-91.5 "/>
<text text-anchor="middle" x="155" y="-69.8" font-family="Times,serif" font-size="14.00">grad &#45;3.0000</text>
</g>
<!-- 6101241152* -->
<g id="node10" class="node">
<title>6101241152*</title>
<ellipse fill="none" stroke="black" cx="263" cy="-73.5" rx="27" ry="18"/>
<text text-anchor="middle" x="263" y="-69.8" font-family="Times,serif" font-size="14.00">*</text>
</g>
<!-- 6052991088&#45;&gt;6101241152* -->
<g id="edge12" class="edge">
<title>6052991088&#45;&gt;6101241152*</title>
<path fill="none" stroke="black" d="M198.37,-73.5C208.05,-73.5 217.4,-73.5 225.8,-73.5"/>
<polygon fill="black" stroke="black" points="225.91,-77 235.91,-73.5 225.91,-70 225.91,-77"/>
</g>
<!-- 6052998816 -->
<g id="node4" class="node">
<title>6052998816</title>
<polygon fill="none" stroke="black" points="709,-137.5 709,-173.5 894,-173.5 894,-137.5 709,-137.5"/>
<text text-anchor="middle" x="720.5" y="-151.8" font-family="Times,serif" font-size="14.00">b</text>
<polyline fill="none" stroke="black" points="732,-137.5 732,-173.5 "/>
<text text-anchor="middle" x="772" y="-151.8" font-family="Times,serif" font-size="14.00">data 6.8814</text>
<polyline fill="none" stroke="black" points="812,-137.5 812,-173.5 "/>
<text text-anchor="middle" x="853" y="-151.8" font-family="Times,serif" font-size="14.00">grad 1.0000</text>
</g>
<!-- 6052998816&#45;&gt;6280727392+ -->
<g id="edge14" class="edge">
<title>6052998816&#45;&gt;6280727392+</title>
<path fill="none" stroke="black" d="M894.12,-142.03C916.59,-138.73 939.33,-135.39 957.33,-132.74"/>
<polygon fill="black" stroke="black" points="957.96,-136.19 967.34,-131.27 956.94,-129.26 957.96,-136.19"/>
</g>
<!-- 6280735504 -->
<g id="node5" class="node">
<title>6280735504</title>
<polygon fill="none" stroke="black" points="1378.99,-109.5 1378.99,-145.5 1563.99,-145.5 1563.99,-109.5 1378.99,-109.5"/>
<text text-anchor="middle" x="1390.49" y="-123.8" font-family="Times,serif" font-size="14.00">o</text>
<polyline fill="none" stroke="black" points="1401.99,-109.5 1401.99,-145.5 "/>
<text text-anchor="middle" x="1441.99" y="-123.8" font-family="Times,serif" font-size="14.00">data 0.8814</text>
<polyline fill="none" stroke="black" points="1481.99,-109.5 1481.99,-145.5 "/>
<text text-anchor="middle" x="1522.99" y="-123.8" font-family="Times,serif" font-size="14.00">grad 1.0000</text>
</g>
<!-- 6280735504ReLU -->
<g id="node6" class="node">
<title>6280735504ReLU</title>
<ellipse fill="none" stroke="black" cx="1310.5" cy="-127.5" rx="32.49" ry="18"/>
<text text-anchor="middle" x="1310.5" y="-123.8" font-family="Times,serif" font-size="14.00">ReLU</text>
</g>
<!-- 6280735504ReLU&#45;&gt;6280735504 -->
<g id="edge2" class="edge">
<title>6280735504ReLU&#45;&gt;6280735504</title>
<path fill="none" stroke="black" d="M1343.29,-127.5C1351.01,-127.5 1359.68,-127.5 1368.78,-127.5"/>
<polygon fill="black" stroke="black" points="1368.79,-131 1378.79,-127.5 1368.79,-124 1368.79,-131"/>
</g>
<!-- 6095762736 -->
<g id="node7" class="node">
<title>6095762736</title>
<polygon fill="none" stroke="black" points="328.5,-110.5 328.5,-146.5 543.5,-146.5 543.5,-110.5 328.5,-110.5"/>
<text text-anchor="middle" x="355" y="-124.8" font-family="Times,serif" font-size="14.00">x2*w2</text>
<polyline fill="none" stroke="black" points="381.5,-110.5 381.5,-146.5 "/>
<text text-anchor="middle" x="421.5" y="-124.8" font-family="Times,serif" font-size="14.00">data 0.0000</text>
<polyline fill="none" stroke="black" points="461.5,-110.5 461.5,-146.5 "/>
<text text-anchor="middle" x="502.5" y="-124.8" font-family="Times,serif" font-size="14.00">grad 1.0000</text>
</g>
<!-- 6095762736&#45;&gt;6280730176+ -->
<g id="edge13" class="edge">
<title>6095762736&#45;&gt;6280730176+</title>
<path fill="none" stroke="black" d="M543.84,-111.01C554.01,-109.34 563.76,-107.74 572.44,-106.32"/>
<polygon fill="black" stroke="black" points="573.17,-109.75 582.47,-104.68 572.04,-102.84 573.17,-109.75"/>
</g>
<!-- 6095762736* -->
<g id="node8" class="node">
<title>6095762736*</title>
<ellipse fill="none" stroke="black" cx="263" cy="-128.5" rx="27" ry="18"/>
<text text-anchor="middle" x="263" y="-124.8" font-family="Times,serif" font-size="14.00">*</text>
</g>
<!-- 6095762736*&#45;&gt;6095762736 -->
<g id="edge3" class="edge">
<title>6095762736*&#45;&gt;6095762736</title>
<path fill="none" stroke="black" d="M290.34,-128.5C298.51,-128.5 308.08,-128.5 318.36,-128.5"/>
<polygon fill="black" stroke="black" points="318.39,-132 328.39,-128.5 318.39,-125 318.39,-132"/>
</g>
<!-- 6101241152 -->
<g id="node9" class="node">
<title>6101241152</title>
<polygon fill="none" stroke="black" points="326,-55.5 326,-91.5 546,-91.5 546,-55.5 326,-55.5"/>
<text text-anchor="middle" x="352.5" y="-69.8" font-family="Times,serif" font-size="14.00">x1*w1</text>
<polyline fill="none" stroke="black" points="379,-55.5 379,-91.5 "/>
<text text-anchor="middle" x="421.5" y="-69.8" font-family="Times,serif" font-size="14.00">data &#45;6.0000</text>
<polyline fill="none" stroke="black" points="464,-55.5 464,-91.5 "/>
<text text-anchor="middle" x="505" y="-69.8" font-family="Times,serif" font-size="14.00">grad 1.0000</text>
</g>
<!-- 6101241152&#45;&gt;6280730176+ -->
<g id="edge10" class="edge">
<title>6101241152&#45;&gt;6280730176+</title>
<path fill="none" stroke="black" d="M546.27,-90.75C555.64,-92.23 564.6,-93.65 572.65,-94.92"/>
<polygon fill="black" stroke="black" points="572.23,-98.4 582.65,-96.5 573.32,-91.48 572.23,-98.4"/>
</g>
<!-- 6101241152*&#45;&gt;6101241152 -->
<g id="edge4" class="edge">
<title>6101241152*&#45;&gt;6101241152</title>
<path fill="none" stroke="black" d="M290.34,-73.5C297.77,-73.5 306.37,-73.5 315.6,-73.5"/>
<polygon fill="black" stroke="black" points="315.84,-77 325.84,-73.5 315.84,-70 315.84,-77"/>
</g>
<!-- 6280727392 -->
<g id="node11" class="node">
<title>6280727392</title>
<polygon fill="none" stroke="black" points="1057,-109.5 1057,-145.5 1242,-145.5 1242,-109.5 1057,-109.5"/>
<text text-anchor="middle" x="1068.5" y="-123.8" font-family="Times,serif" font-size="14.00">n</text>
<polyline fill="none" stroke="black" points="1080,-109.5 1080,-145.5 "/>
<text text-anchor="middle" x="1120" y="-123.8" font-family="Times,serif" font-size="14.00">data 0.8814</text>
<polyline fill="none" stroke="black" points="1160,-109.5 1160,-145.5 "/>
<text text-anchor="middle" x="1201" y="-123.8" font-family="Times,serif" font-size="14.00">grad 1.0000</text>
</g>
<!-- 6280727392&#45;&gt;6280735504ReLU -->
<g id="edge8" class="edge">
<title>6280727392&#45;&gt;6280735504ReLU</title>
<path fill="none" stroke="black" d="M1242.07,-127.5C1251,-127.5 1259.72,-127.5 1267.76,-127.5"/>
<polygon fill="black" stroke="black" points="1267.92,-131 1277.92,-127.5 1267.92,-124 1267.92,-131"/>
</g>
<!-- 6280727392+&#45;&gt;6280727392 -->
<g id="edge5" class="edge">
<title>6280727392+&#45;&gt;6280727392</title>
<path fill="none" stroke="black" d="M1021.04,-127.5C1028.58,-127.5 1037.3,-127.5 1046.57,-127.5"/>
<polygon fill="black" stroke="black" points="1046.81,-131 1056.81,-127.5 1046.81,-124 1046.81,-131"/>
</g>
<!-- 6053197152 -->
<g id="node13" class="node">
<title>6053197152</title>
<polygon fill="none" stroke="black" points="4,-165.5 4,-201.5 196,-201.5 196,-165.5 4,-165.5"/>
<text text-anchor="middle" x="19" y="-179.8" font-family="Times,serif" font-size="14.00">x2</text>
<polyline fill="none" stroke="black" points="34,-165.5 34,-201.5 "/>
<text text-anchor="middle" x="74" y="-179.8" font-family="Times,serif" font-size="14.00">data 0.0000</text>
<polyline fill="none" stroke="black" points="114,-165.5 114,-201.5 "/>
<text text-anchor="middle" x="155" y="-179.8" font-family="Times,serif" font-size="14.00">grad 1.0000</text>
</g>
<!-- 6053197152&#45;&gt;6095762736* -->
<g id="edge9" class="edge">
<title>6053197152&#45;&gt;6095762736*</title>
<path fill="none" stroke="black" d="M172.53,-165.44C181.84,-162.67 191.2,-159.67 200,-156.5 210.53,-152.71 221.75,-147.9 231.72,-143.33"/>
<polygon fill="black" stroke="black" points="233.25,-146.48 240.82,-139.07 230.28,-140.14 233.25,-146.48"/>
</g>
<!-- 6101815168 -->
<g id="node14" class="node">
<title>6101815168</title>
<polygon fill="none" stroke="black" points="0,-0.5 0,-36.5 200,-36.5 200,-0.5 0,-0.5"/>
<text text-anchor="middle" x="16.5" y="-14.8" font-family="Times,serif" font-size="14.00">w1</text>
<polyline fill="none" stroke="black" points="33,-0.5 33,-36.5 "/>
<text text-anchor="middle" x="75.5" y="-14.8" font-family="Times,serif" font-size="14.00">data &#45;3.0000</text>
<polyline fill="none" stroke="black" points="118,-0.5 118,-36.5 "/>
<text text-anchor="middle" x="159" y="-14.8" font-family="Times,serif" font-size="14.00">grad 2.0000</text>
</g>
<!-- 6101815168&#45;&gt;6101241152* -->
<g id="edge6" class="edge">
<title>6101815168&#45;&gt;6101241152*</title>
<path fill="none" stroke="black" d="M169.28,-36.5C179.65,-39.61 190.16,-42.98 200,-46.5 210.28,-50.17 221.28,-54.74 231.11,-59.07"/>
<polygon fill="black" stroke="black" points="229.93,-62.37 240.48,-63.27 232.79,-55.99 229.93,-62.37"/>
</g>
<!-- 6052997520 -->
<g id="node15" class="node">
<title>6052997520</title>
<polygon fill="none" stroke="black" points="2.5,-110.5 2.5,-146.5 197.5,-146.5 197.5,-110.5 2.5,-110.5"/>
<text text-anchor="middle" x="19" y="-124.8" font-family="Times,serif" font-size="14.00">w2</text>
<polyline fill="none" stroke="black" points="35.5,-110.5 35.5,-146.5 "/>
<text text-anchor="middle" x="75.5" y="-124.8" font-family="Times,serif" font-size="14.00">data 1.0000</text>
<polyline fill="none" stroke="black" points="115.5,-110.5 115.5,-146.5 "/>
<text text-anchor="middle" x="156.5" y="-124.8" font-family="Times,serif" font-size="14.00">grad 0.0000</text>
</g>
<!-- 6052997520&#45;&gt;6095762736* -->
<g id="edge11" class="edge">
<title>6052997520&#45;&gt;6095762736*</title>
<path fill="none" stroke="black" d="M197.91,-128.5C207.65,-128.5 217.05,-128.5 225.52,-128.5"/>
<polygon fill="black" stroke="black" points="225.7,-132 235.7,-128.5 225.7,-125 225.7,-132"/>
</g>
</g>
</svg>
