<?xml version="1.0" encoding="UTF-8" standalone="no"?>
<!DOCTYPE svg PUBLIC "-//W3C//DTD SVG 1.1//EN"
 "http://www.w3.org/Graphics/SVG/1.1/DTD/svg11.dtd">
<!-- Generated by graphviz version 12.1.2 (20240928.0832)
 -->
<!-- Pages: 1 -->
<svg width="587pt" height="127pt"
 viewBox="0.00 0.00 587.00 127.00" xmlns="http://www.w3.org/2000/svg" xmlns:xlink="http://www.w3.org/1999/xlink">
<g id="graph0" class="graph" transform="scale(1 1) rotate(0) translate(4 123)">
<polygon fill="white" stroke="none" points="-4,4 -4,-123 583,-123 583,4 -4,4"/>
<!-- 4546063552 -->
<g id="node1" class="node">
<title>4546063552</title>
<polygon fill="none" stroke="black" points="233,-27.5 233,-63.5 346.75,-63.5 346.75,-27.5 233,-27.5"/>
<text text-anchor="middle" x="244.38" y="-40.7" font-family="Times,serif" font-size="14.00">d</text>
<polyline fill="none" stroke="black" points="255.75,-28 255.75,-63.5"/>
<text text-anchor="middle" x="301.25" y="-40.7" font-family="Times,serif" font-size="14.00">data &#45;12.0000</text>
</g>
<!-- 4544726320+ -->
<g id="node7" class="node">
<title>4544726320+</title>
<ellipse fill="none" stroke="black" cx="409.75" cy="-72.5" rx="27" ry="18"/>
<text text-anchor="middle" x="409.75" y="-67.45" font-family="Times,serif" font-size="14.00">+</text>
</g>
<!-- 4546063552&#45;&gt;4544726320+ -->
<g id="edge6" class="edge">
<title>4546063552&#45;&gt;4544726320+</title>
<path fill="none" stroke="black" d="M347.05,-58.37C355.84,-60.38 364.7,-62.41 372.87,-64.28"/>
<polygon fill="black" stroke="black" points="371.86,-67.64 382.39,-66.46 373.43,-60.82 371.86,-67.64"/>
</g>
<!-- 4546063552* -->
<g id="node2" class="node">
<title>4546063552*</title>
<ellipse fill="none" stroke="black" cx="170" cy="-45.5" rx="27" ry="18"/>
<text text-anchor="middle" x="170" y="-40.45" font-family="Times,serif" font-size="14.00">*</text>
</g>
<!-- 4546063552*&#45;&gt;4546063552 -->
<g id="edge1" class="edge">
<title>4546063552*&#45;&gt;4546063552</title>
<path fill="none" stroke="black" d="M197.45,-45.5C204.64,-45.5 212.76,-45.5 221.13,-45.5"/>
<polygon fill="black" stroke="black" points="221.11,-49 231.11,-45.5 221.11,-42 221.11,-49"/>
</g>
<!-- 4545542864 -->
<g id="node3" class="node">
<title>4545542864</title>
<polygon fill="none" stroke="black" points="0,-55.5 0,-91.5 107,-91.5 107,-55.5 0,-55.5"/>
<text text-anchor="middle" x="11.38" y="-68.7" font-family="Times,serif" font-size="14.00">b</text>
<polyline fill="none" stroke="black" points="22.75,-56 22.75,-91.5"/>
<text text-anchor="middle" x="64.88" y="-68.7" font-family="Times,serif" font-size="14.00">data &#45;3.0000</text>
</g>
<!-- 4545542864&#45;&gt;4546063552* -->
<g id="edge5" class="edge">
<title>4545542864&#45;&gt;4546063552*</title>
<path fill="none" stroke="black" d="M107.39,-60.57C116.15,-58.42 125.05,-56.25 133.26,-54.24"/>
<polygon fill="black" stroke="black" points="133.97,-57.67 142.85,-51.89 132.3,-50.87 133.97,-57.67"/>
</g>
<!-- 4545804000 -->
<g id="node4" class="node">
<title>4545804000</title>
<polygon fill="none" stroke="black" points="2.62,-0.5 2.62,-36.5 104.38,-36.5 104.38,-0.5 2.62,-0.5"/>
<text text-anchor="middle" x="13.62" y="-13.7" font-family="Times,serif" font-size="14.00">a</text>
<polyline fill="none" stroke="black" points="24.62,-1 24.62,-36.5"/>
<text text-anchor="middle" x="64.5" y="-13.7" font-family="Times,serif" font-size="14.00">data 4.0000</text>
</g>
<!-- 4545804000&#45;&gt;4546063552* -->
<g id="edge4" class="edge">
<title>4545804000&#45;&gt;4546063552*</title>
<path fill="none" stroke="black" d="M104.72,-30.34C114.16,-32.57 123.86,-34.86 132.78,-36.96"/>
<polygon fill="black" stroke="black" points="131.94,-40.36 142.48,-39.25 133.55,-33.54 131.94,-40.36"/>
</g>
<!-- 4546063600 -->
<g id="node5" class="node">
<title>4546063600</title>
<polygon fill="none" stroke="black" points="239,-82.5 239,-118.5 340.75,-118.5 340.75,-82.5 239,-82.5"/>
<text text-anchor="middle" x="250" y="-95.7" font-family="Times,serif" font-size="14.00">c</text>
<polyline fill="none" stroke="black" points="261,-83 261,-118.5"/>
<text text-anchor="middle" x="300.88" y="-95.7" font-family="Times,serif" font-size="14.00">data 8.0000</text>
</g>
<!-- 4546063600&#45;&gt;4544726320+ -->
<g id="edge3" class="edge">
<title>4546063600&#45;&gt;4544726320+</title>
<path fill="none" stroke="black" d="M341.21,-88.54C351.82,-86.02 362.82,-83.41 372.77,-81.05"/>
<polygon fill="black" stroke="black" points="373.51,-84.47 382.43,-78.75 371.89,-77.66 373.51,-84.47"/>
</g>
<!-- 4544726320 -->
<g id="node6" class="node">
<title>4544726320</title>
<polygon fill="none" stroke="black" points="472.75,-54.5 472.75,-90.5 579,-90.5 579,-54.5 472.75,-54.5"/>
<text text-anchor="middle" x="483.75" y="-67.7" font-family="Times,serif" font-size="14.00">e</text>
<polyline fill="none" stroke="black" points="494.75,-55 494.75,-90.5"/>
<text text-anchor="middle" x="536.88" y="-67.7" font-family="Times,serif" font-size="14.00">data &#45;4.0000</text>
</g>
<!-- 4544726320+&#45;&gt;4544726320 -->
<g id="edge2" class="edge">
<title>4544726320+&#45;&gt;4544726320</title>
<path fill="none" stroke="black" d="M437.22,-72.5C444.46,-72.5 452.64,-72.5 461.01,-72.5"/>
<polygon fill="black" stroke="black" points="460.98,-76 470.98,-72.5 460.98,-69 460.98,-76"/>
</g>
</g>
</svg>
