<?xml version="1.0" encoding="UTF-8" standalone="no"?>
<!DOCTYPE svg PUBLIC "-//W3C//DTD SVG 1.1//EN"
 "http://www.w3.org/Graphics/SVG/1.1/DTD/svg11.dtd">
<!-- Generated by graphviz version 2.50.0 (0)
 -->
<!-- Pages: 1 -->
<svg width="1155pt" height="154pt"
 viewBox="0.00 0.00 1155.00 154.00" xmlns="http://www.w3.org/2000/svg" xmlns:xlink="http://www.w3.org/1999/xlink">
<g id="graph0" class="graph" transform="scale(1 1) rotate(0) translate(4 150)">
<polygon fill="white" stroke="transparent" points="-4,4 -4,-150 1151,-150 1151,4 -4,4"/>
<!-- 13170634304 -->
<g id="node1" class="node">
<title>13170634304</title>
<polygon fill="none" stroke="black" points="640.5,-109.5 640.5,-145.5 827.5,-145.5 827.5,-109.5 640.5,-109.5"/>
<text text-anchor="middle" x="651" y="-123.8" font-family="Times,serif" font-size="14.00">f</text>
<polyline fill="none" stroke="black" points="661.5,-109.5 661.5,-145.5 "/>
<text text-anchor="middle" x="701.5" y="-123.8" font-family="Times,serif" font-size="14.00">data 2.0000</text>
<polyline fill="none" stroke="black" points="741.5,-109.5 741.5,-145.5 "/>
<text text-anchor="middle" x="784.5" y="-123.8" font-family="Times,serif" font-size="14.00">grad &#45;4.0000</text>
</g>
<!-- 13170633872* -->
<g id="node6" class="node">
<title>13170633872*</title>
<ellipse fill="none" stroke="black" cx="892" cy="-99.5" rx="27" ry="18"/>
<text text-anchor="middle" x="892" y="-95.8" font-family="Times,serif" font-size="14.00">*</text>
</g>
<!-- 13170634304&#45;&gt;13170633872* -->
<g id="edge8" class="edge">
<title>13170634304&#45;&gt;13170633872*</title>
<path fill="none" stroke="black" d="M827.55,-110.89C837.53,-109.1 847.18,-107.36 855.82,-105.81"/>
<polygon fill="black" stroke="black" points="856.58,-109.23 865.81,-104.02 855.34,-102.34 856.58,-109.23"/>
</g>
<!-- 13170631760 -->
<g id="node2" class="node">
<title>13170631760</title>
<polygon fill="none" stroke="black" points="639,-54.5 639,-90.5 829,-90.5 829,-54.5 639,-54.5"/>
<text text-anchor="middle" x="650.5" y="-68.8" font-family="Times,serif" font-size="14.00">e</text>
<polyline fill="none" stroke="black" points="662,-54.5 662,-90.5 "/>
<text text-anchor="middle" x="704.5" y="-68.8" font-family="Times,serif" font-size="14.00">data &#45;4.0000</text>
<polyline fill="none" stroke="black" points="747,-54.5 747,-90.5 "/>
<text text-anchor="middle" x="788" y="-68.8" font-family="Times,serif" font-size="14.00">grad 2.0000</text>
</g>
<!-- 13170631760&#45;&gt;13170633872* -->
<g id="edge7" class="edge">
<title>13170631760&#45;&gt;13170633872*</title>
<path fill="none" stroke="black" d="M829.34,-88.83C838.62,-90.44 847.58,-91.99 855.66,-93.38"/>
<polygon fill="black" stroke="black" points="855.27,-96.87 865.72,-95.12 856.46,-89.97 855.27,-96.87"/>
</g>
<!-- 13170631760+ -->
<g id="node3" class="node">
<title>13170631760+</title>
<ellipse fill="none" stroke="black" cx="576" cy="-72.5" rx="27" ry="18"/>
<text text-anchor="middle" x="576" y="-68.8" font-family="Times,serif" font-size="14.00">+</text>
</g>
<!-- 13170631760+&#45;&gt;13170631760 -->
<g id="edge1" class="edge">
<title>13170631760+&#45;&gt;13170631760</title>
<path fill="none" stroke="black" d="M603.11,-72.5C610.63,-72.5 619.32,-72.5 628.58,-72.5"/>
<polygon fill="black" stroke="black" points="628.81,-76 638.81,-72.5 628.81,-69 628.81,-76"/>
</g>
<!-- 13170636896 -->
<g id="node4" class="node">
<title>13170636896</title>
<polygon fill="none" stroke="black" points="322,-82.5 322,-118.5 507,-118.5 507,-82.5 322,-82.5"/>
<text text-anchor="middle" x="333.5" y="-96.8" font-family="Times,serif" font-size="14.00">c</text>
<polyline fill="none" stroke="black" points="345,-82.5 345,-118.5 "/>
<text text-anchor="middle" x="385" y="-96.8" font-family="Times,serif" font-size="14.00">data 8.0000</text>
<polyline fill="none" stroke="black" points="425,-82.5 425,-118.5 "/>
<text text-anchor="middle" x="466" y="-96.8" font-family="Times,serif" font-size="14.00">grad 0.0000</text>
</g>
<!-- 13170636896&#45;&gt;13170631760+ -->
<g id="edge5" class="edge">
<title>13170636896&#45;&gt;13170631760+</title>
<path fill="none" stroke="black" d="M507.36,-84.37C518.75,-82.37 529.8,-80.43 539.56,-78.72"/>
<polygon fill="black" stroke="black" points="540.35,-82.14 549.59,-76.96 539.14,-75.24 540.35,-82.14"/>
</g>
<!-- 13170633872 -->
<g id="node5" class="node">
<title>13170633872</title>
<polygon fill="none" stroke="black" points="955,-81.5 955,-117.5 1147,-117.5 1147,-81.5 955,-81.5"/>
<text text-anchor="middle" x="967.5" y="-95.8" font-family="Times,serif" font-size="14.00">L</text>
<polyline fill="none" stroke="black" points="980,-81.5 980,-117.5 "/>
<text text-anchor="middle" x="1022.5" y="-95.8" font-family="Times,serif" font-size="14.00">data &#45;8.0000</text>
<polyline fill="none" stroke="black" points="1065,-81.5 1065,-117.5 "/>
<text text-anchor="middle" x="1106" y="-95.8" font-family="Times,serif" font-size="14.00">grad 1.0000</text>
</g>
<!-- 13170633872*&#45;&gt;13170633872 -->
<g id="edge2" class="edge">
<title>13170633872*&#45;&gt;13170633872</title>
<path fill="none" stroke="black" d="M919.28,-99.5C926.78,-99.5 935.44,-99.5 944.67,-99.5"/>
<polygon fill="black" stroke="black" points="944.87,-103 954.87,-99.5 944.87,-96 944.87,-103"/>
</g>
<!-- 6269140144 -->
<g id="node7" class="node">
<title>6269140144</title>
<polygon fill="none" stroke="black" points="2.5,-55.5 2.5,-91.5 187.5,-91.5 187.5,-55.5 2.5,-55.5"/>
<text text-anchor="middle" x="14" y="-69.8" font-family="Times,serif" font-size="14.00">a</text>
<polyline fill="none" stroke="black" points="25.5,-55.5 25.5,-91.5 "/>
<text text-anchor="middle" x="65.5" y="-69.8" font-family="Times,serif" font-size="14.00">data 4.0000</text>
<polyline fill="none" stroke="black" points="105.5,-55.5 105.5,-91.5 "/>
<text text-anchor="middle" x="146.5" y="-69.8" font-family="Times,serif" font-size="14.00">grad 0.0000</text>
</g>
<!-- 13170636704* -->
<g id="node10" class="node">
<title>13170636704*</title>
<ellipse fill="none" stroke="black" cx="253" cy="-45.5" rx="27" ry="18"/>
<text text-anchor="middle" x="253" y="-41.8" font-family="Times,serif" font-size="14.00">*</text>
</g>
<!-- 6269140144&#45;&gt;13170636704* -->
<g id="edge9" class="edge">
<title>6269140144&#45;&gt;13170636704*</title>
<path fill="none" stroke="black" d="M187.65,-57.05C197.94,-55.2 207.91,-53.41 216.81,-51.82"/>
<polygon fill="black" stroke="black" points="217.48,-55.25 226.71,-50.04 216.25,-48.36 217.48,-55.25"/>
</g>
<!-- 13170635648 -->
<g id="node8" class="node">
<title>13170635648</title>
<polygon fill="none" stroke="black" points="0,-0.5 0,-36.5 190,-36.5 190,-0.5 0,-0.5"/>
<text text-anchor="middle" x="11.5" y="-14.8" font-family="Times,serif" font-size="14.00">b</text>
<polyline fill="none" stroke="black" points="23,-0.5 23,-36.5 "/>
<text text-anchor="middle" x="65.5" y="-14.8" font-family="Times,serif" font-size="14.00">data &#45;3.0000</text>
<polyline fill="none" stroke="black" points="108,-0.5 108,-36.5 "/>
<text text-anchor="middle" x="149" y="-14.8" font-family="Times,serif" font-size="14.00">grad 0.0000</text>
</g>
<!-- 13170635648&#45;&gt;13170636704* -->
<g id="edge6" class="edge">
<title>13170635648&#45;&gt;13170636704*</title>
<path fill="none" stroke="black" d="M190.34,-34.83C199.62,-36.44 208.58,-37.99 216.66,-39.38"/>
<polygon fill="black" stroke="black" points="216.27,-42.87 226.72,-41.12 217.46,-35.97 216.27,-42.87"/>
</g>
<!-- 13170636704 -->
<g id="node9" class="node">
<title>13170636704</title>
<polygon fill="none" stroke="black" points="316,-27.5 316,-63.5 513,-63.5 513,-27.5 316,-27.5"/>
<text text-anchor="middle" x="327.5" y="-41.8" font-family="Times,serif" font-size="14.00">d</text>
<polyline fill="none" stroke="black" points="339,-27.5 339,-63.5 "/>
<text text-anchor="middle" x="385" y="-41.8" font-family="Times,serif" font-size="14.00">data &#45;12.0000</text>
<polyline fill="none" stroke="black" points="431,-27.5 431,-63.5 "/>
<text text-anchor="middle" x="472" y="-41.8" font-family="Times,serif" font-size="14.00">grad 0.0000</text>
</g>
<!-- 13170636704&#45;&gt;13170631760+ -->
<g id="edge4" class="edge">
<title>13170636704&#45;&gt;13170631760+</title>
<path fill="none" stroke="black" d="M513.33,-62.06C522.57,-63.62 531.46,-65.13 539.49,-66.49"/>
<polygon fill="black" stroke="black" points="539.04,-69.96 549.48,-68.18 540.21,-63.06 539.04,-69.96"/>
</g>
<!-- 13170636704*&#45;&gt;13170636704 -->
<g id="edge3" class="edge">
<title>13170636704*&#45;&gt;13170636704</title>
<path fill="none" stroke="black" d="M280.34,-45.5C287.81,-45.5 296.44,-45.5 305.64,-45.5"/>
<polygon fill="black" stroke="black" points="305.83,-49 315.83,-45.5 305.83,-42 305.83,-49"/>
</g>
</g>
</svg>
