<?xml version="1.0" encoding="UTF-8" standalone="no"?>
<!DOCTYPE svg PUBLIC "-//W3C//DTD SVG 1.1//EN"
 "http://www.w3.org/Graphics/SVG/1.1/DTD/svg11.dtd">
<!-- Generated by graphviz version 2.50.0 (0)
 -->
<!-- Pages: 1 -->
<svg width="1155pt" height="128pt"
 viewBox="0.00 0.00 1155.00 128.00" xmlns="http://www.w3.org/2000/svg" xmlns:xlink="http://www.w3.org/1999/xlink">
<g id="graph0" class="graph" transform="scale(1 1) rotate(0) translate(4 124)">
<polygon fill="white" stroke="transparent" points="-4,4 -4,-124 1151,-124 1151,4 -4,4"/>
<!-- 4828282080 -->
<g id="node1" class="node">
<title>4828282080</title>
<polygon fill="none" stroke="black" points="639,-27.5 639,-63.5 829,-63.5 829,-27.5 639,-27.5"/>
<text text-anchor="middle" x="650.5" y="-41.8" font-family="Times,serif" font-size="14.00">e</text>
<polyline fill="none" stroke="black" points="662,-27.5 662,-63.5 "/>
<text text-anchor="middle" x="704.5" y="-41.8" font-family="Times,serif" font-size="14.00">data &#45;4.0000</text>
<polyline fill="none" stroke="black" points="747,-27.5 747,-63.5 "/>
<text text-anchor="middle" x="788" y="-41.8" font-family="Times,serif" font-size="14.00">grad 2.0000</text>
</g>
<!-- 4829972912* -->
<g id="node8" class="node">
<title>4829972912*</title>
<ellipse fill="none" stroke="black" cx="892" cy="-72.5" rx="27" ry="18"/>
<text text-anchor="middle" x="892" y="-68.8" font-family="Times,serif" font-size="14.00">*</text>
</g>
<!-- 4828282080&#45;&gt;4829972912* -->
<g id="edge5" class="edge">
<title>4828282080&#45;&gt;4829972912*</title>
<path fill="none" stroke="black" d="M829.34,-61.83C838.62,-63.44 847.58,-64.99 855.66,-66.38"/>
<polygon fill="black" stroke="black" points="855.27,-69.87 865.72,-68.12 856.46,-62.97 855.27,-69.87"/>
</g>
<!-- 4828282080+ -->
<g id="node2" class="node">
<title>4828282080+</title>
<ellipse fill="none" stroke="black" cx="576" cy="-45.5" rx="27" ry="18"/>
<text text-anchor="middle" x="576" y="-41.8" font-family="Times,serif" font-size="14.00">+</text>
</g>
<!-- 4828282080+&#45;&gt;4828282080 -->
<g id="edge1" class="edge">
<title>4828282080+&#45;&gt;4828282080</title>
<path fill="none" stroke="black" d="M603.11,-45.5C610.63,-45.5 619.32,-45.5 628.58,-45.5"/>
<polygon fill="black" stroke="black" points="628.81,-49 638.81,-45.5 628.81,-42 628.81,-49"/>
</g>
<!-- 4829500704 -->
<g id="node3" class="node">
<title>4829500704</title>
<polygon fill="none" stroke="black" points="316,-55.5 316,-91.5 513,-91.5 513,-55.5 316,-55.5"/>
<text text-anchor="middle" x="327.5" y="-69.8" font-family="Times,serif" font-size="14.00">d</text>
<polyline fill="none" stroke="black" points="339,-55.5 339,-91.5 "/>
<text text-anchor="middle" x="385" y="-69.8" font-family="Times,serif" font-size="14.00">data &#45;12.0000</text>
<polyline fill="none" stroke="black" points="431,-55.5 431,-91.5 "/>
<text text-anchor="middle" x="472" y="-69.8" font-family="Times,serif" font-size="14.00">grad 0.0000</text>
</g>
<!-- 4829500704&#45;&gt;4828282080+ -->
<g id="edge7" class="edge">
<title>4829500704&#45;&gt;4828282080+</title>
<path fill="none" stroke="black" d="M513.33,-56.33C522.66,-54.69 531.64,-53.11 539.72,-51.69"/>
<polygon fill="black" stroke="black" points="540.54,-55.1 549.78,-49.93 539.33,-48.21 540.54,-55.1"/>
</g>
<!-- 4829500704* -->
<g id="node4" class="node">
<title>4829500704*</title>
<ellipse fill="none" stroke="black" cx="253" cy="-73.5" rx="27" ry="18"/>
<text text-anchor="middle" x="253" y="-69.8" font-family="Times,serif" font-size="14.00">*</text>
</g>
<!-- 4829500704*&#45;&gt;4829500704 -->
<g id="edge2" class="edge">
<title>4829500704*&#45;&gt;4829500704</title>
<path fill="none" stroke="black" d="M280.34,-73.5C287.81,-73.5 296.44,-73.5 305.64,-73.5"/>
<polygon fill="black" stroke="black" points="305.83,-77 315.83,-73.5 305.83,-70 305.83,-77"/>
</g>
<!-- 4828635424 -->
<g id="node5" class="node">
<title>4828635424</title>
<polygon fill="none" stroke="black" points="2.5,-83.5 2.5,-119.5 187.5,-119.5 187.5,-83.5 2.5,-83.5"/>
<text text-anchor="middle" x="14" y="-97.8" font-family="Times,serif" font-size="14.00">a</text>
<polyline fill="none" stroke="black" points="25.5,-83.5 25.5,-119.5 "/>
<text text-anchor="middle" x="65.5" y="-97.8" font-family="Times,serif" font-size="14.00">data 4.0000</text>
<polyline fill="none" stroke="black" points="105.5,-83.5 105.5,-119.5 "/>
<text text-anchor="middle" x="146.5" y="-97.8" font-family="Times,serif" font-size="14.00">grad 0.0000</text>
</g>
<!-- 4828635424&#45;&gt;4829500704* -->
<g id="edge4" class="edge">
<title>4828635424&#45;&gt;4829500704*</title>
<path fill="none" stroke="black" d="M187.65,-85.05C197.94,-83.2 207.91,-81.41 216.81,-79.82"/>
<polygon fill="black" stroke="black" points="217.48,-83.25 226.71,-78.04 216.25,-76.36 217.48,-83.25"/>
</g>
<!-- 4829509008 -->
<g id="node6" class="node">
<title>4829509008</title>
<polygon fill="none" stroke="black" points="322,-0.5 322,-36.5 507,-36.5 507,-0.5 322,-0.5"/>
<text text-anchor="middle" x="333.5" y="-14.8" font-family="Times,serif" font-size="14.00">c</text>
<polyline fill="none" stroke="black" points="345,-0.5 345,-36.5 "/>
<text text-anchor="middle" x="385" y="-14.8" font-family="Times,serif" font-size="14.00">data 8.0000</text>
<polyline fill="none" stroke="black" points="425,-0.5 425,-36.5 "/>
<text text-anchor="middle" x="466" y="-14.8" font-family="Times,serif" font-size="14.00">grad 0.0000</text>
</g>
<!-- 4829509008&#45;&gt;4828282080+ -->
<g id="edge9" class="edge">
<title>4829509008&#45;&gt;4828282080+</title>
<path fill="none" stroke="black" d="M507.36,-34.05C518.75,-35.98 529.8,-37.85 539.56,-39.5"/>
<polygon fill="black" stroke="black" points="539.15,-42.98 549.59,-41.2 540.32,-36.08 539.15,-42.98"/>
</g>
<!-- 4829972912 -->
<g id="node7" class="node">
<title>4829972912</title>
<polygon fill="none" stroke="black" points="955,-54.5 955,-90.5 1147,-90.5 1147,-54.5 955,-54.5"/>
<text text-anchor="middle" x="967.5" y="-68.8" font-family="Times,serif" font-size="14.00">L</text>
<polyline fill="none" stroke="black" points="980,-54.5 980,-90.5 "/>
<text text-anchor="middle" x="1022.5" y="-68.8" font-family="Times,serif" font-size="14.00">data &#45;8.0000</text>
<polyline fill="none" stroke="black" points="1065,-54.5 1065,-90.5 "/>
<text text-anchor="middle" x="1106" y="-68.8" font-family="Times,serif" font-size="14.00">grad 1.0000</text>
</g>
<!-- 4829972912*&#45;&gt;4829972912 -->
<g id="edge3" class="edge">
<title>4829972912*&#45;&gt;4829972912</title>
<path fill="none" stroke="black" d="M919.28,-72.5C926.78,-72.5 935.44,-72.5 944.67,-72.5"/>
<polygon fill="black" stroke="black" points="944.87,-76 954.87,-72.5 944.87,-69 944.87,-76"/>
</g>
<!-- 4829509056 -->
<g id="node9" class="node">
<title>4829509056</title>
<polygon fill="none" stroke="black" points="0,-28.5 0,-64.5 190,-64.5 190,-28.5 0,-28.5"/>
<text text-anchor="middle" x="11.5" y="-42.8" font-family="Times,serif" font-size="14.00">b</text>
<polyline fill="none" stroke="black" points="23,-28.5 23,-64.5 "/>
<text text-anchor="middle" x="65.5" y="-42.8" font-family="Times,serif" font-size="14.00">data &#45;3.0000</text>
<polyline fill="none" stroke="black" points="108,-28.5 108,-64.5 "/>
<text text-anchor="middle" x="149" y="-42.8" font-family="Times,serif" font-size="14.00">grad 0.0000</text>
</g>
<!-- 4829509056&#45;&gt;4829500704* -->
<g id="edge8" class="edge">
<title>4829509056&#45;&gt;4829500704*</title>
<path fill="none" stroke="black" d="M190.34,-62.83C199.62,-64.44 208.58,-65.99 216.66,-67.38"/>
<polygon fill="black" stroke="black" points="216.27,-70.87 226.72,-69.12 217.46,-63.97 216.27,-70.87"/>
</g>
<!-- 4829973488 -->
<g id="node10" class="node">
<title>4829973488</title>
<polygon fill="none" stroke="black" points="640.5,-82.5 640.5,-118.5 827.5,-118.5 827.5,-82.5 640.5,-82.5"/>
<text text-anchor="middle" x="651" y="-96.8" font-family="Times,serif" font-size="14.00">f</text>
<polyline fill="none" stroke="black" points="661.5,-82.5 661.5,-118.5 "/>
<text text-anchor="middle" x="701.5" y="-96.8" font-family="Times,serif" font-size="14.00">data 2.0000</text>
<polyline fill="none" stroke="black" points="741.5,-82.5 741.5,-118.5 "/>
<text text-anchor="middle" x="784.5" y="-96.8" font-family="Times,serif" font-size="14.00">grad &#45;4.0000</text>
</g>
<!-- 4829973488&#45;&gt;4829972912* -->
<g id="edge6" class="edge">
<title>4829973488&#45;&gt;4829972912*</title>
<path fill="none" stroke="black" d="M827.55,-83.89C837.53,-82.1 847.18,-80.36 855.82,-78.81"/>
<polygon fill="black" stroke="black" points="856.58,-82.23 865.81,-77.02 855.34,-75.34 856.58,-82.23"/>
</g>
</g>
</svg>
