<?xml version="1.0" encoding="UTF-8" standalone="no"?>
<!DOCTYPE svg PUBLIC "-//W3C//DTD SVG 1.1//EN"
 "http://www.w3.org/Graphics/SVG/1.1/DTD/svg11.dtd">
<!-- Generated by graphviz version 2.50.0 (0)
 -->
<!-- Pages: 1 -->
<svg width="827pt" height="128pt"
 viewBox="0.00 0.00 827.00 128.00" xmlns="http://www.w3.org/2000/svg" xmlns:xlink="http://www.w3.org/1999/xlink">
<g id="graph0" class="graph" transform="scale(1 1) rotate(0) translate(4 124)">
<polygon fill="white" stroke="transparent" points="-4,4 -4,-124 823,-124 823,4 -4,4"/>
<!-- 6052990032 -->
<g id="node1" class="node">
<title>6052990032</title>
<polygon fill="none" stroke="black" points="475,-27.5 475,-63.5 583,-63.5 583,-27.5 475,-27.5"/>
<text text-anchor="middle" x="486.5" y="-41.8" font-family="Times,serif" font-size="14.00">e</text>
<polyline fill="none" stroke="black" points="498,-27.5 498,-63.5 "/>
<text text-anchor="middle" x="540.5" y="-41.8" font-family="Times,serif" font-size="14.00">data &#45;4.0000</text>
</g>
<!-- 6052998816* -->
<g id="node6" class="node">
<title>6052998816*</title>
<ellipse fill="none" stroke="black" cx="646" cy="-72.5" rx="27" ry="18"/>
<text text-anchor="middle" x="646" y="-68.8" font-family="Times,serif" font-size="14.00">*</text>
</g>
<!-- 6052990032&#45;&gt;6052998816* -->
<g id="edge4" class="edge">
<title>6052990032&#45;&gt;6052998816*</title>
<path fill="none" stroke="black" d="M583.12,-57.97C592.33,-60.13 601.68,-62.33 610.24,-64.34"/>
<polygon fill="black" stroke="black" points="609.68,-67.8 620.21,-66.68 611.28,-60.99 609.68,-67.8"/>
</g>
<!-- 6052990032+ -->
<g id="node2" class="node">
<title>6052990032+</title>
<ellipse fill="none" stroke="black" cx="412" cy="-45.5" rx="27" ry="18"/>
<text text-anchor="middle" x="412" y="-41.8" font-family="Times,serif" font-size="14.00">+</text>
</g>
<!-- 6052990032+&#45;&gt;6052990032 -->
<g id="edge1" class="edge">
<title>6052990032+&#45;&gt;6052990032</title>
<path fill="none" stroke="black" d="M439.1,-45.5C446.8,-45.5 455.59,-45.5 464.57,-45.5"/>
<polygon fill="black" stroke="black" points="464.75,-49 474.75,-45.5 464.75,-42 464.75,-49"/>
</g>
<!-- 6053000304 -->
<g id="node3" class="node">
<title>6053000304</title>
<polygon fill="none" stroke="black" points="234,-55.5 234,-91.5 349,-91.5 349,-55.5 234,-55.5"/>
<text text-anchor="middle" x="245.5" y="-69.8" font-family="Times,serif" font-size="14.00">d</text>
<polyline fill="none" stroke="black" points="257,-55.5 257,-91.5 "/>
<text text-anchor="middle" x="303" y="-69.8" font-family="Times,serif" font-size="14.00">data &#45;12.0000</text>
</g>
<!-- 6053000304&#45;&gt;6052990032+ -->
<g id="edge6" class="edge">
<title>6053000304&#45;&gt;6052990032+</title>
<path fill="none" stroke="black" d="M349.32,-60.07C358.53,-57.9 367.81,-55.71 376.28,-53.7"/>
<polygon fill="black" stroke="black" points="377.23,-57.08 386.15,-51.37 375.62,-50.26 377.23,-57.08"/>
</g>
<!-- 6053000304* -->
<g id="node4" class="node">
<title>6053000304*</title>
<ellipse fill="none" stroke="black" cx="171" cy="-73.5" rx="27" ry="18"/>
<text text-anchor="middle" x="171" y="-69.8" font-family="Times,serif" font-size="14.00">*</text>
</g>
<!-- 6053000304*&#45;&gt;6053000304 -->
<g id="edge2" class="edge">
<title>6053000304*&#45;&gt;6053000304</title>
<path fill="none" stroke="black" d="M198.01,-73.5C205.81,-73.5 214.75,-73.5 223.93,-73.5"/>
<polygon fill="black" stroke="black" points="223.95,-77 233.95,-73.5 223.95,-70 223.95,-77"/>
</g>
<!-- 6052998816 -->
<g id="node5" class="node">
<title>6052998816</title>
<polygon fill="none" stroke="black" points="709,-54.5 709,-90.5 819,-90.5 819,-54.5 709,-54.5"/>
<text text-anchor="middle" x="721.5" y="-68.8" font-family="Times,serif" font-size="14.00">L</text>
<polyline fill="none" stroke="black" points="734,-54.5 734,-90.5 "/>
<text text-anchor="middle" x="776.5" y="-68.8" font-family="Times,serif" font-size="14.00">data &#45;8.0000</text>
</g>
<!-- 6052998816*&#45;&gt;6052998816 -->
<g id="edge3" class="edge">
<title>6052998816*&#45;&gt;6052998816</title>
<path fill="none" stroke="black" d="M673.03,-72.5C680.7,-72.5 689.45,-72.5 698.42,-72.5"/>
<polygon fill="black" stroke="black" points="698.58,-76 708.58,-72.5 698.58,-69 698.58,-76"/>
</g>
<!-- 6052997520 -->
<g id="node7" class="node">
<title>6052997520</title>
<polygon fill="none" stroke="black" points="478.5,-82.5 478.5,-118.5 579.5,-118.5 579.5,-82.5 478.5,-82.5"/>
<text text-anchor="middle" x="489" y="-96.8" font-family="Times,serif" font-size="14.00">f</text>
<polyline fill="none" stroke="black" points="499.5,-82.5 499.5,-118.5 "/>
<text text-anchor="middle" x="539.5" y="-96.8" font-family="Times,serif" font-size="14.00">data 2.0000</text>
</g>
<!-- 6052997520&#45;&gt;6052998816* -->
<g id="edge5" class="edge">
<title>6052997520&#45;&gt;6052998816*</title>
<path fill="none" stroke="black" d="M579.77,-88.38C590.11,-85.86 600.8,-83.26 610.45,-80.91"/>
<polygon fill="black" stroke="black" points="611.56,-84.24 620.45,-78.48 609.9,-77.44 611.56,-84.24"/>
</g>
<!-- 6052996512 -->
<g id="node8" class="node">
<title>6052996512</title>
<polygon fill="none" stroke="black" points="240,-0.5 240,-36.5 343,-36.5 343,-0.5 240,-0.5"/>
<text text-anchor="middle" x="251.5" y="-14.8" font-family="Times,serif" font-size="14.00">c</text>
<polyline fill="none" stroke="black" points="263,-0.5 263,-36.5 "/>
<text text-anchor="middle" x="303" y="-14.8" font-family="Times,serif" font-size="14.00">data 8.0000</text>
</g>
<!-- 6052996512&#45;&gt;6052990032+ -->
<g id="edge8" class="edge">
<title>6052996512&#45;&gt;6052990032+</title>
<path fill="none" stroke="black" d="M343.1,-30.03C354.33,-32.59 365.98,-35.24 376.4,-37.62"/>
<polygon fill="black" stroke="black" points="375.81,-41.07 386.34,-39.88 377.37,-34.25 375.81,-41.07"/>
</g>
<!-- 6094960064 -->
<g id="node9" class="node">
<title>6094960064</title>
<polygon fill="none" stroke="black" points="2.5,-83.5 2.5,-119.5 105.5,-119.5 105.5,-83.5 2.5,-83.5"/>
<text text-anchor="middle" x="14" y="-97.8" font-family="Times,serif" font-size="14.00">a</text>
<polyline fill="none" stroke="black" points="25.5,-83.5 25.5,-119.5 "/>
<text text-anchor="middle" x="65.5" y="-97.8" font-family="Times,serif" font-size="14.00">data 4.0000</text>
</g>
<!-- 6094960064&#45;&gt;6053000304* -->
<g id="edge7" class="edge">
<title>6094960064&#45;&gt;6053000304*</title>
<path fill="none" stroke="black" d="M105.78,-89.14C115.85,-86.68 126.2,-84.16 135.58,-81.88"/>
<polygon fill="black" stroke="black" points="136.41,-85.28 145.3,-79.51 134.76,-78.48 136.41,-85.28"/>
</g>
<!-- 6095759856 -->
<g id="node10" class="node">
<title>6095759856</title>
<polygon fill="none" stroke="black" points="0,-28.5 0,-64.5 108,-64.5 108,-28.5 0,-28.5"/>
<text text-anchor="middle" x="11.5" y="-42.8" font-family="Times,serif" font-size="14.00">b</text>
<polyline fill="none" stroke="black" points="23,-28.5 23,-64.5 "/>
<text text-anchor="middle" x="65.5" y="-42.8" font-family="Times,serif" font-size="14.00">data &#45;3.0000</text>
</g>
<!-- 6095759856&#45;&gt;6053000304* -->
<g id="edge9" class="edge">
<title>6095759856&#45;&gt;6053000304*</title>
<path fill="none" stroke="black" d="M108.12,-58.97C117.33,-61.13 126.68,-63.33 135.24,-65.34"/>
<polygon fill="black" stroke="black" points="134.68,-68.8 145.21,-67.68 136.28,-61.99 134.68,-68.8"/>
</g>
</g>
</svg>
