<?xml version="1.0" encoding="UTF-8" standalone="no"?>
<!DOCTYPE svg PUBLIC "-//W3C//DTD SVG 1.1//EN"
 "http://www.w3.org/Graphics/SVG/1.1/DTD/svg11.dtd">
<!-- Generated by graphviz version 2.50.0 (0)
 -->
<!-- Pages: 1 -->
<svg width="591pt" height="127pt"
 viewBox="0.00 0.00 591.00 127.00" xmlns="http://www.w3.org/2000/svg" xmlns:xlink="http://www.w3.org/1999/xlink">
<g id="graph0" class="graph" transform="scale(1 1) rotate(0) translate(4 123)">
<polygon fill="white" stroke="transparent" points="-4,4 -4,-123 587,-123 587,4 -4,4"/>
<!-- 6280609424 -->
<g id="node1" class="node">
<title>6280609424</title>
<polygon fill="none" stroke="black" points="234,-27.5 234,-63.5 349,-63.5 349,-27.5 234,-27.5"/>
<text text-anchor="middle" x="245.5" y="-41.8" font-family="Times,serif" font-size="14.00">d</text>
<polyline fill="none" stroke="black" points="257,-27.5 257,-63.5 "/>
<text text-anchor="middle" x="303" y="-41.8" font-family="Times,serif" font-size="14.00">data &#45;12.0000</text>
</g>
<!-- 6280595216+ -->
<g id="node6" class="node">
<title>6280595216+</title>
<ellipse fill="none" stroke="black" cx="412" cy="-72.5" rx="27" ry="18"/>
<text text-anchor="middle" x="412" y="-68.8" font-family="Times,serif" font-size="14.00">+</text>
</g>
<!-- 6280609424&#45;&gt;6280595216+ -->
<g id="edge3" class="edge">
<title>6280609424&#45;&gt;6280595216+</title>
<path fill="none" stroke="black" d="M349.32,-58.45C358.53,-60.54 367.81,-62.66 376.28,-64.59"/>
<polygon fill="black" stroke="black" points="375.63,-68.03 386.15,-66.84 377.18,-61.2 375.63,-68.03"/>
</g>
<!-- 6280609424* -->
<g id="node2" class="node">
<title>6280609424*</title>
<ellipse fill="none" stroke="black" cx="171" cy="-45.5" rx="27" ry="18"/>
<text text-anchor="middle" x="171" y="-41.8" font-family="Times,serif" font-size="14.00">*</text>
</g>
<!-- 6280609424*&#45;&gt;6280609424 -->
<g id="edge1" class="edge">
<title>6280609424*&#45;&gt;6280609424</title>
<path fill="none" stroke="black" d="M198.01,-45.5C205.81,-45.5 214.75,-45.5 223.93,-45.5"/>
<polygon fill="black" stroke="black" points="223.95,-49 233.95,-45.5 223.95,-42 223.95,-49"/>
</g>
<!-- 6280600736 -->
<g id="node3" class="node">
<title>6280600736</title>
<polygon fill="none" stroke="black" points="240,-82.5 240,-118.5 343,-118.5 343,-82.5 240,-82.5"/>
<text text-anchor="middle" x="251.5" y="-96.8" font-family="Times,serif" font-size="14.00">c</text>
<polyline fill="none" stroke="black" points="263,-82.5 263,-118.5 "/>
<text text-anchor="middle" x="303" y="-96.8" font-family="Times,serif" font-size="14.00">data 8.0000</text>
</g>
<!-- 6280600736&#45;&gt;6280595216+ -->
<g id="edge6" class="edge">
<title>6280600736&#45;&gt;6280595216+</title>
<path fill="none" stroke="black" d="M343.1,-88.54C354.33,-85.89 365.98,-83.14 376.4,-80.68"/>
<polygon fill="black" stroke="black" points="377.41,-84.03 386.34,-78.33 375.8,-77.22 377.41,-84.03"/>
</g>
<!-- 6280594688 -->
<g id="node4" class="node">
<title>6280594688</title>
<polygon fill="none" stroke="black" points="0,-55.5 0,-91.5 108,-91.5 108,-55.5 0,-55.5"/>
<text text-anchor="middle" x="11.5" y="-69.8" font-family="Times,serif" font-size="14.00">b</text>
<polyline fill="none" stroke="black" points="23,-55.5 23,-91.5 "/>
<text text-anchor="middle" x="65.5" y="-69.8" font-family="Times,serif" font-size="14.00">data &#45;3.0000</text>
</g>
<!-- 6280594688&#45;&gt;6280609424* -->
<g id="edge4" class="edge">
<title>6280594688&#45;&gt;6280609424*</title>
<path fill="none" stroke="black" d="M108.12,-60.57C117.51,-58.28 127.06,-55.95 135.76,-53.84"/>
<polygon fill="black" stroke="black" points="136.62,-57.23 145.51,-51.46 134.97,-50.43 136.62,-57.23"/>
</g>
<!-- 6280595216 -->
<g id="node5" class="node">
<title>6280595216</title>
<polygon fill="none" stroke="black" points="475,-54.5 475,-90.5 583,-90.5 583,-54.5 475,-54.5"/>
<text text-anchor="middle" x="486.5" y="-68.8" font-family="Times,serif" font-size="14.00">e</text>
<polyline fill="none" stroke="black" points="498,-54.5 498,-90.5 "/>
<text text-anchor="middle" x="540.5" y="-68.8" font-family="Times,serif" font-size="14.00">data &#45;4.0000</text>
</g>
<!-- 6280595216+&#45;&gt;6280595216 -->
<g id="edge2" class="edge">
<title>6280595216+&#45;&gt;6280595216</title>
<path fill="none" stroke="black" d="M439.1,-72.5C446.8,-72.5 455.59,-72.5 464.57,-72.5"/>
<polygon fill="black" stroke="black" points="464.75,-76 474.75,-72.5 464.75,-69 464.75,-76"/>
</g>
<!-- 6280599008 -->
<g id="node7" class="node">
<title>6280599008</title>
<polygon fill="none" stroke="black" points="2.5,-0.5 2.5,-36.5 105.5,-36.5 105.5,-0.5 2.5,-0.5"/>
<text text-anchor="middle" x="14" y="-14.8" font-family="Times,serif" font-size="14.00">a</text>
<polyline fill="none" stroke="black" points="25.5,-0.5 25.5,-36.5 "/>
<text text-anchor="middle" x="65.5" y="-14.8" font-family="Times,serif" font-size="14.00">data 4.0000</text>
</g>
<!-- 6280599008&#45;&gt;6280609424* -->
<g id="edge5" class="edge">
<title>6280599008&#45;&gt;6280609424*</title>
<path fill="none" stroke="black" d="M105.78,-30.42C115.74,-32.76 125.98,-35.17 135.28,-37.35"/>
<polygon fill="black" stroke="black" points="134.77,-40.82 145.3,-39.7 136.37,-34.01 134.77,-40.82"/>
</g>
</g>
</svg>
