<?xml version="1.0" encoding="UTF-8" standalone="no"?>
<!DOCTYPE svg PUBLIC "-//W3C//DTD SVG 1.1//EN"
 "http://www.w3.org/Graphics/SVG/1.1/DTD/svg11.dtd">
<!-- Generated by graphviz version 12.0.0 (20240704.0754)
 -->
<!-- Pages: 1 -->
<svg width="587pt" height="127pt"
 viewBox="0.00 0.00 587.00 127.00" xmlns="http://www.w3.org/2000/svg" xmlns:xlink="http://www.w3.org/1999/xlink">
<g id="graph0" class="graph" transform="scale(1 1) rotate(0) translate(4 123)">
<polygon fill="white" stroke="none" points="-4,4 -4,-123 583,-123 583,4 -4,4"/>
<!-- 4821254560 -->
<g id="node1" class="node">
<title>4821254560</title>
<polygon fill="none" stroke="black" points="239,-82.5 239,-118.5 340.75,-118.5 340.75,-82.5 239,-82.5"/>
<text text-anchor="middle" x="250" y="-95.7" font-family="Times,serif" font-size="14.00">c</text>
<polyline fill="none" stroke="black" points="261,-83 261,-118.5"/>
<text text-anchor="middle" x="300.88" y="-95.7" font-family="Times,serif" font-size="14.00">data 8.0000</text>
</g>
<!-- 4821264256+ -->
<g id="node4" class="node">
<title>4821264256+</title>
<ellipse fill="none" stroke="black" cx="409.75" cy="-72.5" rx="27" ry="18"/>
<text text-anchor="middle" x="409.75" y="-67.45" font-family="Times,serif" font-size="14.00">+</text>
</g>
<!-- 4821254560&#45;&gt;4821264256+ -->
<g id="edge6" class="edge">
<title>4821254560&#45;&gt;4821264256+</title>
<path fill="none" stroke="black" d="M341.21,-88.54C351.82,-86.02 362.82,-83.41 372.77,-81.05"/>
<polygon fill="black" stroke="black" points="373.51,-84.47 382.43,-78.75 371.89,-77.66 373.51,-84.47"/>
</g>
<!-- 4820713744 -->
<g id="node2" class="node">
<title>4820713744</title>
<polygon fill="none" stroke="black" points="2.62,-55.5 2.62,-91.5 104.38,-91.5 104.38,-55.5 2.62,-55.5"/>
<text text-anchor="middle" x="13.62" y="-68.7" font-family="Times,serif" font-size="14.00">a</text>
<polyline fill="none" stroke="black" points="24.62,-56 24.62,-91.5"/>
<text text-anchor="middle" x="64.5" y="-68.7" font-family="Times,serif" font-size="14.00">data 4.0000</text>
</g>
<!-- 4820727184* -->
<g id="node6" class="node">
<title>4820727184*</title>
<ellipse fill="none" stroke="black" cx="170" cy="-45.5" rx="27" ry="18"/>
<text text-anchor="middle" x="170" y="-40.45" font-family="Times,serif" font-size="14.00">*</text>
</g>
<!-- 4820713744&#45;&gt;4820727184* -->
<g id="edge5" class="edge">
<title>4820713744&#45;&gt;4820727184*</title>
<path fill="none" stroke="black" d="M104.72,-61.22C114.35,-58.86 124.26,-56.44 133.32,-54.23"/>
<polygon fill="black" stroke="black" points="133.9,-57.69 142.78,-51.91 132.24,-50.89 133.9,-57.69"/>
</g>
<!-- 4821264256 -->
<g id="node3" class="node">
<title>4821264256</title>
<polygon fill="none" stroke="black" points="472.75,-54.5 472.75,-90.5 579,-90.5 579,-54.5 472.75,-54.5"/>
<text text-anchor="middle" x="483.75" y="-67.7" font-family="Times,serif" font-size="14.00">e</text>
<polyline fill="none" stroke="black" points="494.75,-55 494.75,-90.5"/>
<text text-anchor="middle" x="536.88" y="-67.7" font-family="Times,serif" font-size="14.00">data &#45;4.0000</text>
</g>
<!-- 4821264256+&#45;&gt;4821264256 -->
<g id="edge1" class="edge">
<title>4821264256+&#45;&gt;4821264256</title>
<path fill="none" stroke="black" d="M437.22,-72.5C444.46,-72.5 452.64,-72.5 461.01,-72.5"/>
<polygon fill="black" stroke="black" points="460.98,-76 470.98,-72.5 460.98,-69 460.98,-76"/>
</g>
<!-- 4820727184 -->
<g id="node5" class="node">
<title>4820727184</title>
<polygon fill="none" stroke="black" points="233,-27.5 233,-63.5 346.75,-63.5 346.75,-27.5 233,-27.5"/>
<text text-anchor="middle" x="244.38" y="-40.7" font-family="Times,serif" font-size="14.00">d</text>
<polyline fill="none" stroke="black" points="255.75,-28 255.75,-63.5"/>
<text text-anchor="middle" x="301.25" y="-40.7" font-family="Times,serif" font-size="14.00">data &#45;12.0000</text>
</g>
<!-- 4820727184&#45;&gt;4821264256+ -->
<g id="edge3" class="edge">
<title>4820727184&#45;&gt;4821264256+</title>
<path fill="none" stroke="black" d="M347.05,-58.37C355.84,-60.38 364.7,-62.41 372.87,-64.28"/>
<polygon fill="black" stroke="black" points="371.86,-67.64 382.39,-66.46 373.43,-60.82 371.86,-67.64"/>
</g>
<!-- 4820727184*&#45;&gt;4820727184 -->
<g id="edge2" class="edge">
<title>4820727184*&#45;&gt;4820727184</title>
<path fill="none" stroke="black" d="M197.45,-45.5C204.64,-45.5 212.76,-45.5 221.13,-45.5"/>
<polygon fill="black" stroke="black" points="221.11,-49 231.11,-45.5 221.11,-42 221.11,-49"/>
</g>
<!-- 4821265312 -->
<g id="node7" class="node">
<title>4821265312</title>
<polygon fill="none" stroke="black" points="0,-0.5 0,-36.5 107,-36.5 107,-0.5 0,-0.5"/>
<text text-anchor="middle" x="11.38" y="-13.7" font-family="Times,serif" font-size="14.00">b</text>
<polyline fill="none" stroke="black" points="22.75,-1 22.75,-36.5"/>
<text text-anchor="middle" x="64.88" y="-13.7" font-family="Times,serif" font-size="14.00">data &#45;3.0000</text>
</g>
<!-- 4821265312&#45;&gt;4820727184* -->
<g id="edge4" class="edge">
<title>4821265312&#45;&gt;4820727184*</title>
<path fill="none" stroke="black" d="M107.39,-30.97C116.08,-33.02 124.89,-35.1 133.04,-37.02"/>
<polygon fill="black" stroke="black" points="132.01,-40.37 142.55,-39.26 133.62,-33.56 132.01,-40.37"/>
</g>
</g>
</svg>
