<?xml version="1.0" encoding="UTF-8" standalone="no"?>
<!DOCTYPE svg PUBLIC "-//W3C//DTD SVG 1.1//EN"
 "http://www.w3.org/Graphics/SVG/1.1/DTD/svg11.dtd">
<!-- Generated by graphviz version 12.0.0 (20240704.0754)
 -->
<!-- Title: Tree Pages: 1 -->
<svg width="230pt" height="116pt"
 viewBox="0.00 0.00 230.25 116.00" xmlns="http://www.w3.org/2000/svg" xmlns:xlink="http://www.w3.org/1999/xlink">
<g id="graph0" class="graph" transform="scale(1 1) rotate(0) translate(4 112)">
<title>Tree</title>
<polygon fill="white" stroke="none" points="-4,4 -4,-112 226.25,-112 226.25,4 -4,4"/>
<!-- 0 -->
<g id="node1" class="node">
<title>0</title>
<ellipse fill="#ffffff" stroke="black" cx="107" cy="-90" rx="64.51" ry="18"/>
<text text-anchor="middle" x="107" y="-84.2" font-family="Helvetica,sans-Serif" font-size="14.00">Marital Status</text>
</g>
<!-- 1 -->
<g id="node2" class="node">
<title>1</title>
<path fill="#ffffff" stroke="none" d="M42,-36C42,-36 12,-36 12,-36 6,-36 0,-30 0,-24 0,-24 0,-12 0,-12 0,-6 6,0 12,0 12,0 42,0 42,0 48,0 54,-6 54,-12 54,-12 54,-24 54,-24 54,-30 48,-36 42,-36"/>
<text text-anchor="middle" x="27" y="-12.2" font-family="Helvetica,sans-Serif" font-size="14.00">Single</text>
</g>
<!-- 0&#45;&gt;1 -->
<g id="edge1" class="edge">
<title>0&#45;&gt;1</title>
<path fill="none" stroke="black" d="M88.04,-72.41C78.12,-63.73 65.8,-52.95 54.82,-43.34"/>
<polygon fill="black" stroke="black" points="57.35,-40.9 47.52,-36.95 52.74,-46.17 57.35,-40.9"/>
</g>
<!-- 2 -->
<g id="node3" class="node">
<title>2</title>
<path fill="#ffffff" stroke="none" d="M129.62,-36C129.62,-36 84.38,-36 84.38,-36 78.38,-36 72.38,-30 72.38,-24 72.38,-24 72.38,-12 72.38,-12 72.38,-6 78.38,0 84.38,0 84.38,0 129.62,0 129.62,0 135.62,0 141.62,-6 141.62,-12 141.62,-12 141.62,-24 141.62,-24 141.62,-30 135.62,-36 129.62,-36"/>
<text text-anchor="middle" x="107" y="-12.2" font-family="Helvetica,sans-Serif" font-size="14.00">Divorced</text>
</g>
<!-- 0&#45;&gt;2 -->
<g id="edge2" class="edge">
<title>0&#45;&gt;2</title>
<path fill="none" stroke="black" d="M107,-71.7C107,-64.21 107,-55.26 107,-46.88"/>
<polygon fill="black" stroke="black" points="110.5,-47.14 107,-37.14 103.5,-47.14 110.5,-47.14"/>
</g>
<!-- 3 -->
<g id="node4" class="node">
<title>3</title>
<path fill="#ffffff" stroke="none" d="M210.25,-36C210.25,-36 171.75,-36 171.75,-36 165.75,-36 159.75,-30 159.75,-24 159.75,-24 159.75,-12 159.75,-12 159.75,-6 165.75,0 171.75,0 171.75,0 210.25,0 210.25,0 216.25,0 222.25,-6 222.25,-12 222.25,-12 222.25,-24 222.25,-24 222.25,-30 216.25,-36 210.25,-36"/>
<text text-anchor="middle" x="191" y="-12.2" font-family="Helvetica,sans-Serif" font-size="14.00">Married</text>
</g>
<!-- 0&#45;&gt;3 -->
<g id="edge3" class="edge">
<title>0&#45;&gt;3</title>
<path fill="none" stroke="black" d="M126.91,-72.41C137.42,-63.65 150.52,-52.73 162.13,-43.06"/>
<polygon fill="black" stroke="black" points="164.05,-46.02 169.49,-36.93 159.57,-40.64 164.05,-46.02"/>
</g>
</g>
</svg>
