<?xml version="1.0" encoding="UTF-8" standalone="no"?>
<!DOCTYPE svg PUBLIC "-//W3C//DTD SVG 1.1//EN"
 "http://www.w3.org/Graphics/SVG/1.1/DTD/svg11.dtd">
<!-- Generated by graphviz version 2.50.0 (0)
 -->
<!-- Title: Tree Pages: 1 -->
<svg width="236pt" height="210pt"
 viewBox="0.00 0.00 236.00 210.00" xmlns="http://www.w3.org/2000/svg" xmlns:xlink="http://www.w3.org/1999/xlink">
<g id="graph0" class="graph" transform="scale(1 1) rotate(0) translate(4 206)">
<title>Tree</title>
<polygon fill="white" stroke="transparent" points="-4,4 -4,-206 232,-206 232,4 -4,4"/>
<!-- 0 -->
<g id="node1" class="node">
<title>0</title>
<path fill="#ffffff" stroke="black" d="M154,-202C154,-202 73,-202 73,-202 67,-202 61,-196 61,-190 61,-190 61,-116 61,-116 61,-110 67,-104 73,-104 73,-104 154,-104 154,-104 160,-104 166,-110 166,-116 166,-116 166,-190 166,-190 166,-196 160,-202 154,-202"/>
<text text-anchor="middle" x="113.5" y="-186.8" font-family="Helvetica,sans-Serif" font-size="14.00">Home Owner?</text>
<text text-anchor="middle" x="113.5" y="-171.8" font-family="Helvetica,sans-Serif" font-size="14.00">&#45;&#45;&#45;</text>
<text text-anchor="middle" x="113.5" y="-156.8" font-family="Helvetica,sans-Serif" font-size="14.00">samples = 10</text>
<text text-anchor="middle" x="113.5" y="-141.8" font-family="Helvetica,sans-Serif" font-size="14.00">values = [7, 3]</text>
<text text-anchor="middle" x="113.5" y="-126.8" font-family="Helvetica,sans-Serif" font-size="14.00">defaulted = No</text>
<text text-anchor="middle" x="113.5" y="-111.8" font-family="Helvetica,sans-Serif" font-size="14.00">error = 30%</text>
</g>
<!-- 1 -->
<g id="node2" class="node">
<title>1</title>
<path fill="#e58139" stroke="black" d="M93,-68C93,-68 12,-68 12,-68 6,-68 0,-62 0,-56 0,-56 0,-12 0,-12 0,-6 6,0 12,0 12,0 93,0 93,0 99,0 105,-6 105,-12 105,-12 105,-56 105,-56 105,-62 99,-68 93,-68"/>
<text text-anchor="middle" x="52.5" y="-52.8" font-family="Helvetica,sans-Serif" font-size="14.00">samples = 3</text>
<text text-anchor="middle" x="52.5" y="-37.8" font-family="Helvetica,sans-Serif" font-size="14.00">value = [3, 0]</text>
<text text-anchor="middle" x="52.5" y="-22.8" font-family="Helvetica,sans-Serif" font-size="14.00">defaulted = No</text>
<text text-anchor="middle" x="52.5" y="-7.8" font-family="Helvetica,sans-Serif" font-size="14.00">error = 0%</text>
</g>
<!-- 0&#45;&gt;1 -->
<g id="edge1" class="edge">
<title>0&#45;&gt;1</title>
<path fill="none" stroke="black" d="M88.34,-103.74C83.76,-94.95 79.01,-85.85 74.53,-77.26"/>
<polygon fill="black" stroke="black" points="77.52,-75.42 69.8,-68.17 71.31,-78.66 77.52,-75.42"/>
<text text-anchor="middle" x="62.29" y="-88.32" font-family="Helvetica,sans-Serif" font-size="14.00">Yes</text>
</g>
<!-- 2 -->
<g id="node3" class="node">
<title>2</title>
<path fill="#ffffff" stroke="black" d="M216,-68C216,-68 135,-68 135,-68 129,-68 123,-62 123,-56 123,-56 123,-12 123,-12 123,-6 129,0 135,0 135,0 216,0 216,0 222,0 228,-6 228,-12 228,-12 228,-56 228,-56 228,-62 222,-68 216,-68"/>
<text text-anchor="middle" x="175.5" y="-52.8" font-family="Helvetica,sans-Serif" font-size="14.00">samples = 7</text>
<text text-anchor="middle" x="175.5" y="-37.8" font-family="Helvetica,sans-Serif" font-size="14.00">value = [4, 3]</text>
<text text-anchor="middle" x="175.5" y="-22.8" font-family="Helvetica,sans-Serif" font-size="14.00">defaulted = No</text>
<text text-anchor="middle" x="175.5" y="-7.8" font-family="Helvetica,sans-Serif" font-size="14.00">error = 43%</text>
</g>
<!-- 0&#45;&gt;2 -->
<g id="edge2" class="edge">
<title>0&#45;&gt;2</title>
<path fill="none" stroke="black" d="M139.08,-103.74C143.73,-94.95 148.55,-85.85 153.11,-77.26"/>
<polygon fill="black" stroke="black" points="156.33,-78.65 157.92,-68.17 150.15,-75.37 156.33,-78.65"/>
<text text-anchor="middle" x="165.26" y="-88.37" font-family="Helvetica,sans-Serif" font-size="14.00">No</text>
</g>
</g>
</svg>
