<?xml version="1.0" encoding="UTF-8" standalone="no"?>
<!DOCTYPE svg PUBLIC "-//W3C//DTD SVG 1.1//EN"
 "http://www.w3.org/Graphics/SVG/1.1/DTD/svg11.dtd">
<!-- Generated by graphviz version 12.2.1 (20241206.2353)
 -->
<!-- Title: Tree Pages: 1 -->
<svg width="236pt" height="210pt"
 viewBox="0.00 0.00 235.50 210.00" xmlns="http://www.w3.org/2000/svg" xmlns:xlink="http://www.w3.org/1999/xlink">
<g id="graph0" class="graph" transform="scale(1 1) rotate(0) translate(4 206)">
<title>Tree</title>
<polygon fill="white" stroke="none" points="-4,4 -4,-206 231.5,-206 231.5,4 -4,4"/>
<!-- 0 -->
<g id="node1" class="node">
<title>0</title>
<path fill="#ffffff" stroke="black" d="M153.5,-202C153.5,-202 73,-202 73,-202 67,-202 61,-196 61,-190 61,-190 61,-116 61,-116 61,-110 67,-104 73,-104 73,-104 153.5,-104 153.5,-104 159.5,-104 165.5,-110 165.5,-116 165.5,-116 165.5,-190 165.5,-190 165.5,-196 159.5,-202 153.5,-202"/>
<text text-anchor="middle" x="113.25" y="-184.7" font-family="Helvetica,sans-Serif" font-size="14.00">Home Owner?</text>
<text text-anchor="middle" x="113.25" y="-169.7" font-family="Helvetica,sans-Serif" font-size="14.00">&#45;&#45;&#45;</text>
<text text-anchor="middle" x="113.25" y="-154.7" font-family="Helvetica,sans-Serif" font-size="14.00">samples = 10</text>
<text text-anchor="middle" x="113.25" y="-139.7" font-family="Helvetica,sans-Serif" font-size="14.00">values = [7, 3]</text>
<text text-anchor="middle" x="113.25" y="-124.7" font-family="Helvetica,sans-Serif" font-size="14.00">defaulted = No</text>
<text text-anchor="middle" x="113.25" y="-109.7" font-family="Helvetica,sans-Serif" font-size="14.00">error = 30%</text>
</g>
<!-- 1 -->
<g id="node2" class="node">
<title>1</title>
<path fill="#e58139" stroke="black" d="M92.5,-68C92.5,-68 12,-68 12,-68 6,-68 0,-62 0,-56 0,-56 0,-12 0,-12 0,-6 6,0 12,0 12,0 92.5,0 92.5,0 98.5,0 104.5,-6 104.5,-12 104.5,-12 104.5,-56 104.5,-56 104.5,-62 98.5,-68 92.5,-68"/>
<text text-anchor="middle" x="52.25" y="-50.7" font-family="Helvetica,sans-Serif" font-size="14.00">samples = 3</text>
<text text-anchor="middle" x="52.25" y="-35.7" font-family="Helvetica,sans-Serif" font-size="14.00">value = [3, 0]</text>
<text text-anchor="middle" x="52.25" y="-20.7" font-family="Helvetica,sans-Serif" font-size="14.00">defaulted = No</text>
<text text-anchor="middle" x="52.25" y="-5.7" font-family="Helvetica,sans-Serif" font-size="14.00">error = 0%</text>
</g>
<!-- 0&#45;&gt;1 -->
<g id="edge1" class="edge">
<title>0&#45;&gt;1</title>
<path fill="none" stroke="black" d="M88.09,-103.74C83.7,-95.33 79.17,-86.63 74.86,-78.36"/>
<polygon fill="black" stroke="black" points="77.97,-76.76 70.25,-69.52 71.76,-80 77.97,-76.76"/>
<text text-anchor="middle" x="62.04" y="-86.22" font-family="Helvetica,sans-Serif" font-size="14.00">Yes</text>
</g>
<!-- 2 -->
<g id="node3" class="node">
<title>2</title>
<path fill="#ffffff" stroke="black" d="M215.5,-68C215.5,-68 135,-68 135,-68 129,-68 123,-62 123,-56 123,-56 123,-12 123,-12 123,-6 129,0 135,0 135,0 215.5,0 215.5,0 221.5,0 227.5,-6 227.5,-12 227.5,-12 227.5,-56 227.5,-56 227.5,-62 221.5,-68 215.5,-68"/>
<text text-anchor="middle" x="175.25" y="-50.7" font-family="Helvetica,sans-Serif" font-size="14.00">samples = 7</text>
<text text-anchor="middle" x="175.25" y="-35.7" font-family="Helvetica,sans-Serif" font-size="14.00">value = [4, 3]</text>
<text text-anchor="middle" x="175.25" y="-20.7" font-family="Helvetica,sans-Serif" font-size="14.00">defaulted = No</text>
<text text-anchor="middle" x="175.25" y="-5.7" font-family="Helvetica,sans-Serif" font-size="14.00">error = 43%</text>
</g>
<!-- 0&#45;&gt;2 -->
<g id="edge2" class="edge">
<title>0&#45;&gt;2</title>
<path fill="none" stroke="black" d="M138.83,-103.74C143.33,-95.23 148,-86.43 152.42,-78.08"/>
<polygon fill="black" stroke="black" points="155.37,-79.99 156.96,-69.51 149.19,-76.71 155.37,-79.99"/>
<text text-anchor="middle" x="165.01" y="-86.27" font-family="Helvetica,sans-Serif" font-size="14.00">No</text>
</g>
</g>
</svg>
