<?xml version="1.0" encoding="UTF-8" standalone="no"?>
<!DOCTYPE svg PUBLIC "-//W3C//DTD SVG 1.1//EN"
 "http://www.w3.org/Graphics/SVG/1.1/DTD/svg11.dtd">
<!-- Generated by graphviz version 2.50.0 (0)
 -->
<!-- Title: Tree Pages: 1 -->
<svg width="136pt" height="153pt"
 viewBox="0.00 0.00 136.00 152.74" xmlns="http://www.w3.org/2000/svg" xmlns:xlink="http://www.w3.org/1999/xlink">
<g id="graph0" class="graph" transform="scale(1 1) rotate(0) translate(4 148.74)">
<title>Tree</title>
<polygon fill="white" stroke="transparent" points="-4,4 -4,-148.74 132,-148.74 132,4 -4,4"/>
<!-- 0 -->
<g id="node1" class="node">
<title>0</title>
<ellipse fill="#ffffff" stroke="black" cx="63.5" cy="-117.87" rx="40.11" ry="26.74"/>
<text text-anchor="middle" x="63.5" y="-121.67" font-family="Helvetica,sans-Serif" font-size="14.00">Home</text>
<text text-anchor="middle" x="63.5" y="-106.67" font-family="Helvetica,sans-Serif" font-size="14.00">Owner</text>
</g>
<!-- 1 -->
<g id="node2" class="node">
<title>1</title>
<polygon fill="#ffffff" stroke="black" points="55,-55 0,-55 0,0 55,0 55,-55"/>
<text text-anchor="middle" x="27.5" y="-31.3" font-family="Helvetica,sans-Serif" font-size="14.00">Yes: 0</text>
<text text-anchor="middle" x="27.5" y="-16.3" font-family="Helvetica,sans-Serif" font-size="14.00">No: 3</text>
</g>
<!-- 0&#45;&gt;1 -->
<g id="edge1" class="edge">
<title>0&#45;&gt;1</title>
<path fill="none" stroke="black" d="M53.28,-91.78C49.82,-83.3 45.89,-73.65 42.16,-64.49"/>
<polygon fill="black" stroke="black" points="45.39,-63.13 38.37,-55.19 38.91,-65.78 45.39,-63.13"/>
<text text-anchor="middle" x="28.67" y="-74.53" font-family="Helvetica,sans-Serif" font-size="14.00">Yes</text>
</g>
<!-- 2 -->
<g id="node3" class="node">
<title>2</title>
<polygon fill="#ffffff" stroke="black" points="128,-55 73,-55 73,0 128,0 128,-55"/>
<text text-anchor="middle" x="100.5" y="-31.3" font-family="Helvetica,sans-Serif" font-size="14.00">Yes: 3</text>
<text text-anchor="middle" x="100.5" y="-16.3" font-family="Helvetica,sans-Serif" font-size="14.00">No: 4</text>
</g>
<!-- 0&#45;&gt;2 -->
<g id="edge2" class="edge">
<title>0&#45;&gt;2</title>
<path fill="none" stroke="black" d="M74,-91.78C77.56,-83.3 81.59,-73.65 85.43,-64.49"/>
<polygon fill="black" stroke="black" points="88.69,-65.77 89.32,-55.19 82.23,-63.07 88.69,-65.77"/>
<text text-anchor="middle" x="98.8" y="-74.63" font-family="Helvetica,sans-Serif" font-size="14.00">No</text>
</g>
</g>
</svg>
