<?xml version="1.0" encoding="UTF-8" standalone="no"?>
<!DOCTYPE svg PUBLIC "-//W3C//DTD SVG 1.1//EN"
 "http://www.w3.org/Graphics/SVG/1.1/DTD/svg11.dtd">
<!-- Generated by graphviz version 2.50.0 (0)
 -->
<!-- Title: Tree Pages: 1 -->
<svg width="134pt" height="134pt"
 viewBox="0.00 0.00 134.00 133.74" xmlns="http://www.w3.org/2000/svg" xmlns:xlink="http://www.w3.org/1999/xlink">
<g id="graph0" class="graph" transform="scale(1 1) rotate(0) translate(4 129.74)">
<title>Tree</title>
<polygon fill="white" stroke="transparent" points="-4,4 -4,-129.74 130,-129.74 130,4 -4,4"/>
<!-- 0 -->
<g id="node1" class="node">
<title>0</title>
<ellipse fill="#ffffff" stroke="black" cx="63" cy="-98.87" rx="43.68" ry="26.74"/>
<text text-anchor="middle" x="63" y="-102.67" font-family="Helvetica,sans-Serif" font-size="14.00">Income</text>
<text text-anchor="middle" x="63" y="-87.67" font-family="Helvetica,sans-Serif" font-size="14.00">&lt;= 75K</text>
</g>
<!-- 1 -->
<g id="node2" class="node">
<title>1</title>
<path fill="#ffffff" stroke="transparent" d="M42,-36C42,-36 12,-36 12,-36 6,-36 0,-30 0,-24 0,-24 0,-12 0,-12 0,-6 6,0 12,0 12,0 42,0 42,0 48,0 54,-6 54,-12 54,-12 54,-24 54,-24 54,-30 48,-36 42,-36"/>
<text text-anchor="middle" x="27" y="-14.3" font-family="Helvetica,sans-Serif" font-size="14.00">Yes</text>
</g>
<!-- 0&#45;&gt;1 -->
<g id="edge1" class="edge">
<title>0&#45;&gt;1</title>
<path fill="none" stroke="black" d="M51.61,-72.92C47.62,-64.17 43.12,-54.31 39.07,-45.44"/>
<polygon fill="black" stroke="black" points="42.24,-43.95 34.9,-36.31 35.87,-46.86 42.24,-43.95"/>
</g>
<!-- 2 -->
<g id="node3" class="node">
<title>2</title>
<path fill="#ffffff" stroke="transparent" d="M114,-36C114,-36 84,-36 84,-36 78,-36 72,-30 72,-24 72,-24 72,-12 72,-12 72,-6 78,0 84,0 84,0 114,0 114,0 120,0 126,-6 126,-12 126,-12 126,-24 126,-24 126,-30 120,-36 114,-36"/>
<text text-anchor="middle" x="99" y="-14.3" font-family="Helvetica,sans-Serif" font-size="14.00">No</text>
</g>
<!-- 0&#45;&gt;2 -->
<g id="edge2" class="edge">
<title>0&#45;&gt;2</title>
<path fill="none" stroke="black" d="M74.39,-72.92C78.38,-64.17 82.88,-54.31 86.93,-45.44"/>
<polygon fill="black" stroke="black" points="90.13,-46.86 91.1,-36.31 83.76,-43.95 90.13,-46.86"/>
</g>
</g>
</svg>
