<?xml version="1.0" encoding="UTF-8" standalone="no"?>
<!DOCTYPE svg PUBLIC "-//W3C//DTD SVG 1.1//EN"
 "http://www.w3.org/Graphics/SVG/1.1/DTD/svg11.dtd">
<!-- Generated by graphviz version 12.2.1 (20241206.2353)
 -->
<!-- Title: Tree Pages: 1 -->
<svg width="156pt" height="136pt"
 viewBox="0.00 0.00 155.75 135.74" xmlns="http://www.w3.org/2000/svg" xmlns:xlink="http://www.w3.org/1999/xlink">
<g id="graph0" class="graph" transform="scale(1 1) rotate(0) translate(4 131.74)">
<title>Tree</title>
<polygon fill="white" stroke="none" points="-4,4 -4,-131.74 151.75,-131.74 151.75,4 -4,4"/>
<!-- 0 -->
<g id="node1" class="node">
<title>0</title>
<ellipse fill="#ffffff" stroke="black" cx="73.75" cy="-100.87" rx="30.94" ry="26.87"/>
<text text-anchor="middle" x="73.75" y="-102.57" font-family="Helvetica,sans-Serif" font-size="14.00">Shirt</text>
<text text-anchor="middle" x="73.75" y="-87.57" font-family="Helvetica,sans-Serif" font-size="14.00">Size</text>
</g>
<!-- 1 -->
<g id="node2" class="node">
<title>1</title>
<path fill="#ffffff" stroke="none" d="M53.5,-38C53.5,-38 12,-38 12,-38 6,-38 0,-32 0,-26 0,-26 0,-12 0,-12 0,-6 6,0 12,0 12,0 53.5,0 53.5,0 59.5,0 65.5,-6 65.5,-12 65.5,-12 65.5,-26 65.5,-26 65.5,-32 59.5,-38 53.5,-38"/>
<text text-anchor="middle" x="32.75" y="-20.7" font-family="Helvetica,sans-Serif" font-size="14.00">Small,</text>
<text text-anchor="middle" x="32.75" y="-5.7" font-family="Helvetica,sans-Serif" font-size="14.00">Medium</text>
</g>
<!-- 0&#45;&gt;1 -->
<g id="edge1" class="edge">
<title>0&#45;&gt;1</title>
<path fill="none" stroke="black" d="M61.45,-75.91C56.94,-67.12 51.8,-57.1 47.12,-47.99"/>
<polygon fill="black" stroke="black" points="50.29,-46.5 42.6,-39.2 44.06,-49.69 50.29,-46.5"/>
</g>
<!-- 2 -->
<g id="node3" class="node">
<title>2</title>
<path fill="#ffffff" stroke="none" d="M135.75,-38C135.75,-38 95.75,-38 95.75,-38 89.75,-38 83.75,-32 83.75,-26 83.75,-26 83.75,-12 83.75,-12 83.75,-6 89.75,0 95.75,0 95.75,0 135.75,0 135.75,0 141.75,0 147.75,-6 147.75,-12 147.75,-12 147.75,-26 147.75,-26 147.75,-32 141.75,-38 135.75,-38"/>
<text text-anchor="middle" x="115.75" y="-20.7" font-family="Helvetica,sans-Serif" font-size="14.00">Large,</text>
<text text-anchor="middle" x="115.75" y="-5.7" font-family="Helvetica,sans-Serif" font-size="14.00">X&#45;Large</text>
</g>
<!-- 0&#45;&gt;2 -->
<g id="edge2" class="edge">
<title>0&#45;&gt;2</title>
<path fill="none" stroke="black" d="M86.35,-75.91C90.97,-67.12 96.24,-57.1 101.03,-47.99"/>
<polygon fill="black" stroke="black" points="104.1,-49.67 105.66,-39.19 97.91,-46.41 104.1,-49.67"/>
</g>
</g>
</svg>
