<?xml version="1.0" encoding="UTF-8" standalone="no"?>
<!DOCTYPE svg PUBLIC "-//W3C//DTD SVG 1.1//EN"
 "http://www.w3.org/Graphics/SVG/1.1/DTD/svg11.dtd">
<!-- Generated by graphviz version 12.0.0 (20240704.0754)
 -->
<!-- Title: Tree Pages: 1 -->
<svg width="194pt" height="61pt"
 viewBox="0.00 0.00 194.25 61.00" xmlns="http://www.w3.org/2000/svg" xmlns:xlink="http://www.w3.org/1999/xlink">
<g id="graph0" class="graph" transform="scale(1 1) rotate(0) translate(4 57)">
<title>Tree</title>
<polygon fill="white" stroke="none" points="-4,4 -4,-57 190.25,-57 190.25,4 -4,4"/>
<!-- 0 -->
<g id="node1" class="node">
<title>0</title>
<path fill="#ffffff" stroke="black" d="M174.25,-53C174.25,-53 12,-53 12,-53 6,-53 0,-47 0,-41 0,-41 0,-12 0,-12 0,-6 6,0 12,0 12,0 174.25,0 174.25,0 180.25,0 186.25,-6 186.25,-12 186.25,-12 186.25,-41 186.25,-41 186.25,-47 180.25,-53 174.25,-53"/>
<text text-anchor="middle" x="93.12" y="-35.7" font-family="Helvetica,sans-Serif" font-size="14.00">values = [# No, # Yes] =[7,3]</text>
<text text-anchor="middle" x="93.12" y="-20.7" font-family="Helvetica,sans-Serif" font-size="14.00">defaulted = No</text>
<text text-anchor="middle" x="93.12" y="-5.7" font-family="Helvetica,sans-Serif" font-size="14.00">error = 30%</text>
</g>
</g>
</svg>
