<?xml version="1.0" encoding="UTF-8" standalone="no"?>
<!DOCTYPE svg PUBLIC "-//W3C//DTD SVG 1.1//EN"
 "http://www.w3.org/Graphics/SVG/1.1/DTD/svg11.dtd">
<!-- Generated by graphviz version 12.2.1 (20241206.2353)
 -->
<!-- Title: Tree Pages: 1 -->
<svg width="212pt" height="167pt"
 viewBox="0.00 0.00 211.80 166.99" xmlns="http://www.w3.org/2000/svg" xmlns:xlink="http://www.w3.org/1999/xlink">
<g id="graph0" class="graph" transform="scale(1 1) rotate(0) translate(4 162.99)">
<title>Tree</title>
<polygon fill="white" stroke="none" points="-4,4 -4,-162.99 207.8,-162.99 207.8,4 -4,4"/>
<!-- 0 -->
<g id="node1" class="node">
<title>0</title>
<ellipse fill="#ffffff" stroke="black" cx="99.12" cy="-132.12" rx="40.48" ry="26.87"/>
<text text-anchor="middle" x="99.12" y="-133.82" font-family="Helvetica,sans-Serif" font-size="14.00">Marital</text>
<text text-anchor="middle" x="99.12" y="-118.82" font-family="Helvetica,sans-Serif" font-size="14.00">Status</text>
</g>
<!-- 1 -->
<g id="node2" class="node">
<title>1</title>
<polygon fill="#ffffff" stroke="black" points="54.25,-54.25 0,-54.25 0,0 54.25,0 54.25,-54.25"/>
<text text-anchor="middle" x="27.12" y="-28.82" font-family="Helvetica,sans-Serif" font-size="14.00">Yes: 2</text>
<text text-anchor="middle" x="27.12" y="-13.82" font-family="Helvetica,sans-Serif" font-size="14.00">No: 3</text>
</g>
<!-- 0&#45;&gt;1 -->
<g id="edge1" class="edge">
<title>0&#45;&gt;1</title>
<path fill="none" stroke="black" d="M82.43,-107.23C73.36,-94.27 61.98,-77.98 51.9,-63.57"/>
<polygon fill="black" stroke="black" points="54.97,-61.85 46.37,-55.66 49.23,-65.86 54.97,-61.85"/>
<text text-anchor="middle" x="45.34" y="-82.71" font-family="Helvetica,sans-Serif" font-size="14.00">Single</text>
</g>
<!-- 2 -->
<g id="node3" class="node">
<title>2</title>
<polygon fill="#ffffff" stroke="black" points="126.25,-54.25 72,-54.25 72,0 126.25,0 126.25,-54.25"/>
<text text-anchor="middle" x="99.12" y="-28.82" font-family="Helvetica,sans-Serif" font-size="14.00">Yes: 0</text>
<text text-anchor="middle" x="99.12" y="-13.82" font-family="Helvetica,sans-Serif" font-size="14.00">No: 3</text>
</g>
<!-- 0&#45;&gt;2 -->
<g id="edge2" class="edge">
<title>0&#45;&gt;2</title>
<path fill="none" stroke="black" d="M99.12,-104.86C99.12,-93.09 99.12,-78.98 99.12,-66.09"/>
<polygon fill="black" stroke="black" points="102.63,-66.21 99.13,-56.21 95.63,-66.21 102.63,-66.21"/>
<text text-anchor="middle" x="122.38" y="-73.95" font-family="Helvetica,sans-Serif" font-size="14.00">Married</text>
</g>
<!-- 3 -->
<g id="node4" class="node">
<title>3</title>
<polygon fill="#ffffff" stroke="black" points="198.25,-54.25 144,-54.25 144,0 198.25,0 198.25,-54.25"/>
<text text-anchor="middle" x="171.12" y="-28.82" font-family="Helvetica,sans-Serif" font-size="14.00">Yes: 1</text>
<text text-anchor="middle" x="171.12" y="-13.82" font-family="Helvetica,sans-Serif" font-size="14.00">No: 1</text>
</g>
<!-- 0&#45;&gt;3 -->
<g id="edge3" class="edge">
<title>0&#45;&gt;3</title>
<path fill="none" stroke="black" d="M126.56,-111.97C135.03,-104.98 143.79,-96.5 150.12,-87.25 154.69,-80.59 158.37,-72.84 161.29,-65.18"/>
<polygon fill="black" stroke="black" points="164.52,-66.56 164.45,-55.97 157.9,-64.29 164.52,-66.56"/>
<text text-anchor="middle" x="177.18" y="-88.32" font-family="Helvetica,sans-Serif" font-size="14.00">Divorced</text>
</g>
</g>
</svg>
