<?xml version="1.0" encoding="UTF-8" standalone="no"?>
<!DOCTYPE svg PUBLIC "-//W3C//DTD SVG 1.1//EN"
 "http://www.w3.org/Graphics/SVG/1.1/DTD/svg11.dtd">
<!-- Generated by graphviz version 2.50.0 (0)
 -->
<!-- Title: Tree Pages: 1 -->
<svg width="214pt" height="168pt"
 viewBox="0.00 0.00 213.95 167.74" xmlns="http://www.w3.org/2000/svg" xmlns:xlink="http://www.w3.org/1999/xlink">
<g id="graph0" class="graph" transform="scale(1 1) rotate(0) translate(4 163.74)">
<title>Tree</title>
<polygon fill="white" stroke="transparent" points="-4,4 -4,-163.74 209.95,-163.74 209.95,4 -4,4"/>
<!-- 0 -->
<g id="node1" class="node">
<title>0</title>
<ellipse fill="#ffffff" stroke="black" cx="100.5" cy="-132.87" rx="41.02" ry="26.74"/>
<text text-anchor="middle" x="100.5" y="-136.67" font-family="Helvetica,sans-Serif" font-size="14.00">Marital</text>
<text text-anchor="middle" x="100.5" y="-121.67" font-family="Helvetica,sans-Serif" font-size="14.00">Status</text>
</g>
<!-- 1 -->
<g id="node2" class="node">
<title>1</title>
<polygon fill="#ffffff" stroke="black" points="55,-55 0,-55 0,0 55,0 55,-55"/>
<text text-anchor="middle" x="27.5" y="-31.3" font-family="Helvetica,sans-Serif" font-size="14.00">Yes: 2</text>
<text text-anchor="middle" x="27.5" y="-16.3" font-family="Helvetica,sans-Serif" font-size="14.00">No: 3</text>
</g>
<!-- 0&#45;&gt;1 -->
<g id="edge1" class="edge">
<title>0&#45;&gt;1</title>
<path fill="none" stroke="black" d="M83.75,-108.15C74.39,-94.9 62.55,-78.14 52.15,-63.41"/>
<polygon fill="black" stroke="black" points="54.85,-61.16 46.22,-55.01 49.13,-65.2 54.85,-61.16"/>
<text text-anchor="middle" x="46.02" y="-85.43" font-family="Helvetica,sans-Serif" font-size="14.00">Single</text>
</g>
<!-- 2 -->
<g id="node3" class="node">
<title>2</title>
<polygon fill="#ffffff" stroke="black" points="128,-55 73,-55 73,0 128,0 128,-55"/>
<text text-anchor="middle" x="100.5" y="-31.3" font-family="Helvetica,sans-Serif" font-size="14.00">Yes: 0</text>
<text text-anchor="middle" x="100.5" y="-16.3" font-family="Helvetica,sans-Serif" font-size="14.00">No: 3</text>
</g>
<!-- 0&#45;&gt;2 -->
<g id="edge2" class="edge">
<title>0&#45;&gt;2</title>
<path fill="none" stroke="black" d="M100.5,-105.79C100.5,-93.61 100.5,-78.9 100.5,-65.59"/>
<polygon fill="black" stroke="black" points="104,-65.3 100.5,-55.3 97,-65.3 104,-65.3"/>
<text text-anchor="middle" x="124" y="-76.8" font-family="Helvetica,sans-Serif" font-size="14.00">Married</text>
</g>
<!-- 3 -->
<g id="node4" class="node">
<title>3</title>
<polygon fill="#ffffff" stroke="black" points="201,-55 146,-55 146,0 201,0 201,-55"/>
<text text-anchor="middle" x="173.5" y="-31.3" font-family="Helvetica,sans-Serif" font-size="14.00">Yes: 1</text>
<text text-anchor="middle" x="173.5" y="-16.3" font-family="Helvetica,sans-Serif" font-size="14.00">No: 1</text>
</g>
<!-- 0&#45;&gt;3 -->
<g id="edge3" class="edge">
<title>0&#45;&gt;3</title>
<path fill="none" stroke="black" d="M127.87,-112.67C136.33,-105.68 145.1,-97.21 151.5,-88 156.37,-80.99 160.31,-72.77 163.43,-64.72"/>
<polygon fill="black" stroke="black" points="166.81,-65.67 166.84,-55.07 160.21,-63.33 166.81,-65.67"/>
<text text-anchor="middle" x="178.95" y="-91.14" font-family="Helvetica,sans-Serif" font-size="14.00">Divorced</text>
</g>
</g>
</svg>
