<?xml version="1.0" encoding="UTF-8" standalone="no"?>
<!DOCTYPE svg PUBLIC "-//W3C//DTD SVG 1.1//EN"
 "http://www.w3.org/Graphics/SVG/1.1/DTD/svg11.dtd">
<!-- Generated by graphviz version 2.50.0 (0)
 -->
<!-- Title: Tree Pages: 1 -->
<svg width="150pt" height="118pt"
 viewBox="0.00 0.00 150.00 118.00" xmlns="http://www.w3.org/2000/svg" xmlns:xlink="http://www.w3.org/1999/xlink">
<g id="graph0" class="graph" transform="scale(1 1) rotate(0) translate(4 114)">
<title>Tree</title>
<polygon fill="white" stroke="transparent" points="-4,4 -4,-114 146,-114 146,4 -4,4"/>
<!-- 0 -->
<g id="node1" class="node">
<title>0</title>
<ellipse fill="#ffffff" stroke="black" cx="67" cy="-92" rx="64.99" ry="18"/>
<text text-anchor="middle" x="67" y="-88.3" font-family="Helvetica,sans-Serif" font-size="14.00">Marital Status</text>
</g>
<!-- 1 -->
<g id="node2" class="node">
<title>1</title>
<path fill="#ffffff" stroke="transparent" d="M42,-37C42,-37 12,-37 12,-37 6,-37 0,-31 0,-25 0,-25 0,-13 0,-13 0,-7 6,-1 12,-1 12,-1 42,-1 42,-1 48,-1 54,-7 54,-13 54,-13 54,-25 54,-25 54,-31 48,-37 42,-37"/>
<text text-anchor="middle" x="27" y="-15.3" font-family="Helvetica,sans-Serif" font-size="14.00">Single</text>
</g>
<!-- 0&#45;&gt;1 -->
<g id="edge1" class="edge">
<title>0&#45;&gt;1</title>
<path fill="none" stroke="black" d="M57.52,-74.17C52.81,-65.81 47.01,-55.51 41.73,-46.14"/>
<polygon fill="black" stroke="black" points="44.65,-44.19 36.69,-37.2 38.55,-47.63 44.65,-44.19"/>
</g>
<!-- 2 -->
<g id="node3" class="node">
<title>2</title>
<path fill="#ffffff" stroke="transparent" d="M130,-38C130,-38 84,-38 84,-38 78,-38 72,-32 72,-26 72,-26 72,-12 72,-12 72,-6 78,0 84,0 84,0 130,0 130,0 136,0 142,-6 142,-12 142,-12 142,-26 142,-26 142,-32 136,-38 130,-38"/>
<text text-anchor="middle" x="107" y="-22.8" font-family="Helvetica,sans-Serif" font-size="14.00">Married,</text>
<text text-anchor="middle" x="107" y="-7.8" font-family="Helvetica,sans-Serif" font-size="14.00">Divorced</text>
</g>
<!-- 0&#45;&gt;2 -->
<g id="edge2" class="edge">
<title>0&#45;&gt;2</title>
<path fill="none" stroke="black" d="M76.48,-74.17C81.05,-66.05 86.65,-56.11 91.8,-46.97"/>
<polygon fill="black" stroke="black" points="94.89,-48.63 96.75,-38.2 88.79,-45.19 94.89,-48.63"/>
</g>
</g>
</svg>
