<?xml version="1.0" encoding="UTF-8" standalone="no"?>
<!DOCTYPE svg PUBLIC "-//W3C//DTD SVG 1.1//EN"
 "http://www.w3.org/Graphics/SVG/1.1/DTD/svg11.dtd">
<!-- Generated by graphviz version 2.50.0 (0)
 -->
<!-- Title: Tree Pages: 1 -->
<svg width="158pt" height="136pt"
 viewBox="0.00 0.00 157.50 135.74" xmlns="http://www.w3.org/2000/svg" xmlns:xlink="http://www.w3.org/1999/xlink">
<g id="graph0" class="graph" transform="scale(1 1) rotate(0) translate(4 131.74)">
<title>Tree</title>
<polygon fill="white" stroke="transparent" points="-4,4 -4,-131.74 153.5,-131.74 153.5,4 -4,4"/>
<!-- 0 -->
<g id="node1" class="node">
<title>0</title>
<ellipse fill="#ffffff" stroke="black" cx="75" cy="-100.87" rx="31.23" ry="26.74"/>
<text text-anchor="middle" x="75" y="-104.67" font-family="Helvetica,sans-Serif" font-size="14.00">Shirt</text>
<text text-anchor="middle" x="75" y="-89.67" font-family="Helvetica,sans-Serif" font-size="14.00">Size</text>
</g>
<!-- 1 -->
<g id="node2" class="node">
<title>1</title>
<path fill="#ffffff" stroke="transparent" d="M54,-38C54,-38 12,-38 12,-38 6,-38 0,-32 0,-26 0,-26 0,-12 0,-12 0,-6 6,0 12,0 12,0 54,0 54,0 60,0 66,-6 66,-12 66,-12 66,-26 66,-26 66,-32 60,-38 54,-38"/>
<text text-anchor="middle" x="33" y="-22.8" font-family="Helvetica,sans-Serif" font-size="14.00">Small,</text>
<text text-anchor="middle" x="33" y="-7.8" font-family="Helvetica,sans-Serif" font-size="14.00">Medium</text>
</g>
<!-- 0&#45;&gt;1 -->
<g id="edge1" class="edge">
<title>0&#45;&gt;1</title>
<path fill="none" stroke="black" d="M62.4,-75.91C57.61,-66.81 52.13,-56.39 47.21,-47.02"/>
<polygon fill="black" stroke="black" points="50.27,-45.33 42.52,-38.11 44.08,-48.58 50.27,-45.33"/>
</g>
<!-- 2 -->
<g id="node3" class="node">
<title>2</title>
<path fill="#ffffff" stroke="transparent" d="M137.5,-38C137.5,-38 96.5,-38 96.5,-38 90.5,-38 84.5,-32 84.5,-26 84.5,-26 84.5,-12 84.5,-12 84.5,-6 90.5,0 96.5,0 96.5,0 137.5,0 137.5,0 143.5,0 149.5,-6 149.5,-12 149.5,-12 149.5,-26 149.5,-26 149.5,-32 143.5,-38 137.5,-38"/>
<text text-anchor="middle" x="117" y="-22.8" font-family="Helvetica,sans-Serif" font-size="14.00">Large,</text>
<text text-anchor="middle" x="117" y="-7.8" font-family="Helvetica,sans-Serif" font-size="14.00">X&#45;Large</text>
</g>
<!-- 0&#45;&gt;2 -->
<g id="edge2" class="edge">
<title>0&#45;&gt;2</title>
<path fill="none" stroke="black" d="M87.6,-75.91C92.39,-66.81 97.87,-56.39 102.79,-47.02"/>
<polygon fill="black" stroke="black" points="105.92,-48.58 107.48,-38.11 99.73,-45.33 105.92,-48.58"/>
</g>
</g>
</svg>
