<?xml version="1.0" encoding="UTF-8" standalone="no"?>
<!DOCTYPE svg PUBLIC "-//W3C//DTD SVG 1.1//EN"
 "http://www.w3.org/Graphics/SVG/1.1/DTD/svg11.dtd">
<!-- Generated by graphviz version 2.50.0 (0)
 -->
<!-- Title: Tree Pages: 1 -->
<svg width="195pt" height="61pt"
 viewBox="0.00 0.00 195.00 61.00" xmlns="http://www.w3.org/2000/svg" xmlns:xlink="http://www.w3.org/1999/xlink">
<g id="graph0" class="graph" transform="scale(1 1) rotate(0) translate(4 57)">
<title>Tree</title>
<polygon fill="white" stroke="transparent" points="-4,4 -4,-57 191,-57 191,4 -4,4"/>
<!-- 0 -->
<g id="node1" class="node">
<title>0</title>
<path fill="#ffffff" stroke="black" d="M175,-53C175,-53 12,-53 12,-53 6,-53 0,-47 0,-41 0,-41 0,-12 0,-12 0,-6 6,0 12,0 12,0 175,0 175,0 181,0 187,-6 187,-12 187,-12 187,-41 187,-41 187,-47 181,-53 175,-53"/>
<text text-anchor="middle" x="93.5" y="-37.8" font-family="Helvetica,sans-Serif" font-size="14.00">values = [# No, # Yes] =[7,3]</text>
<text text-anchor="middle" x="93.5" y="-22.8" font-family="Helvetica,sans-Serif" font-size="14.00">defaulted = No</text>
<text text-anchor="middle" x="93.5" y="-7.8" font-family="Helvetica,sans-Serif" font-size="14.00">error = 30%</text>
</g>
</g>
</svg>
