<?xml version="1.0" encoding="UTF-8" standalone="no"?>
<!DOCTYPE svg PUBLIC "-//W3C//DTD SVG 1.1//EN"
 "http://www.w3.org/Graphics/SVG/1.1/DTD/svg11.dtd">
<!-- Generated by graphviz version 12.2.1 (20241206.2353)
 -->
<!-- Title: Tree Pages: 1 -->
<svg width="300pt" height="134pt"
 viewBox="0.00 0.00 300.00 133.74" xmlns="http://www.w3.org/2000/svg" xmlns:xlink="http://www.w3.org/1999/xlink">
<g id="graph0" class="graph" transform="scale(1 1) rotate(0) translate(4 129.74)">
<title>Tree</title>
<polygon fill="white" stroke="none" points="-4,4 -4,-129.74 296,-129.74 296,4 -4,4"/>
<!-- 0 -->
<g id="node1" class="node">
<title>0</title>
<ellipse fill="#ffffff" stroke="black" cx="144" cy="-98.87" rx="30.94" ry="26.87"/>
<text text-anchor="middle" x="144" y="-100.57" font-family="Helvetica,sans-Serif" font-size="14.00">Shirt</text>
<text text-anchor="middle" x="144" y="-85.57" font-family="Helvetica,sans-Serif" font-size="14.00">Size</text>
</g>
<!-- 1 -->
<g id="node2" class="node">
<title>1</title>
<path fill="#ffffff" stroke="none" d="M42,-36C42,-36 12,-36 12,-36 6,-36 0,-30 0,-24 0,-24 0,-12 0,-12 0,-6 6,0 12,0 12,0 42,0 42,0 48,0 54,-6 54,-12 54,-12 54,-24 54,-24 54,-30 48,-36 42,-36"/>
<text text-anchor="middle" x="27" y="-12.2" font-family="Helvetica,sans-Serif" font-size="14.00">Small</text>
</g>
<!-- 0&#45;&gt;1 -->
<g id="edge1" class="edge">
<title>0&#45;&gt;1</title>
<path fill="none" stroke="black" d="M119.76,-81.53C102.89,-70.16 80.15,-54.83 61.4,-42.19"/>
<polygon fill="black" stroke="black" points="63.52,-39.4 53.27,-36.71 59.61,-45.2 63.52,-39.4"/>
</g>
<!-- 2 -->
<g id="node3" class="node">
<title>2</title>
<path fill="#ffffff" stroke="none" d="M125.75,-36C125.75,-36 84.25,-36 84.25,-36 78.25,-36 72.25,-30 72.25,-24 72.25,-24 72.25,-12 72.25,-12 72.25,-6 78.25,0 84.25,0 84.25,0 125.75,0 125.75,0 131.75,0 137.75,-6 137.75,-12 137.75,-12 137.75,-24 137.75,-24 137.75,-30 131.75,-36 125.75,-36"/>
<text text-anchor="middle" x="105" y="-12.2" font-family="Helvetica,sans-Serif" font-size="14.00">Medium</text>
</g>
<!-- 0&#45;&gt;2 -->
<g id="edge2" class="edge">
<title>0&#45;&gt;2</title>
<path fill="none" stroke="black" d="M132.09,-73.78C127.71,-64.92 122.72,-54.84 118.23,-45.76"/>
<polygon fill="black" stroke="black" points="121.5,-44.47 113.93,-37.06 115.23,-47.57 121.5,-44.47"/>
</g>
<!-- 3 -->
<g id="node4" class="node">
<title>3</title>
<path fill="#ffffff" stroke="none" d="M198,-36C198,-36 168,-36 168,-36 162,-36 156,-30 156,-24 156,-24 156,-12 156,-12 156,-6 162,0 168,0 168,0 198,0 198,0 204,0 210,-6 210,-12 210,-12 210,-24 210,-24 210,-30 204,-36 198,-36"/>
<text text-anchor="middle" x="183" y="-12.2" font-family="Helvetica,sans-Serif" font-size="14.00">Large</text>
</g>
<!-- 0&#45;&gt;3 -->
<g id="edge3" class="edge">
<title>0&#45;&gt;3</title>
<path fill="none" stroke="black" d="M155.91,-73.78C160.29,-64.92 165.28,-54.84 169.77,-45.76"/>
<polygon fill="black" stroke="black" points="172.77,-47.57 174.07,-37.06 166.5,-44.47 172.77,-47.57"/>
</g>
<!-- 4 -->
<g id="node5" class="node">
<title>4</title>
<path fill="#ffffff" stroke="none" d="M280,-36C280,-36 240,-36 240,-36 234,-36 228,-30 228,-24 228,-24 228,-12 228,-12 228,-6 234,0 240,0 240,0 280,0 280,0 286,0 292,-6 292,-12 292,-12 292,-24 292,-24 292,-30 286,-36 280,-36"/>
<text text-anchor="middle" x="260" y="-12.2" font-family="Helvetica,sans-Serif" font-size="14.00">X&#45;Large</text>
</g>
<!-- 0&#45;&gt;4 -->
<g id="edge4" class="edge">
<title>0&#45;&gt;4</title>
<path fill="none" stroke="black" d="M168.04,-81.53C184.76,-70.16 207.31,-54.83 225.89,-42.19"/>
<polygon fill="black" stroke="black" points="227.64,-45.23 233.94,-36.72 223.71,-39.44 227.64,-45.23"/>
</g>
</g>
</svg>
