<?xml version="1.0" encoding="UTF-8" standalone="no"?>
<!DOCTYPE svg PUBLIC "-//W3C//DTD SVG 1.1//EN"
 "http://www.w3.org/Graphics/SVG/1.1/DTD/svg11.dtd">
<!-- Generated by graphviz version 12.2.1 (20241206.2353)
 -->
<!-- Title: Tree Pages: 1 -->
<svg width="150pt" height="118pt"
 viewBox="0.00 0.00 149.62 118.00" xmlns="http://www.w3.org/2000/svg" xmlns:xlink="http://www.w3.org/1999/xlink">
<g id="graph0" class="graph" transform="scale(1 1) rotate(0) translate(4 114)">
<title>Tree</title>
<polygon fill="white" stroke="none" points="-4,4 -4,-114 145.62,-114 145.62,4 -4,4"/>
<!-- 0 -->
<g id="node1" class="node">
<title>0</title>
<ellipse fill="#ffffff" stroke="black" cx="67" cy="-92" rx="64.51" ry="18"/>
<text text-anchor="middle" x="67" y="-86.2" font-family="Helvetica,sans-Serif" font-size="14.00">Marital Status</text>
</g>
<!-- 1 -->
<g id="node2" class="node">
<title>1</title>
<path fill="#ffffff" stroke="none" d="M42,-37C42,-37 12,-37 12,-37 6,-37 0,-31 0,-25 0,-25 0,-13 0,-13 0,-7 6,-1 12,-1 12,-1 42,-1 42,-1 48,-1 54,-7 54,-13 54,-13 54,-25 54,-25 54,-31 48,-37 42,-37"/>
<text text-anchor="middle" x="27" y="-13.2" font-family="Helvetica,sans-Serif" font-size="14.00">Single</text>
</g>
<!-- 0&#45;&gt;1 -->
<g id="edge1" class="edge">
<title>0&#45;&gt;1</title>
<path fill="none" stroke="black" d="M57.32,-73.81C52.68,-65.58 47.03,-55.54 41.86,-46.38"/>
<polygon fill="black" stroke="black" points="45.02,-44.85 37.06,-37.86 38.92,-48.29 45.02,-44.85"/>
</g>
<!-- 2 -->
<g id="node3" class="node">
<title>2</title>
<path fill="#ffffff" stroke="none" d="M129.62,-38C129.62,-38 84.38,-38 84.38,-38 78.38,-38 72.38,-32 72.38,-26 72.38,-26 72.38,-12 72.38,-12 72.38,-6 78.38,0 84.38,0 84.38,0 129.62,0 129.62,0 135.62,0 141.62,-6 141.62,-12 141.62,-12 141.62,-26 141.62,-26 141.62,-32 135.62,-38 129.62,-38"/>
<text text-anchor="middle" x="107" y="-20.7" font-family="Helvetica,sans-Serif" font-size="14.00">Married,</text>
<text text-anchor="middle" x="107" y="-5.7" font-family="Helvetica,sans-Serif" font-size="14.00">Divorced</text>
</g>
<!-- 0&#45;&gt;2 -->
<g id="edge2" class="edge">
<title>0&#45;&gt;2</title>
<path fill="none" stroke="black" d="M76.68,-73.81C81.14,-65.91 86.53,-56.33 91.53,-47.47"/>
<polygon fill="black" stroke="black" points="94.53,-49.27 96.39,-38.84 88.43,-45.84 94.53,-49.27"/>
</g>
</g>
</svg>
