<?xml version="1.0" encoding="UTF-8" standalone="no"?>
<!DOCTYPE svg PUBLIC "-//W3C//DTD SVG 1.1//EN"
 "http://www.w3.org/Graphics/SVG/1.1/DTD/svg11.dtd">
<!-- Generated by graphviz version 12.2.1 (20241206.2353)
 -->
<!-- Title: Tree Pages: 1 -->
<svg width="350pt" height="134pt"
 viewBox="0.00 0.00 350.25 134.25" xmlns="http://www.w3.org/2000/svg" xmlns:xlink="http://www.w3.org/1999/xlink">
<g id="graph0" class="graph" transform="scale(1 1) rotate(0) translate(4 130.25)">
<title>Tree</title>
<polygon fill="white" stroke="none" points="-4,4 -4,-130.25 346.25,-130.25 346.25,4 -4,4"/>
<!-- 0 -->
<g id="node1" class="node">
<title>0</title>
<ellipse fill="#ffffff" stroke="black" cx="171.12" cy="-108.25" rx="27" ry="18"/>
<text text-anchor="middle" x="171.12" y="-102.45" font-family="Helvetica,sans-Serif" font-size="14.00">ID</text>
</g>
<!-- 1 -->
<g id="node2" class="node">
<title>1</title>
<polygon fill="#ffffff" stroke="black" points="54.25,-54.25 0,-54.25 0,0 54.25,0 54.25,-54.25"/>
<text text-anchor="middle" x="27.12" y="-28.82" font-family="Helvetica,sans-Serif" font-size="14.00">Yes: 0</text>
<text text-anchor="middle" x="27.12" y="-13.82" font-family="Helvetica,sans-Serif" font-size="14.00">No: 1</text>
</g>
<!-- 0&#45;&gt;1 -->
<g id="edge1" class="edge">
<title>0&#45;&gt;1</title>
<path fill="none" stroke="black" d="M149.03,-97.75C128.7,-88.73 97.68,-74.26 64.21,-54.56"/>
<polygon fill="black" stroke="black" points="66.39,-51.78 56.01,-49.64 62.79,-57.79 66.39,-51.78"/>
<text text-anchor="middle" x="97.36" y="-76.57" font-family="Helvetica,sans-Serif" font-size="14.00">1</text>
</g>
<!-- 2 -->
<g id="node3" class="node">
<title>2</title>
<polygon fill="#ffffff" stroke="none" points="126.12,-45.12 72.12,-45.12 72.12,-9.12 126.12,-9.12 126.12,-45.12"/>
<text text-anchor="middle" x="99.12" y="-21.32" font-family="Helvetica,sans-Serif" font-size="14.00">...</text>
</g>
<!-- 0&#45;&gt;2 -->
<g id="edge2" class="edge">
<title>0&#45;&gt;2</title>
<path fill="none" stroke="white" d="M157.58,-92.37C147.59,-81.38 133.75,-66.17 122.04,-53.31"/>
<polygon fill="white" stroke="white" points="124.69,-51.02 115.37,-45.98 119.51,-55.73 124.69,-51.02"/>
</g>
<!-- 3 -->
<g id="node4" class="node">
<title>3</title>
<polygon fill="#ffffff" stroke="black" points="198.25,-54.25 144,-54.25 144,0 198.25,0 198.25,-54.25"/>
<text text-anchor="middle" x="171.12" y="-28.82" font-family="Helvetica,sans-Serif" font-size="14.00">Yes: 1</text>
<text text-anchor="middle" x="171.12" y="-13.82" font-family="Helvetica,sans-Serif" font-size="14.00">No: 0</text>
</g>
<!-- 0&#45;&gt;3 -->
<g id="edge3" class="edge">
<title>0&#45;&gt;3</title>
<path fill="none" stroke="black" d="M171.12,-90.08C171.12,-82.96 171.12,-74.39 171.12,-65.93"/>
<polygon fill="black" stroke="black" points="174.63,-66.11 171.13,-56.11 167.63,-66.11 174.63,-66.11"/>
<text text-anchor="middle" x="167.38" y="-74.36" font-family="Helvetica,sans-Serif" font-size="14.00">8</text>
</g>
<!-- 4 -->
<g id="node5" class="node">
<title>4</title>
<polygon fill="#ffffff" stroke="black" points="270.25,-54.25 216,-54.25 216,0 270.25,0 270.25,-54.25"/>
<text text-anchor="middle" x="243.12" y="-28.82" font-family="Helvetica,sans-Serif" font-size="14.00">Yes: 0</text>
<text text-anchor="middle" x="243.12" y="-13.82" font-family="Helvetica,sans-Serif" font-size="14.00">No: 1</text>
</g>
<!-- 0&#45;&gt;4 -->
<g id="edge4" class="edge">
<title>0&#45;&gt;4</title>
<path fill="none" stroke="black" d="M184.67,-92.37C192.24,-84.04 202.02,-73.29 211.41,-62.98"/>
<polygon fill="black" stroke="black" points="213.99,-65.35 218.13,-55.59 208.81,-60.63 213.99,-65.35"/>
<text text-anchor="middle" x="198.39" y="-74.87" font-family="Helvetica,sans-Serif" font-size="14.00">9</text>
</g>
<!-- 5 -->
<g id="node6" class="node">
<title>5</title>
<polygon fill="#ffffff" stroke="black" points="342.25,-54.25 288,-54.25 288,0 342.25,0 342.25,-54.25"/>
<text text-anchor="middle" x="315.12" y="-28.82" font-family="Helvetica,sans-Serif" font-size="14.00">Yes: 1</text>
<text text-anchor="middle" x="315.12" y="-13.82" font-family="Helvetica,sans-Serif" font-size="14.00">No: 0</text>
</g>
<!-- 0&#45;&gt;5 -->
<g id="edge5" class="edge">
<title>0&#45;&gt;5</title>
<path fill="none" stroke="black" d="M193.22,-97.75C213.55,-88.73 244.57,-74.26 278.04,-54.56"/>
<polygon fill="black" stroke="black" points="279.46,-57.79 286.24,-49.64 275.86,-51.78 279.46,-57.79"/>
<text text-anchor="middle" x="233.64" y="-76.57" font-family="Helvetica,sans-Serif" font-size="14.00">10</text>
</g>
</g>
</svg>
