<?xml version="1.0" encoding="UTF-8" standalone="no"?>
<!DOCTYPE svg PUBLIC "-//W3C//DTD SVG 1.1//EN"
 "http://www.w3.org/Graphics/SVG/1.1/DTD/svg11.dtd">
<!-- Generated by graphviz version 12.0.0 (20240704.0754)
 -->
<!-- Title: Tree Pages: 1 -->
<svg width="428pt" height="116pt"
 viewBox="0.00 0.00 428.00 116.00" xmlns="http://www.w3.org/2000/svg" xmlns:xlink="http://www.w3.org/1999/xlink">
<g id="graph0" class="graph" transform="scale(1 1) rotate(0) translate(4 112)">
<title>Tree</title>
<polygon fill="white" stroke="none" points="-4,4 -4,-112 424,-112 424,4 -4,4"/>
<!-- 0 -->
<g id="node1" class="node">
<title>0</title>
<ellipse fill="#ffffff" stroke="black" cx="210" cy="-90" rx="39.65" ry="18"/>
<text text-anchor="middle" x="210" y="-84.2" font-family="Helvetica,sans-Serif" font-size="14.00">Income</text>
</g>
<!-- 1 -->
<g id="node2" class="node">
<title>1</title>
<path fill="#ffffff" stroke="none" d="M42,-36C42,-36 12,-36 12,-36 6,-36 0,-30 0,-24 0,-24 0,-12 0,-12 0,-6 6,0 12,0 12,0 42,0 42,0 48,0 54,-6 54,-12 54,-12 54,-24 54,-24 54,-30 48,-36 42,-36"/>
<text text-anchor="middle" x="27" y="-12.2" font-family="Helvetica,sans-Serif" font-size="14.00">&lt; 10K</text>
</g>
<!-- 0&#45;&gt;1 -->
<g id="edge1" class="edge">
<title>0&#45;&gt;1</title>
<path fill="none" stroke="black" d="M178.41,-78.58C150.58,-69.2 108.8,-54.59 64.1,-36.26"/>
<polygon fill="black" stroke="black" points="65.59,-33.09 55.01,-32.49 62.91,-39.55 65.59,-33.09"/>
</g>
<!-- 2 -->
<g id="node3" class="node">
<title>2</title>
<path fill="#ffffff" stroke="none" d="M139.88,-36C139.88,-36 84.12,-36 84.12,-36 78.12,-36 72.12,-30 72.12,-24 72.12,-24 72.12,-12 72.12,-12 72.12,-6 78.12,0 84.12,0 84.12,0 139.88,0 139.88,0 145.88,0 151.88,-6 151.88,-12 151.88,-12 151.88,-24 151.88,-24 151.88,-30 145.88,-36 139.88,-36"/>
<text text-anchor="middle" x="112" y="-12.2" font-family="Helvetica,sans-Serif" font-size="14.00">[10K, 25K)</text>
</g>
<!-- 0&#45;&gt;2 -->
<g id="edge2" class="edge">
<title>0&#45;&gt;2</title>
<path fill="none" stroke="black" d="M189.69,-74.5C176.82,-65.3 159.86,-53.18 145.07,-42.62"/>
<polygon fill="black" stroke="black" points="147.13,-39.79 136.96,-36.83 143.07,-45.49 147.13,-39.79"/>
</g>
<!-- 3 -->
<g id="node4" class="node">
<title>3</title>
<path fill="#ffffff" stroke="none" d="M237.88,-36C237.88,-36 182.12,-36 182.12,-36 176.12,-36 170.12,-30 170.12,-24 170.12,-24 170.12,-12 170.12,-12 170.12,-6 176.12,0 182.12,0 182.12,0 237.88,0 237.88,0 243.88,0 249.88,-6 249.88,-12 249.88,-12 249.88,-24 249.88,-24 249.88,-30 243.88,-36 237.88,-36"/>
<text text-anchor="middle" x="210" y="-12.2" font-family="Helvetica,sans-Serif" font-size="14.00">[25K, 50K)</text>
</g>
<!-- 0&#45;&gt;3 -->
<g id="edge3" class="edge">
<title>0&#45;&gt;3</title>
<path fill="none" stroke="black" d="M210,-71.7C210,-64.21 210,-55.26 210,-46.88"/>
<polygon fill="black" stroke="black" points="213.5,-47.14 210,-37.14 206.5,-47.14 213.5,-47.14"/>
</g>
<!-- 4 -->
<g id="node5" class="node">
<title>4</title>
<path fill="#ffffff" stroke="none" d="M335.88,-36C335.88,-36 280.12,-36 280.12,-36 274.12,-36 268.12,-30 268.12,-24 268.12,-24 268.12,-12 268.12,-12 268.12,-6 274.12,0 280.12,0 280.12,0 335.88,0 335.88,0 341.88,0 347.88,-6 347.88,-12 347.88,-12 347.88,-24 347.88,-24 347.88,-30 341.88,-36 335.88,-36"/>
<text text-anchor="middle" x="308" y="-12.2" font-family="Helvetica,sans-Serif" font-size="14.00">[50K, 75K)</text>
</g>
<!-- 0&#45;&gt;4 -->
<g id="edge4" class="edge">
<title>0&#45;&gt;4</title>
<path fill="none" stroke="black" d="M230.31,-74.5C243.18,-65.3 260.14,-53.18 274.93,-42.62"/>
<polygon fill="black" stroke="black" points="276.93,-45.49 283.04,-36.83 272.87,-39.79 276.93,-45.49"/>
</g>
<!-- 5 -->
<g id="node6" class="node">
<title>5</title>
<path fill="#ffffff" stroke="none" d="M408,-36C408,-36 378,-36 378,-36 372,-36 366,-30 366,-24 366,-24 366,-12 366,-12 366,-6 372,0 378,0 378,0 408,0 408,0 414,0 420,-6 420,-12 420,-12 420,-24 420,-24 420,-30 414,-36 408,-36"/>
<text text-anchor="middle" x="393" y="-12.2" font-family="Helvetica,sans-Serif" font-size="14.00">&gt; 75K</text>
</g>
<!-- 0&#45;&gt;5 -->
<g id="edge5" class="edge">
<title>0&#45;&gt;5</title>
<path fill="none" stroke="black" d="M241.59,-78.58C269.42,-69.2 311.2,-54.59 355.9,-36.26"/>
<polygon fill="black" stroke="black" points="357.09,-39.55 364.99,-32.49 354.41,-33.09 357.09,-39.55"/>
</g>
</g>
</svg>
