<?xml version="1.0" encoding="UTF-8" standalone="no"?>
<!DOCTYPE svg PUBLIC "-//W3C//DTD SVG 1.1//EN"
 "http://www.w3.org/Graphics/SVG/1.1/DTD/svg11.dtd">
<!-- Generated by graphviz version 2.50.0 (0)
 -->
<!-- Title: Tree Pages: 1 -->
<svg width="428pt" height="116pt"
 viewBox="0.00 0.00 428.00 116.00" xmlns="http://www.w3.org/2000/svg" xmlns:xlink="http://www.w3.org/1999/xlink">
<g id="graph0" class="graph" transform="scale(1 1) rotate(0) translate(4 112)">
<title>Tree</title>
<polygon fill="white" stroke="transparent" points="-4,4 -4,-112 424,-112 424,4 -4,4"/>
<!-- 0 -->
<g id="node1" class="node">
<title>0</title>
<ellipse fill="#ffffff" stroke="black" cx="210" cy="-90" rx="40.09" ry="18"/>
<text text-anchor="middle" x="210" y="-86.3" font-family="Helvetica,sans-Serif" font-size="14.00">Income</text>
</g>
<!-- 1 -->
<g id="node2" class="node">
<title>1</title>
<path fill="#ffffff" stroke="transparent" d="M42,-36C42,-36 12,-36 12,-36 6,-36 0,-30 0,-24 0,-24 0,-12 0,-12 0,-6 6,0 12,0 12,0 42,0 42,0 48,0 54,-6 54,-12 54,-12 54,-24 54,-24 54,-30 48,-36 42,-36"/>
<text text-anchor="middle" x="27" y="-14.3" font-family="Helvetica,sans-Serif" font-size="14.00">&lt; 10K</text>
</g>
<!-- 0&#45;&gt;1 -->
<g id="edge1" class="edge">
<title>0&#45;&gt;1</title>
<path fill="none" stroke="black" d="M178.41,-78.58C150.35,-69.12 108.1,-54.34 63.3,-35.94"/>
<polygon fill="black" stroke="black" points="64.58,-32.69 54,-32.09 61.9,-39.15 64.58,-32.69"/>
</g>
<!-- 2 -->
<g id="node3" class="node">
<title>2</title>
<path fill="#ffffff" stroke="transparent" d="M140,-36C140,-36 84,-36 84,-36 78,-36 72,-30 72,-24 72,-24 72,-12 72,-12 72,-6 78,0 84,0 84,0 140,0 140,0 146,0 152,-6 152,-12 152,-12 152,-24 152,-24 152,-30 146,-36 140,-36"/>
<text text-anchor="middle" x="112" y="-14.3" font-family="Helvetica,sans-Serif" font-size="14.00">[10K, 25K)</text>
</g>
<!-- 0&#45;&gt;2 -->
<g id="edge2" class="edge">
<title>0&#45;&gt;2</title>
<path fill="none" stroke="black" d="M189.22,-74.15C176.16,-64.83 159.05,-52.61 144.25,-42.04"/>
<polygon fill="black" stroke="black" points="146.03,-39 135.86,-36.04 141.96,-44.7 146.03,-39"/>
</g>
<!-- 3 -->
<g id="node4" class="node">
<title>3</title>
<path fill="#ffffff" stroke="transparent" d="M238,-36C238,-36 182,-36 182,-36 176,-36 170,-30 170,-24 170,-24 170,-12 170,-12 170,-6 176,0 182,0 182,0 238,0 238,0 244,0 250,-6 250,-12 250,-12 250,-24 250,-24 250,-30 244,-36 238,-36"/>
<text text-anchor="middle" x="210" y="-14.3" font-family="Helvetica,sans-Serif" font-size="14.00">[25K, 50K)</text>
</g>
<!-- 0&#45;&gt;3 -->
<g id="edge3" class="edge">
<title>0&#45;&gt;3</title>
<path fill="none" stroke="black" d="M210,-71.7C210,-63.98 210,-54.71 210,-46.11"/>
<polygon fill="black" stroke="black" points="213.5,-46.1 210,-36.1 206.5,-46.1 213.5,-46.1"/>
</g>
<!-- 4 -->
<g id="node5" class="node">
<title>4</title>
<path fill="#ffffff" stroke="transparent" d="M336,-36C336,-36 280,-36 280,-36 274,-36 268,-30 268,-24 268,-24 268,-12 268,-12 268,-6 274,0 280,0 280,0 336,0 336,0 342,0 348,-6 348,-12 348,-12 348,-24 348,-24 348,-30 342,-36 336,-36"/>
<text text-anchor="middle" x="308" y="-14.3" font-family="Helvetica,sans-Serif" font-size="14.00">[50K, 75K)</text>
</g>
<!-- 0&#45;&gt;4 -->
<g id="edge4" class="edge">
<title>0&#45;&gt;4</title>
<path fill="none" stroke="black" d="M230.78,-74.15C243.84,-64.83 260.95,-52.61 275.75,-42.04"/>
<polygon fill="black" stroke="black" points="278.04,-44.7 284.14,-36.04 273.97,-39 278.04,-44.7"/>
</g>
<!-- 5 -->
<g id="node6" class="node">
<title>5</title>
<path fill="#ffffff" stroke="transparent" d="M408,-36C408,-36 378,-36 378,-36 372,-36 366,-30 366,-24 366,-24 366,-12 366,-12 366,-6 372,0 378,0 378,0 408,0 408,0 414,0 420,-6 420,-12 420,-12 420,-24 420,-24 420,-30 414,-36 408,-36"/>
<text text-anchor="middle" x="393" y="-14.3" font-family="Helvetica,sans-Serif" font-size="14.00">&gt; 75K</text>
</g>
<!-- 0&#45;&gt;5 -->
<g id="edge5" class="edge">
<title>0&#45;&gt;5</title>
<path fill="none" stroke="black" d="M241.59,-78.58C269.65,-69.12 311.9,-54.34 356.7,-35.94"/>
<polygon fill="black" stroke="black" points="358.1,-39.15 366,-32.09 355.42,-32.69 358.1,-39.15"/>
</g>
</g>
</svg>
