<?xml version="1.0" encoding="UTF-8" standalone="no"?>
<!DOCTYPE svg PUBLIC "-//W3C//DTD SVG 1.1//EN"
 "http://www.w3.org/Graphics/SVG/1.1/DTD/svg11.dtd">
<!-- Generated by graphviz version 12.2.1 (20241206.2353)
 -->
<!-- Title: Tree Pages: 1 -->
<svg width="192pt" height="136pt"
 viewBox="0.00 0.00 191.62 135.74" xmlns="http://www.w3.org/2000/svg" xmlns:xlink="http://www.w3.org/1999/xlink">
<g id="graph0" class="graph" transform="scale(1 1) rotate(0) translate(4 131.74)">
<title>Tree</title>
<polygon fill="white" stroke="none" points="-4,4 -4,-131.74 187.62,-131.74 187.62,4 -4,4"/>
<!-- 0 -->
<g id="node1" class="node">
<title>0</title>
<ellipse fill="#ffffff" stroke="black" cx="77" cy="-100.87" rx="30.94" ry="26.87"/>
<text text-anchor="middle" x="77" y="-102.57" font-family="Helvetica,sans-Serif" font-size="14.00">Shirt</text>
<text text-anchor="middle" x="77" y="-87.57" font-family="Helvetica,sans-Serif" font-size="14.00">Size</text>
</g>
<!-- 1 -->
<g id="node2" class="node">
<title>1</title>
<path fill="#ffffff" stroke="none" d="M42,-37C42,-37 12,-37 12,-37 6,-37 0,-31 0,-25 0,-25 0,-13 0,-13 0,-7 6,-1 12,-1 12,-1 42,-1 42,-1 48,-1 54,-7 54,-13 54,-13 54,-25 54,-25 54,-31 48,-37 42,-37"/>
<text text-anchor="middle" x="27" y="-13.2" font-family="Helvetica,sans-Serif" font-size="14.00">Small</text>
</g>
<!-- 0&#45;&gt;1 -->
<g id="edge1" class="edge">
<title>0&#45;&gt;1</title>
<path fill="none" stroke="black" d="M62.54,-76.77C56.63,-67.33 49.76,-56.36 43.65,-46.59"/>
<polygon fill="black" stroke="black" points="46.69,-44.86 38.42,-38.24 40.76,-48.58 46.69,-44.86"/>
</g>
<!-- 2 -->
<g id="node3" class="node">
<title>2</title>
<path fill="#ffffff" stroke="none" d="M171.62,-38C171.62,-38 84.38,-38 84.38,-38 78.38,-38 72.38,-32 72.38,-26 72.38,-26 72.38,-12 72.38,-12 72.38,-6 78.38,0 84.38,0 84.38,0 171.62,0 171.62,0 177.62,0 183.62,-6 183.62,-12 183.62,-12 183.62,-26 183.62,-26 183.62,-32 177.62,-38 171.62,-38"/>
<text text-anchor="middle" x="128" y="-20.7" font-family="Helvetica,sans-Serif" font-size="14.00">Medium, Large,</text>
<text text-anchor="middle" x="128" y="-5.7" font-family="Helvetica,sans-Serif" font-size="14.00">X&#45;Large</text>
</g>
<!-- 0&#45;&gt;2 -->
<g id="edge2" class="edge">
<title>0&#45;&gt;2</title>
<path fill="none" stroke="black" d="M91.75,-76.77C97.6,-67.6 104.38,-56.99 110.48,-47.44"/>
<polygon fill="black" stroke="black" points="113.27,-49.56 115.71,-39.25 107.37,-45.8 113.27,-49.56"/>
</g>
</g>
</svg>
