<?xml version="1.0" encoding="UTF-8" standalone="no"?>
<!DOCTYPE svg PUBLIC "-//W3C//DTD SVG 1.1//EN"
 "http://www.w3.org/Graphics/SVG/1.1/DTD/svg11.dtd">
<!-- Generated by graphviz version 12.0.0 (20240704.0754)
 -->
<!-- Title: Tree Pages: 1 -->
<svg width="300pt" height="329pt"
 viewBox="0.00 0.00 299.50 329.00" xmlns="http://www.w3.org/2000/svg" xmlns:xlink="http://www.w3.org/1999/xlink">
<g id="graph0" class="graph" transform="scale(1 1) rotate(0) translate(4 325)">
<title>Tree</title>
<polygon fill="white" stroke="none" points="-4,4 -4,-325 295.5,-325 295.5,4 -4,4"/>
<!-- 0 -->
<g id="node1" class="node">
<title>0</title>
<path fill="#ffffff" stroke="black" d="M154.5,-321C154.5,-321 74,-321 74,-321 68,-321 62,-315 62,-309 62,-309 62,-235 62,-235 62,-229 68,-223 74,-223 74,-223 154.5,-223 154.5,-223 160.5,-223 166.5,-229 166.5,-235 166.5,-235 166.5,-309 166.5,-309 166.5,-315 160.5,-321 154.5,-321"/>
<text text-anchor="middle" x="114.25" y="-303.7" font-family="Helvetica,sans-Serif" font-size="14.00">Home Owner?</text>
<text text-anchor="middle" x="114.25" y="-288.7" font-family="Helvetica,sans-Serif" font-size="14.00">&#45;&#45;&#45;</text>
<text text-anchor="middle" x="114.25" y="-273.7" font-family="Helvetica,sans-Serif" font-size="14.00">samples = 10</text>
<text text-anchor="middle" x="114.25" y="-258.7" font-family="Helvetica,sans-Serif" font-size="14.00">values = [7, 3]</text>
<text text-anchor="middle" x="114.25" y="-243.7" font-family="Helvetica,sans-Serif" font-size="14.00">defaulted = No</text>
<text text-anchor="middle" x="114.25" y="-228.7" font-family="Helvetica,sans-Serif" font-size="14.00">error = 30%</text>
</g>
<!-- 1 -->
<g id="node2" class="node">
<title>1</title>
<path fill="#e58139" stroke="black" d="M92.5,-179.5C92.5,-179.5 12,-179.5 12,-179.5 6,-179.5 0,-173.5 0,-167.5 0,-167.5 0,-123.5 0,-123.5 0,-117.5 6,-111.5 12,-111.5 12,-111.5 92.5,-111.5 92.5,-111.5 98.5,-111.5 104.5,-117.5 104.5,-123.5 104.5,-123.5 104.5,-167.5 104.5,-167.5 104.5,-173.5 98.5,-179.5 92.5,-179.5"/>
<text text-anchor="middle" x="52.25" y="-162.2" font-family="Helvetica,sans-Serif" font-size="14.00">samples = 3</text>
<text text-anchor="middle" x="52.25" y="-147.2" font-family="Helvetica,sans-Serif" font-size="14.00">value = [3, 0]</text>
<text text-anchor="middle" x="52.25" y="-132.2" font-family="Helvetica,sans-Serif" font-size="14.00">defaulted = No</text>
<text text-anchor="middle" x="52.25" y="-117.2" font-family="Helvetica,sans-Serif" font-size="14.00">error = 0%</text>
</g>
<!-- 0&#45;&gt;1 -->
<g id="edge1" class="edge">
<title>0&#45;&gt;1</title>
<path fill="none" stroke="black" d="M90.1,-222.51C84.75,-211.76 79.1,-200.42 73.86,-189.89"/>
<polygon fill="black" stroke="black" points="77.03,-188.42 69.44,-181.03 70.77,-191.54 77.03,-188.42"/>
<text text-anchor="middle" x="60.83" y="-197.58" font-family="Helvetica,sans-Serif" font-size="14.00">Yes</text>
</g>
<!-- 2 -->
<g id="node3" class="node">
<title>2</title>
<path fill="#ffffff" stroke="black" d="M220.12,-187C220.12,-187 134.38,-187 134.38,-187 128.38,-187 122.38,-181 122.38,-175 122.38,-175 122.38,-116 122.38,-116 122.38,-110 128.38,-104 134.38,-104 134.38,-104 220.12,-104 220.12,-104 226.12,-104 232.12,-110 232.12,-116 232.12,-116 232.12,-175 232.12,-175 232.12,-181 226.12,-187 220.12,-187"/>
<text text-anchor="middle" x="177.25" y="-169.7" font-family="Helvetica,sans-Serif" font-size="14.00">Marital Status?</text>
<text text-anchor="middle" x="177.25" y="-154.7" font-family="Helvetica,sans-Serif" font-size="14.00">&#45;&#45;&#45;</text>
<text text-anchor="middle" x="177.25" y="-139.7" font-family="Helvetica,sans-Serif" font-size="14.00">samples = 7</text>
<text text-anchor="middle" x="177.25" y="-124.7" font-family="Helvetica,sans-Serif" font-size="14.00">value = [4, 3]</text>
<text text-anchor="middle" x="177.25" y="-109.7" font-family="Helvetica,sans-Serif" font-size="14.00">defaulted = Yes</text>
</g>
<!-- 0&#45;&gt;2 -->
<g id="edge2" class="edge">
<title>0&#45;&gt;2</title>
<path fill="none" stroke="black" d="M138.79,-222.51C142.92,-214.35 147.22,-205.85 151.38,-197.63"/>
<polygon fill="black" stroke="black" points="154.48,-199.25 155.87,-188.75 148.23,-196.09 154.48,-199.25"/>
<text text-anchor="middle" x="164.35" y="-205.35" font-family="Helvetica,sans-Serif" font-size="14.00">No</text>
</g>
<!-- 3 -->
<g id="node4" class="node">
<title>3</title>
<path fill="#ffffff" stroke="black" d="M157.12,-68C157.12,-68 71.38,-68 71.38,-68 65.38,-68 59.38,-62 59.38,-56 59.38,-56 59.38,-12 59.38,-12 59.38,-6 65.38,0 71.38,0 71.38,0 157.12,0 157.12,0 163.12,0 169.12,-6 169.12,-12 169.12,-12 169.12,-56 169.12,-56 169.12,-62 163.12,-68 157.12,-68"/>
<text text-anchor="middle" x="114.25" y="-50.7" font-family="Helvetica,sans-Serif" font-size="14.00">samples = 4</text>
<text text-anchor="middle" x="114.25" y="-35.7" font-family="Helvetica,sans-Serif" font-size="14.00">value = [1, 3]</text>
<text text-anchor="middle" x="114.25" y="-20.7" font-family="Helvetica,sans-Serif" font-size="14.00">defaulted = Yes</text>
<text text-anchor="middle" x="114.25" y="-5.7" font-family="Helvetica,sans-Serif" font-size="14.00">error = 25%</text>
</g>
<!-- 2&#45;&gt;3 -->
<g id="edge3" class="edge">
<title>2&#45;&gt;3</title>
<path fill="none" stroke="black" d="M153.79,-103.73C148.96,-95.34 143.87,-86.47 138.99,-78.01"/>
<polygon fill="black" stroke="black" points="142.18,-76.53 134.16,-69.61 136.12,-80.02 142.18,-76.53"/>
<text text-anchor="middle" x="126.9" y="-94.14" font-family="Helvetica,sans-Serif" font-size="14.00">Single,</text>
<text text-anchor="middle" x="126.9" y="-79.14" font-family="Helvetica,sans-Serif" font-size="14.00">Divorced</text>
</g>
<!-- 4 -->
<g id="node5" class="node">
<title>4</title>
<path fill="#e58139" stroke="black" d="M279.5,-68C279.5,-68 199,-68 199,-68 193,-68 187,-62 187,-56 187,-56 187,-12 187,-12 187,-6 193,0 199,0 199,0 279.5,0 279.5,0 285.5,0 291.5,-6 291.5,-12 291.5,-12 291.5,-56 291.5,-56 291.5,-62 285.5,-68 279.5,-68"/>
<text text-anchor="middle" x="239.25" y="-50.7" font-family="Helvetica,sans-Serif" font-size="14.00">samples = 3</text>
<text text-anchor="middle" x="239.25" y="-35.7" font-family="Helvetica,sans-Serif" font-size="14.00">value = [3, 0]</text>
<text text-anchor="middle" x="239.25" y="-20.7" font-family="Helvetica,sans-Serif" font-size="14.00">defaulted = No</text>
<text text-anchor="middle" x="239.25" y="-5.7" font-family="Helvetica,sans-Serif" font-size="14.00">error = 0%</text>
</g>
<!-- 2&#45;&gt;4 -->
<g id="edge4" class="edge">
<title>2&#45;&gt;4</title>
<path fill="none" stroke="black" d="M200.34,-103.73C205.04,-95.43 210,-86.67 214.74,-78.28"/>
<polygon fill="black" stroke="black" points="217.77,-80.04 219.65,-69.62 211.68,-76.59 217.77,-80.04"/>
<text text-anchor="middle" x="227.07" y="-86.59" font-family="Helvetica,sans-Serif" font-size="14.00">Married</text>
</g>
</g>
</svg>
