<?xml version="1.0" encoding="UTF-8" standalone="no"?>
<!DOCTYPE svg PUBLIC "-//W3C//DTD SVG 1.1//EN"
 "http://www.w3.org/Graphics/SVG/1.1/DTD/svg11.dtd">
<!-- Generated by graphviz version 12.0.0 (20240704.0754)
 -->
<!-- Title: Tree Pages: 1 -->
<svg width="300pt" height="448pt"
 viewBox="0.00 0.00 299.50 448.00" xmlns="http://www.w3.org/2000/svg" xmlns:xlink="http://www.w3.org/1999/xlink">
<g id="graph0" class="graph" transform="scale(1 1) rotate(0) translate(4 444)">
<title>Tree</title>
<polygon fill="white" stroke="none" points="-4,4 -4,-444 295.5,-444 295.5,4 -4,4"/>
<!-- 0 -->
<g id="node1" class="node">
<title>0</title>
<path fill="#ffffff" stroke="black" d="M154.5,-440C154.5,-440 74,-440 74,-440 68,-440 62,-434 62,-428 62,-428 62,-354 62,-354 62,-348 68,-342 74,-342 74,-342 154.5,-342 154.5,-342 160.5,-342 166.5,-348 166.5,-354 166.5,-354 166.5,-428 166.5,-428 166.5,-434 160.5,-440 154.5,-440"/>
<text text-anchor="middle" x="114.25" y="-422.7" font-family="Helvetica,sans-Serif" font-size="14.00">Home Owner</text>
<text text-anchor="middle" x="114.25" y="-407.7" font-family="Helvetica,sans-Serif" font-size="14.00">&#45;&#45;&#45;</text>
<text text-anchor="middle" x="114.25" y="-392.7" font-family="Helvetica,sans-Serif" font-size="14.00">samples = 10</text>
<text text-anchor="middle" x="114.25" y="-377.7" font-family="Helvetica,sans-Serif" font-size="14.00">values = [7, 3]</text>
<text text-anchor="middle" x="114.25" y="-362.7" font-family="Helvetica,sans-Serif" font-size="14.00">defaulted = No</text>
<text text-anchor="middle" x="114.25" y="-347.7" font-family="Helvetica,sans-Serif" font-size="14.00">error = 30%</text>
</g>
<!-- 1 -->
<g id="node2" class="node">
<title>1</title>
<path fill="#e58139" stroke="black" d="M92.5,-298.5C92.5,-298.5 12,-298.5 12,-298.5 6,-298.5 0,-292.5 0,-286.5 0,-286.5 0,-242.5 0,-242.5 0,-236.5 6,-230.5 12,-230.5 12,-230.5 92.5,-230.5 92.5,-230.5 98.5,-230.5 104.5,-236.5 104.5,-242.5 104.5,-242.5 104.5,-286.5 104.5,-286.5 104.5,-292.5 98.5,-298.5 92.5,-298.5"/>
<text text-anchor="middle" x="52.25" y="-281.2" font-family="Helvetica,sans-Serif" font-size="14.00">samples = 3</text>
<text text-anchor="middle" x="52.25" y="-266.2" font-family="Helvetica,sans-Serif" font-size="14.00">value = [3, 0]</text>
<text text-anchor="middle" x="52.25" y="-251.2" font-family="Helvetica,sans-Serif" font-size="14.00">defaulted = No</text>
<text text-anchor="middle" x="52.25" y="-236.2" font-family="Helvetica,sans-Serif" font-size="14.00">error = 0%</text>
</g>
<!-- 0&#45;&gt;1 -->
<g id="edge1" class="edge">
<title>0&#45;&gt;1</title>
<path fill="none" stroke="black" d="M90.1,-341.51C84.75,-330.76 79.1,-319.42 73.86,-308.89"/>
<polygon fill="black" stroke="black" points="77.03,-307.42 69.44,-300.03 70.77,-310.54 77.03,-307.42"/>
<text text-anchor="middle" x="60.83" y="-316.58" font-family="Helvetica,sans-Serif" font-size="14.00">Yes</text>
</g>
<!-- 2 -->
<g id="node3" class="node">
<title>2</title>
<path fill="#ffffff" stroke="black" d="M220.12,-306C220.12,-306 134.38,-306 134.38,-306 128.38,-306 122.38,-300 122.38,-294 122.38,-294 122.38,-235 122.38,-235 122.38,-229 128.38,-223 134.38,-223 134.38,-223 220.12,-223 220.12,-223 226.12,-223 232.12,-229 232.12,-235 232.12,-235 232.12,-294 232.12,-294 232.12,-300 226.12,-306 220.12,-306"/>
<text text-anchor="middle" x="177.25" y="-288.7" font-family="Helvetica,sans-Serif" font-size="14.00">Marital Status</text>
<text text-anchor="middle" x="177.25" y="-273.7" font-family="Helvetica,sans-Serif" font-size="14.00">&#45;&#45;&#45;</text>
<text text-anchor="middle" x="177.25" y="-258.7" font-family="Helvetica,sans-Serif" font-size="14.00">samples = 7</text>
<text text-anchor="middle" x="177.25" y="-243.7" font-family="Helvetica,sans-Serif" font-size="14.00">value = [4, 3]</text>
<text text-anchor="middle" x="177.25" y="-228.7" font-family="Helvetica,sans-Serif" font-size="14.00">defaulted = Yes</text>
</g>
<!-- 0&#45;&gt;2 -->
<g id="edge2" class="edge">
<title>0&#45;&gt;2</title>
<path fill="none" stroke="black" d="M138.79,-341.51C142.92,-333.35 147.22,-324.85 151.38,-316.63"/>
<polygon fill="black" stroke="black" points="154.48,-318.25 155.87,-307.75 148.23,-315.09 154.48,-318.25"/>
<text text-anchor="middle" x="164.35" y="-324.35" font-family="Helvetica,sans-Serif" font-size="14.00">No</text>
</g>
<!-- 3 -->
<g id="node4" class="node">
<title>3</title>
<path fill="#ffffff" stroke="black" d="M157.12,-187C157.12,-187 71.38,-187 71.38,-187 65.38,-187 59.38,-181 59.38,-175 59.38,-175 59.38,-116 59.38,-116 59.38,-110 65.38,-104 71.38,-104 71.38,-104 157.12,-104 157.12,-104 163.12,-104 169.12,-110 169.12,-116 169.12,-116 169.12,-175 169.12,-175 169.12,-181 163.12,-187 157.12,-187"/>
<text text-anchor="middle" x="114.25" y="-169.7" font-family="Helvetica,sans-Serif" font-size="14.00">Income &lt;= 75K</text>
<text text-anchor="middle" x="114.25" y="-154.7" font-family="Helvetica,sans-Serif" font-size="14.00">samples = 4</text>
<text text-anchor="middle" x="114.25" y="-139.7" font-family="Helvetica,sans-Serif" font-size="14.00">value = [1, 3]</text>
<text text-anchor="middle" x="114.25" y="-124.7" font-family="Helvetica,sans-Serif" font-size="14.00">defaulted = Yes</text>
<text text-anchor="middle" x="114.25" y="-109.7" font-family="Helvetica,sans-Serif" font-size="14.00">error = 25%</text>
</g>
<!-- 2&#45;&gt;3 -->
<g id="edge3" class="edge">
<title>2&#45;&gt;3</title>
<path fill="none" stroke="black" d="M155.22,-222.58C150.83,-214.43 146.17,-205.77 141.62,-197.34"/>
<polygon fill="black" stroke="black" points="144.71,-195.68 136.88,-188.53 138.54,-199 144.71,-195.68"/>
<text text-anchor="middle" x="128.98" y="-212.85" font-family="Helvetica,sans-Serif" font-size="14.00">Single,</text>
<text text-anchor="middle" x="128.98" y="-197.85" font-family="Helvetica,sans-Serif" font-size="14.00">Divorced</text>
</g>
<!-- 4 -->
<g id="node5" class="node">
<title>4</title>
<path fill="#e58139" stroke="black" d="M279.5,-179.5C279.5,-179.5 199,-179.5 199,-179.5 193,-179.5 187,-173.5 187,-167.5 187,-167.5 187,-123.5 187,-123.5 187,-117.5 193,-111.5 199,-111.5 199,-111.5 279.5,-111.5 279.5,-111.5 285.5,-111.5 291.5,-117.5 291.5,-123.5 291.5,-123.5 291.5,-167.5 291.5,-167.5 291.5,-173.5 285.5,-179.5 279.5,-179.5"/>
<text text-anchor="middle" x="239.25" y="-162.2" font-family="Helvetica,sans-Serif" font-size="14.00">samples = 3</text>
<text text-anchor="middle" x="239.25" y="-147.2" font-family="Helvetica,sans-Serif" font-size="14.00">value = [3, 0]</text>
<text text-anchor="middle" x="239.25" y="-132.2" font-family="Helvetica,sans-Serif" font-size="14.00">defaulted = No</text>
<text text-anchor="middle" x="239.25" y="-117.2" font-family="Helvetica,sans-Serif" font-size="14.00">error = 0%</text>
</g>
<!-- 2&#45;&gt;4 -->
<g id="edge4" class="edge">
<title>2&#45;&gt;4</title>
<path fill="none" stroke="black" d="M198.93,-222.58C204.54,-211.99 210.6,-200.56 216.28,-189.85"/>
<polygon fill="black" stroke="black" points="219.27,-191.67 220.86,-181.2 213.09,-188.4 219.27,-191.67"/>
<text text-anchor="middle" x="228.91" y="-197.96" font-family="Helvetica,sans-Serif" font-size="14.00">Married</text>
</g>
<!-- 5 -->
<g id="node6" class="node">
<title>5</title>
<path fill="#e58139" stroke="black" d="M92.5,-68C92.5,-68 12,-68 12,-68 6,-68 0,-62 0,-56 0,-56 0,-12 0,-12 0,-6 6,0 12,0 12,0 92.5,0 92.5,0 98.5,0 104.5,-6 104.5,-12 104.5,-12 104.5,-56 104.5,-56 104.5,-62 98.5,-68 92.5,-68"/>
<text text-anchor="middle" x="52.25" y="-50.7" font-family="Helvetica,sans-Serif" font-size="14.00">samples = 1</text>
<text text-anchor="middle" x="52.25" y="-35.7" font-family="Helvetica,sans-Serif" font-size="14.00">value = [1, 0]</text>
<text text-anchor="middle" x="52.25" y="-20.7" font-family="Helvetica,sans-Serif" font-size="14.00">defaulted = No</text>
<text text-anchor="middle" x="52.25" y="-5.7" font-family="Helvetica,sans-Serif" font-size="14.00">error = 0%</text>
</g>
<!-- 3&#45;&gt;5 -->
<g id="edge5" class="edge">
<title>3&#45;&gt;5</title>
<path fill="none" stroke="black" d="M91.16,-103.73C86.46,-95.43 81.5,-86.67 76.76,-78.28"/>
<polygon fill="black" stroke="black" points="79.82,-76.59 71.85,-69.62 73.73,-80.04 79.82,-76.59"/>
<text text-anchor="middle" x="64.43" y="-86.59" font-family="Helvetica,sans-Serif" font-size="14.00">Yes</text>
</g>
<!-- 6 -->
<g id="node7" class="node">
<title>6</title>
<path fill="#e58139" stroke="black" d="M220.12,-68C220.12,-68 134.38,-68 134.38,-68 128.38,-68 122.38,-62 122.38,-56 122.38,-56 122.38,-12 122.38,-12 122.38,-6 128.38,0 134.38,0 134.38,0 220.12,0 220.12,0 226.12,0 232.12,-6 232.12,-12 232.12,-12 232.12,-56 232.12,-56 232.12,-62 226.12,-68 220.12,-68"/>
<text text-anchor="middle" x="177.25" y="-50.7" font-family="Helvetica,sans-Serif" font-size="14.00">samples = 3</text>
<text text-anchor="middle" x="177.25" y="-35.7" font-family="Helvetica,sans-Serif" font-size="14.00">value = [0, 3]</text>
<text text-anchor="middle" x="177.25" y="-20.7" font-family="Helvetica,sans-Serif" font-size="14.00">defaulted = Yes</text>
<text text-anchor="middle" x="177.25" y="-5.7" font-family="Helvetica,sans-Serif" font-size="14.00">error = 0%</text>
</g>
<!-- 3&#45;&gt;6 -->
<g id="edge6" class="edge">
<title>3&#45;&gt;6</title>
<path fill="none" stroke="black" d="M137.71,-103.73C142.54,-95.34 147.63,-86.47 152.51,-78.01"/>
<polygon fill="black" stroke="black" points="155.38,-80.02 157.34,-69.61 149.32,-76.53 155.38,-80.02"/>
<text text-anchor="middle" x="164.6" y="-86.64" font-family="Helvetica,sans-Serif" font-size="14.00">No</text>
</g>
</g>
</svg>
