<?xml version="1.0" encoding="UTF-8" standalone="no"?>
<!DOCTYPE svg PUBLIC "-//W3C//DTD SVG 1.1//EN"
 "http://www.w3.org/Graphics/SVG/1.1/DTD/svg11.dtd">
<!-- Generated by graphviz version 12.2.1 (20241206.2353)
 -->
<!-- Title: Tree Pages: 1 -->
<svg width="158pt" height="118pt"
 viewBox="0.00 0.00 157.88 118.00" xmlns="http://www.w3.org/2000/svg" xmlns:xlink="http://www.w3.org/1999/xlink">
<g id="graph0" class="graph" transform="scale(1 1) rotate(0) translate(4 114)">
<title>Tree</title>
<polygon fill="white" stroke="none" points="-4,4 -4,-114 153.88,-114 153.88,4 -4,4"/>
<!-- 0 -->
<g id="node1" class="node">
<title>0</title>
<ellipse fill="#ffffff" stroke="black" cx="76.62" cy="-92" rx="64.51" ry="18"/>
<text text-anchor="middle" x="76.62" y="-86.2" font-family="Helvetica,sans-Serif" font-size="14.00">Marital Status</text>
</g>
<!-- 1 -->
<g id="node2" class="node">
<title>1</title>
<path fill="#ffffff" stroke="none" d="M57.25,-38C57.25,-38 12,-38 12,-38 6,-38 0,-32 0,-26 0,-26 0,-12 0,-12 0,-6 6,0 12,0 12,0 57.25,0 57.25,0 63.25,0 69.25,-6 69.25,-12 69.25,-12 69.25,-26 69.25,-26 69.25,-32 63.25,-38 57.25,-38"/>
<text text-anchor="middle" x="34.62" y="-20.7" font-family="Helvetica,sans-Serif" font-size="14.00">Single,</text>
<text text-anchor="middle" x="34.62" y="-5.7" font-family="Helvetica,sans-Serif" font-size="14.00">Divorced</text>
</g>
<!-- 0&#45;&gt;1 -->
<g id="edge1" class="edge">
<title>0&#45;&gt;1</title>
<path fill="none" stroke="black" d="M66.46,-73.81C61.73,-65.82 55.99,-56.13 50.7,-47.18"/>
<polygon fill="black" stroke="black" points="53.86,-45.65 45.76,-38.82 47.84,-49.21 53.86,-45.65"/>
</g>
<!-- 2 -->
<g id="node3" class="node">
<title>2</title>
<path fill="#ffffff" stroke="none" d="M137.88,-37C137.88,-37 99.38,-37 99.38,-37 93.38,-37 87.38,-31 87.38,-25 87.38,-25 87.38,-13 87.38,-13 87.38,-7 93.38,-1 99.38,-1 99.38,-1 137.88,-1 137.88,-1 143.88,-1 149.88,-7 149.88,-13 149.88,-13 149.88,-25 149.88,-25 149.88,-31 143.88,-37 137.88,-37"/>
<text text-anchor="middle" x="118.62" y="-13.2" font-family="Helvetica,sans-Serif" font-size="14.00">Married</text>
</g>
<!-- 0&#45;&gt;2 -->
<g id="edge2" class="edge">
<title>0&#45;&gt;2</title>
<path fill="none" stroke="black" d="M86.79,-73.81C91.66,-65.58 97.6,-55.54 103.02,-46.38"/>
<polygon fill="black" stroke="black" points="105.99,-48.23 108.07,-37.84 99.97,-44.67 105.99,-48.23"/>
</g>
</g>
</svg>
