<?xml version="1.0" encoding="UTF-8" standalone="no"?>
<!DOCTYPE svg PUBLIC "-//W3C//DTD SVG 1.1//EN"
 "http://www.w3.org/Graphics/SVG/1.1/DTD/svg11.dtd">
<!-- Generated by graphviz version 12.0.0 (20240704.0754)
 -->
<!-- Title: Tree Pages: 1 -->
<svg width="240pt" height="210pt"
 viewBox="0.00 0.00 240.12 210.00" xmlns="http://www.w3.org/2000/svg" xmlns:xlink="http://www.w3.org/1999/xlink">
<g id="graph0" class="graph" transform="scale(1 1) rotate(0) translate(4 206)">
<title>Tree</title>
<polygon fill="white" stroke="none" points="-4,4 -4,-206 236.12,-206 236.12,4 -4,4"/>
<!-- 0 -->
<g id="node1" class="node">
<title>0</title>
<path fill="#ffffff" stroke="black" d="M154.5,-202C154.5,-202 74,-202 74,-202 68,-202 62,-196 62,-190 62,-190 62,-116 62,-116 62,-110 68,-104 74,-104 74,-104 154.5,-104 154.5,-104 160.5,-104 166.5,-110 166.5,-116 166.5,-116 166.5,-190 166.5,-190 166.5,-196 160.5,-202 154.5,-202"/>
<text text-anchor="middle" x="114.25" y="-184.7" font-family="Helvetica,sans-Serif" font-size="14.00">Home Owner?</text>
<text text-anchor="middle" x="114.25" y="-169.7" font-family="Helvetica,sans-Serif" font-size="14.00">&#45;&#45;&#45;</text>
<text text-anchor="middle" x="114.25" y="-154.7" font-family="Helvetica,sans-Serif" font-size="14.00">samples = 10</text>
<text text-anchor="middle" x="114.25" y="-139.7" font-family="Helvetica,sans-Serif" font-size="14.00">values = [7, 3]</text>
<text text-anchor="middle" x="114.25" y="-124.7" font-family="Helvetica,sans-Serif" font-size="14.00">defaulted = No</text>
<text text-anchor="middle" x="114.25" y="-109.7" font-family="Helvetica,sans-Serif" font-size="14.00">error = 30%</text>
</g>
<!-- 1 -->
<g id="node2" class="node">
<title>1</title>
<path fill="#e58139" stroke="black" d="M92.5,-68C92.5,-68 12,-68 12,-68 6,-68 0,-62 0,-56 0,-56 0,-12 0,-12 0,-6 6,0 12,0 12,0 92.5,0 92.5,0 98.5,0 104.5,-6 104.5,-12 104.5,-12 104.5,-56 104.5,-56 104.5,-62 98.5,-68 92.5,-68"/>
<text text-anchor="middle" x="52.25" y="-50.7" font-family="Helvetica,sans-Serif" font-size="14.00">samples = 3</text>
<text text-anchor="middle" x="52.25" y="-35.7" font-family="Helvetica,sans-Serif" font-size="14.00">value = [3, 0]</text>
<text text-anchor="middle" x="52.25" y="-20.7" font-family="Helvetica,sans-Serif" font-size="14.00">defaulted = No</text>
<text text-anchor="middle" x="52.25" y="-5.7" font-family="Helvetica,sans-Serif" font-size="14.00">error = 0%</text>
</g>
<!-- 0&#45;&gt;1 -->
<g id="edge1" class="edge">
<title>0&#45;&gt;1</title>
<path fill="none" stroke="black" d="M88.67,-103.74C84.17,-95.23 79.5,-86.43 75.08,-78.08"/>
<polygon fill="black" stroke="black" points="78.31,-76.71 70.54,-69.51 72.13,-79.99 78.31,-76.71"/>
<text text-anchor="middle" x="62.49" y="-86.27" font-family="Helvetica,sans-Serif" font-size="14.00">Yes</text>
</g>
<!-- 2 -->
<g id="node3" class="node">
<title>2</title>
<path fill="#ffffff" stroke="black" d="M220.12,-68C220.12,-68 134.38,-68 134.38,-68 128.38,-68 122.38,-62 122.38,-56 122.38,-56 122.38,-12 122.38,-12 122.38,-6 128.38,0 134.38,0 134.38,0 220.12,0 220.12,0 226.12,0 232.12,-6 232.12,-12 232.12,-12 232.12,-56 232.12,-56 232.12,-62 226.12,-68 220.12,-68"/>
<text text-anchor="middle" x="177.25" y="-50.7" font-family="Helvetica,sans-Serif" font-size="14.00">samples = 7</text>
<text text-anchor="middle" x="177.25" y="-35.7" font-family="Helvetica,sans-Serif" font-size="14.00">value = [4, 3]</text>
<text text-anchor="middle" x="177.25" y="-20.7" font-family="Helvetica,sans-Serif" font-size="14.00">defaulted = Yes</text>
<text text-anchor="middle" x="177.25" y="-5.7" font-family="Helvetica,sans-Serif" font-size="14.00">error = 43%</text>
</g>
<!-- 0&#45;&gt;2 -->
<g id="edge2" class="edge">
<title>0&#45;&gt;2</title>
<path fill="none" stroke="black" d="M140.24,-103.74C144.82,-95.23 149.56,-86.43 154.05,-78.08"/>
<polygon fill="black" stroke="black" points="157.01,-79.97 158.67,-69.51 150.85,-76.65 157.01,-79.97"/>
<text text-anchor="middle" x="166.57" y="-86.32" font-family="Helvetica,sans-Serif" font-size="14.00">No</text>
</g>
</g>
</svg>
