<?xml version="1.0" encoding="UTF-8" standalone="no"?>
<!DOCTYPE svg PUBLIC "-//W3C//DTD SVG 1.1//EN"
 "http://www.w3.org/Graphics/SVG/1.1/DTD/svg11.dtd">
<!-- Generated by graphviz version 12.0.0 (20240704.0754)
 -->
<!-- Title: Tree Pages: 1 -->
<svg width="158pt" height="118pt"
 viewBox="0.00 0.00 157.88 118.00" xmlns="http://www.w3.org/2000/svg" xmlns:xlink="http://www.w3.org/1999/xlink">
<g id="graph0" class="graph" transform="scale(1 1) rotate(0) translate(4 114)">
<title>Tree</title>
<polygon fill="white" stroke="none" points="-4,4 -4,-114 153.88,-114 153.88,4 -4,4"/>
<!-- 0 -->
<g id="node1" class="node">
<title>0</title>
<ellipse fill="#ffffff" stroke="black" cx="73.25" cy="-92" rx="64.51" ry="18"/>
<text text-anchor="middle" x="73.25" y="-86.2" font-family="Helvetica,sans-Serif" font-size="14.00">Marital Status</text>
</g>
<!-- 1 -->
<g id="node2" class="node">
<title>1</title>
<path fill="#ffffff" stroke="none" d="M50.5,-38C50.5,-38 12,-38 12,-38 6,-38 0,-32 0,-26 0,-26 0,-12 0,-12 0,-6 6,0 12,0 12,0 50.5,0 50.5,0 56.5,0 62.5,-6 62.5,-12 62.5,-12 62.5,-26 62.5,-26 62.5,-32 56.5,-38 50.5,-38"/>
<text text-anchor="middle" x="31.25" y="-20.7" font-family="Helvetica,sans-Serif" font-size="14.00">Single,</text>
<text text-anchor="middle" x="31.25" y="-5.7" font-family="Helvetica,sans-Serif" font-size="14.00">Married</text>
</g>
<!-- 0&#45;&gt;1 -->
<g id="edge1" class="edge">
<title>0&#45;&gt;1</title>
<path fill="none" stroke="black" d="M63.08,-73.81C58.36,-65.82 52.62,-56.13 47.33,-47.18"/>
<polygon fill="black" stroke="black" points="50.49,-45.65 42.39,-38.82 44.46,-49.21 50.49,-45.65"/>
</g>
<!-- 2 -->
<g id="node3" class="node">
<title>2</title>
<path fill="#ffffff" stroke="none" d="M137.88,-37C137.88,-37 92.62,-37 92.62,-37 86.62,-37 80.62,-31 80.62,-25 80.62,-25 80.62,-13 80.62,-13 80.62,-7 86.62,-1 92.62,-1 92.62,-1 137.88,-1 137.88,-1 143.88,-1 149.88,-7 149.88,-13 149.88,-13 149.88,-25 149.88,-25 149.88,-31 143.88,-37 137.88,-37"/>
<text text-anchor="middle" x="115.25" y="-13.2" font-family="Helvetica,sans-Serif" font-size="14.00">Divorced</text>
</g>
<!-- 0&#45;&gt;2 -->
<g id="edge2" class="edge">
<title>0&#45;&gt;2</title>
<path fill="none" stroke="black" d="M83.42,-73.81C88.29,-65.58 94.22,-55.54 99.65,-46.38"/>
<polygon fill="black" stroke="black" points="102.62,-48.23 104.7,-37.84 96.59,-44.67 102.62,-48.23"/>
</g>
</g>
</svg>
