<?xml version="1.0" encoding="UTF-8" standalone="no"?>
<!DOCTYPE svg PUBLIC "-//W3C//DTD SVG 1.1//EN"
 "http://www.w3.org/Graphics/SVG/1.1/DTD/svg11.dtd">
<!-- Generated by graphviz version 12.0.0 (20240704.0754)
 -->
<!-- Title: Tree Pages: 1 -->
<svg width="134pt" height="152pt"
 viewBox="0.00 0.00 134.25 151.99" xmlns="http://www.w3.org/2000/svg" xmlns:xlink="http://www.w3.org/1999/xlink">
<g id="graph0" class="graph" transform="scale(1 1) rotate(0) translate(4 147.99)">
<title>Tree</title>
<polygon fill="white" stroke="none" points="-4,4 -4,-147.99 130.25,-147.99 130.25,4 -4,4"/>
<!-- 0 -->
<g id="node1" class="node">
<title>0</title>
<ellipse fill="#ffffff" stroke="black" cx="63.12" cy="-117.12" rx="39.95" ry="26.87"/>
<text text-anchor="middle" x="63.12" y="-118.82" font-family="Helvetica,sans-Serif" font-size="14.00">Home</text>
<text text-anchor="middle" x="63.12" y="-103.82" font-family="Helvetica,sans-Serif" font-size="14.00">Owner</text>
</g>
<!-- 1 -->
<g id="node2" class="node">
<title>1</title>
<polygon fill="#ffffff" stroke="black" points="54.25,-54.25 0,-54.25 0,0 54.25,0 54.25,-54.25"/>
<text text-anchor="middle" x="27.12" y="-28.82" font-family="Helvetica,sans-Serif" font-size="14.00">Yes: 0</text>
<text text-anchor="middle" x="27.12" y="-13.82" font-family="Helvetica,sans-Serif" font-size="14.00">No: 3</text>
</g>
<!-- 0&#45;&gt;1 -->
<g id="edge1" class="edge">
<title>0&#45;&gt;1</title>
<path fill="none" stroke="black" d="M52.91,-91.14C49.59,-83.05 45.85,-73.89 42.26,-65.12"/>
<polygon fill="black" stroke="black" points="45.6,-64.04 38.57,-56.11 39.12,-66.69 45.6,-64.04"/>
<text text-anchor="middle" x="28.33" y="-71.96" font-family="Helvetica,sans-Serif" font-size="14.00">Yes</text>
</g>
<!-- 2 -->
<g id="node3" class="node">
<title>2</title>
<polygon fill="#ffffff" stroke="black" points="126.25,-54.25 72,-54.25 72,0 126.25,0 126.25,-54.25"/>
<text text-anchor="middle" x="99.12" y="-28.82" font-family="Helvetica,sans-Serif" font-size="14.00">Yes: 3</text>
<text text-anchor="middle" x="99.12" y="-13.82" font-family="Helvetica,sans-Serif" font-size="14.00">No: 4</text>
</g>
<!-- 0&#45;&gt;2 -->
<g id="edge2" class="edge">
<title>0&#45;&gt;2</title>
<path fill="none" stroke="black" d="M73.34,-91.14C76.66,-83.05 80.4,-73.89 83.99,-65.12"/>
<polygon fill="black" stroke="black" points="87.13,-66.69 87.68,-56.11 80.65,-64.04 87.13,-66.69"/>
<text text-anchor="middle" x="97.92" y="-71.96" font-family="Helvetica,sans-Serif" font-size="14.00">No</text>
</g>
</g>
</svg>
