<?xml version="1.0" encoding="UTF-8" standalone="no"?>
<!DOCTYPE svg PUBLIC "-//W3C//DTD SVG 1.1//EN"
 "http://www.w3.org/Graphics/SVG/1.1/DTD/svg11.dtd">
<!-- Generated by graphviz version 2.50.0 (0)
 -->
<!-- Title: Tree Pages: 1 -->
<svg width="302pt" height="134pt"
 viewBox="0.00 0.00 301.50 133.74" xmlns="http://www.w3.org/2000/svg" xmlns:xlink="http://www.w3.org/1999/xlink">
<g id="graph0" class="graph" transform="scale(1 1) rotate(0) translate(4 129.74)">
<title>Tree</title>
<polygon fill="white" stroke="transparent" points="-4,4 -4,-129.74 297.5,-129.74 297.5,4 -4,4"/>
<!-- 0 -->
<g id="node1" class="node">
<title>0</title>
<ellipse fill="#ffffff" stroke="black" cx="144" cy="-98.87" rx="31.23" ry="26.74"/>
<text text-anchor="middle" x="144" y="-102.67" font-family="Helvetica,sans-Serif" font-size="14.00">Shirt</text>
<text text-anchor="middle" x="144" y="-87.67" font-family="Helvetica,sans-Serif" font-size="14.00">Size</text>
</g>
<!-- 1 -->
<g id="node2" class="node">
<title>1</title>
<path fill="#ffffff" stroke="transparent" d="M42,-36C42,-36 12,-36 12,-36 6,-36 0,-30 0,-24 0,-24 0,-12 0,-12 0,-6 6,0 12,0 12,0 42,0 42,0 48,0 54,-6 54,-12 54,-12 54,-24 54,-24 54,-30 48,-36 42,-36"/>
<text text-anchor="middle" x="27" y="-14.3" font-family="Helvetica,sans-Serif" font-size="14.00">Small</text>
</g>
<!-- 0&#45;&gt;1 -->
<g id="edge1" class="edge">
<title>0&#45;&gt;1</title>
<path fill="none" stroke="black" d="M120.04,-81.72C103,-70.23 79.86,-54.63 60.92,-41.86"/>
<polygon fill="black" stroke="black" points="62.8,-38.91 52.55,-36.22 58.88,-44.71 62.8,-38.91"/>
</g>
<!-- 2 -->
<g id="node3" class="node">
<title>2</title>
<path fill="#ffffff" stroke="transparent" d="M126,-36C126,-36 84,-36 84,-36 78,-36 72,-30 72,-24 72,-24 72,-12 72,-12 72,-6 78,0 84,0 84,0 126,0 126,0 132,0 138,-6 138,-12 138,-12 138,-24 138,-24 138,-30 132,-36 126,-36"/>
<text text-anchor="middle" x="105" y="-14.3" font-family="Helvetica,sans-Serif" font-size="14.00">Medium</text>
</g>
<!-- 0&#45;&gt;2 -->
<g id="edge2" class="edge">
<title>0&#45;&gt;2</title>
<path fill="none" stroke="black" d="M132.09,-73.78C127.63,-64.77 122.55,-54.49 118,-45.29"/>
<polygon fill="black" stroke="black" points="121.07,-43.61 113.5,-36.19 114.8,-46.71 121.07,-43.61"/>
</g>
<!-- 3 -->
<g id="node4" class="node">
<title>3</title>
<path fill="#ffffff" stroke="transparent" d="M198,-36C198,-36 168,-36 168,-36 162,-36 156,-30 156,-24 156,-24 156,-12 156,-12 156,-6 162,0 168,0 168,0 198,0 198,0 204,0 210,-6 210,-12 210,-12 210,-24 210,-24 210,-30 204,-36 198,-36"/>
<text text-anchor="middle" x="183" y="-14.3" font-family="Helvetica,sans-Serif" font-size="14.00">Large</text>
</g>
<!-- 0&#45;&gt;3 -->
<g id="edge3" class="edge">
<title>0&#45;&gt;3</title>
<path fill="none" stroke="black" d="M155.91,-73.78C160.37,-64.77 165.45,-54.49 170,-45.29"/>
<polygon fill="black" stroke="black" points="173.2,-46.71 174.5,-36.19 166.93,-43.61 173.2,-46.71"/>
</g>
<!-- 4 -->
<g id="node5" class="node">
<title>4</title>
<path fill="#ffffff" stroke="transparent" d="M281.5,-36C281.5,-36 240.5,-36 240.5,-36 234.5,-36 228.5,-30 228.5,-24 228.5,-24 228.5,-12 228.5,-12 228.5,-6 234.5,0 240.5,0 240.5,0 281.5,0 281.5,0 287.5,0 293.5,-6 293.5,-12 293.5,-12 293.5,-24 293.5,-24 293.5,-30 287.5,-36 281.5,-36"/>
<text text-anchor="middle" x="261" y="-14.3" font-family="Helvetica,sans-Serif" font-size="14.00">X&#45;Large</text>
</g>
<!-- 0&#45;&gt;4 -->
<g id="edge4" class="edge">
<title>0&#45;&gt;4</title>
<path fill="none" stroke="black" d="M167.96,-81.72C185,-70.23 208.14,-54.63 227.08,-41.86"/>
<polygon fill="black" stroke="black" points="229.12,-44.71 235.45,-36.22 225.2,-38.91 229.12,-44.71"/>
</g>
</g>
</svg>
