<?xml version="1.0" encoding="UTF-8" standalone="no"?>
<!DOCTYPE svg PUBLIC "-//W3C//DTD SVG 1.1//EN"
 "http://www.w3.org/Graphics/SVG/1.1/DTD/svg11.dtd">
<!-- Generated by graphviz version 2.50.0 (0)
 -->
<!-- Title: Tree Pages: 1 -->
<svg width="355pt" height="135pt"
 viewBox="0.00 0.00 355.00 135.00" xmlns="http://www.w3.org/2000/svg" xmlns:xlink="http://www.w3.org/1999/xlink">
<g id="graph0" class="graph" transform="scale(1 1) rotate(0) translate(4 131)">
<title>Tree</title>
<polygon fill="white" stroke="transparent" points="-4,4 -4,-131 351,-131 351,4 -4,4"/>
<!-- 0 -->
<g id="node1" class="node">
<title>0</title>
<ellipse fill="#ffffff" stroke="black" cx="173.5" cy="-109" rx="27" ry="18"/>
<text text-anchor="middle" x="173.5" y="-105.3" font-family="Helvetica,sans-Serif" font-size="14.00">ID</text>
</g>
<!-- 1 -->
<g id="node2" class="node">
<title>1</title>
<polygon fill="#ffffff" stroke="black" points="55,-55 0,-55 0,0 55,0 55,-55"/>
<text text-anchor="middle" x="27.5" y="-31.3" font-family="Helvetica,sans-Serif" font-size="14.00">Yes: 0</text>
<text text-anchor="middle" x="27.5" y="-16.3" font-family="Helvetica,sans-Serif" font-size="14.00">No: 1</text>
</g>
<!-- 0&#45;&gt;1 -->
<g id="edge1" class="edge">
<title>0&#45;&gt;1</title>
<path fill="none" stroke="black" d="M151.22,-98.5C128.77,-88.62 93.43,-72.22 64.5,-55 64.21,-54.83 63.91,-54.65 63.62,-54.47"/>
<polygon fill="black" stroke="black" points="65.35,-51.43 55.04,-48.99 61.58,-57.32 65.35,-51.43"/>
<text text-anchor="middle" x="98.36" y="-79.37" font-family="Helvetica,sans-Serif" font-size="14.00">1</text>
</g>
<!-- 2 -->
<g id="node3" class="node">
<title>2</title>
<polygon fill="#ffffff" stroke="transparent" points="127.5,-45.5 73.5,-45.5 73.5,-9.5 127.5,-9.5 127.5,-45.5"/>
<text text-anchor="middle" x="100.5" y="-23.8" font-family="Helvetica,sans-Serif" font-size="14.00">...</text>
</g>
<!-- 0&#45;&gt;2 -->
<g id="edge2" class="edge">
<title>0&#45;&gt;2</title>
<path fill="none" stroke="white" d="M159.77,-93.05C149.51,-81.87 135.25,-66.34 123.29,-53.32"/>
<polygon fill="white" stroke="white" points="125.54,-50.59 116.2,-45.59 120.38,-55.33 125.54,-50.59"/>
</g>
<!-- 3 -->
<g id="node4" class="node">
<title>3</title>
<polygon fill="#ffffff" stroke="black" points="201,-55 146,-55 146,0 201,0 201,-55"/>
<text text-anchor="middle" x="173.5" y="-31.3" font-family="Helvetica,sans-Serif" font-size="14.00">Yes: 1</text>
<text text-anchor="middle" x="173.5" y="-16.3" font-family="Helvetica,sans-Serif" font-size="14.00">No: 0</text>
</g>
<!-- 0&#45;&gt;3 -->
<g id="edge3" class="edge">
<title>0&#45;&gt;3</title>
<path fill="none" stroke="black" d="M173.5,-90.75C173.5,-83.27 173.5,-74.2 173.5,-65.32"/>
<polygon fill="black" stroke="black" points="177,-65.1 173.5,-55.1 170,-65.1 177,-65.1"/>
<text text-anchor="middle" x="169.5" y="-76.62" font-family="Helvetica,sans-Serif" font-size="14.00">8</text>
</g>
<!-- 4 -->
<g id="node5" class="node">
<title>4</title>
<polygon fill="#ffffff" stroke="black" points="274,-55 219,-55 219,0 274,0 274,-55"/>
<text text-anchor="middle" x="246.5" y="-31.3" font-family="Helvetica,sans-Serif" font-size="14.00">Yes: 0</text>
<text text-anchor="middle" x="246.5" y="-16.3" font-family="Helvetica,sans-Serif" font-size="14.00">No: 1</text>
</g>
<!-- 0&#45;&gt;4 -->
<g id="edge4" class="edge">
<title>0&#45;&gt;4</title>
<path fill="none" stroke="black" d="M187.23,-93.05C195.07,-84.5 205.25,-73.42 214.96,-62.85"/>
<polygon fill="black" stroke="black" points="217.71,-65.03 221.9,-55.29 212.56,-60.29 217.71,-65.03"/>
<text text-anchor="middle" x="200.44" y="-78.1" font-family="Helvetica,sans-Serif" font-size="14.00">9</text>
</g>
<!-- 5 -->
<g id="node6" class="node">
<title>5</title>
<polygon fill="#ffffff" stroke="black" points="347,-55 292,-55 292,0 347,0 347,-55"/>
<text text-anchor="middle" x="319.5" y="-31.3" font-family="Helvetica,sans-Serif" font-size="14.00">Yes: 1</text>
<text text-anchor="middle" x="319.5" y="-16.3" font-family="Helvetica,sans-Serif" font-size="14.00">No: 0</text>
</g>
<!-- 0&#45;&gt;5 -->
<g id="edge5" class="edge">
<title>0&#45;&gt;5</title>
<path fill="none" stroke="black" d="M196.04,-98.61C218.74,-88.82 254.44,-72.49 283.5,-55 283.59,-54.95 283.67,-54.89 283.76,-54.84"/>
<polygon fill="black" stroke="black" points="285.43,-57.93 291.94,-49.57 281.64,-52.04 285.43,-57.93"/>
<text text-anchor="middle" x="237.01" y="-79.73" font-family="Helvetica,sans-Serif" font-size="14.00">10</text>
</g>
</g>
</svg>
