<?xml version="1.0" encoding="UTF-8" standalone="no"?>
<!DOCTYPE svg PUBLIC "-//W3C//DTD SVG 1.1//EN"
 "http://www.w3.org/Graphics/SVG/1.1/DTD/svg11.dtd">
<!-- Generated by graphviz version 2.50.0 (0)
 -->
<!-- Title: Tree Pages: 1 -->
<svg width="232pt" height="116pt"
 viewBox="0.00 0.00 231.50 116.00" xmlns="http://www.w3.org/2000/svg" xmlns:xlink="http://www.w3.org/1999/xlink">
<g id="graph0" class="graph" transform="scale(1 1) rotate(0) translate(4 112)">
<title>Tree</title>
<polygon fill="white" stroke="transparent" points="-4,4 -4,-112 227.5,-112 227.5,4 -4,4"/>
<!-- 0 -->
<g id="node1" class="node">
<title>0</title>
<ellipse fill="#ffffff" stroke="black" cx="107" cy="-90" rx="64.99" ry="18"/>
<text text-anchor="middle" x="107" y="-86.3" font-family="Helvetica,sans-Serif" font-size="14.00">Marital Status</text>
</g>
<!-- 1 -->
<g id="node2" class="node">
<title>1</title>
<path fill="#ffffff" stroke="transparent" d="M42,-36C42,-36 12,-36 12,-36 6,-36 0,-30 0,-24 0,-24 0,-12 0,-12 0,-6 6,0 12,0 12,0 42,0 42,0 48,0 54,-6 54,-12 54,-12 54,-24 54,-24 54,-30 48,-36 42,-36"/>
<text text-anchor="middle" x="27" y="-14.3" font-family="Helvetica,sans-Serif" font-size="14.00">Single</text>
</g>
<!-- 0&#45;&gt;1 -->
<g id="edge1" class="edge">
<title>0&#45;&gt;1</title>
<path fill="none" stroke="black" d="M88.04,-72.41C78,-63.63 65.49,-52.68 54.41,-42.99"/>
<polygon fill="black" stroke="black" points="56.49,-40.15 46.66,-36.2 51.88,-45.42 56.49,-40.15"/>
</g>
<!-- 2 -->
<g id="node3" class="node">
<title>2</title>
<path fill="#ffffff" stroke="transparent" d="M130,-36C130,-36 84,-36 84,-36 78,-36 72,-30 72,-24 72,-24 72,-12 72,-12 72,-6 78,0 84,0 84,0 130,0 130,0 136,0 142,-6 142,-12 142,-12 142,-24 142,-24 142,-30 136,-36 130,-36"/>
<text text-anchor="middle" x="107" y="-14.3" font-family="Helvetica,sans-Serif" font-size="14.00">Divorced</text>
</g>
<!-- 0&#45;&gt;2 -->
<g id="edge2" class="edge">
<title>0&#45;&gt;2</title>
<path fill="none" stroke="black" d="M107,-71.7C107,-63.98 107,-54.71 107,-46.11"/>
<polygon fill="black" stroke="black" points="110.5,-46.1 107,-36.1 103.5,-46.1 110.5,-46.1"/>
</g>
<!-- 3 -->
<g id="node4" class="node">
<title>3</title>
<path fill="#ffffff" stroke="transparent" d="M211.5,-36C211.5,-36 172.5,-36 172.5,-36 166.5,-36 160.5,-30 160.5,-24 160.5,-24 160.5,-12 160.5,-12 160.5,-6 166.5,0 172.5,0 172.5,0 211.5,0 211.5,0 217.5,0 223.5,-6 223.5,-12 223.5,-12 223.5,-24 223.5,-24 223.5,-30 217.5,-36 211.5,-36"/>
<text text-anchor="middle" x="192" y="-14.3" font-family="Helvetica,sans-Serif" font-size="14.00">Married</text>
</g>
<!-- 0&#45;&gt;3 -->
<g id="edge3" class="edge">
<title>0&#45;&gt;3</title>
<path fill="none" stroke="black" d="M126.71,-72.76C137.55,-63.84 151.2,-52.6 163.21,-42.71"/>
<polygon fill="black" stroke="black" points="165.71,-45.18 171.21,-36.12 161.26,-39.78 165.71,-45.18"/>
</g>
</g>
</svg>
