<?xml version="1.0" encoding="UTF-8" standalone="no"?>
<!DOCTYPE svg PUBLIC "-//W3C//DTD SVG 1.1//EN"
 "http://www.w3.org/Graphics/SVG/1.1/DTD/svg11.dtd">
<!-- Generated by graphviz version 2.50.0 (0)
 -->
<!-- Title: Tree Pages: 1 -->
<svg width="160pt" height="118pt"
 viewBox="0.00 0.00 159.50 118.00" xmlns="http://www.w3.org/2000/svg" xmlns:xlink="http://www.w3.org/1999/xlink">
<g id="graph0" class="graph" transform="scale(1 1) rotate(0) translate(4 114)">
<title>Tree</title>
<polygon fill="white" stroke="transparent" points="-4,4 -4,-114 155.5,-114 155.5,4 -4,4"/>
<!-- 0 -->
<g id="node1" class="node">
<title>0</title>
<ellipse fill="#ffffff" stroke="black" cx="73.5" cy="-92" rx="64.99" ry="18"/>
<text text-anchor="middle" x="73.5" y="-88.3" font-family="Helvetica,sans-Serif" font-size="14.00">Marital Status</text>
</g>
<!-- 1 -->
<g id="node2" class="node">
<title>1</title>
<path fill="#ffffff" stroke="transparent" d="M51,-38C51,-38 12,-38 12,-38 6,-38 0,-32 0,-26 0,-26 0,-12 0,-12 0,-6 6,0 12,0 12,0 51,0 51,0 57,0 63,-6 63,-12 63,-12 63,-26 63,-26 63,-32 57,-38 51,-38"/>
<text text-anchor="middle" x="31.5" y="-22.8" font-family="Helvetica,sans-Serif" font-size="14.00">Single,</text>
<text text-anchor="middle" x="31.5" y="-7.8" font-family="Helvetica,sans-Serif" font-size="14.00">Married</text>
</g>
<!-- 0&#45;&gt;1 -->
<g id="edge1" class="edge">
<title>0&#45;&gt;1</title>
<path fill="none" stroke="black" d="M63.55,-74.17C58.74,-66.05 52.86,-56.11 47.46,-46.97"/>
<polygon fill="black" stroke="black" points="50.37,-45.02 42.26,-38.2 44.34,-48.59 50.37,-45.02"/>
</g>
<!-- 2 -->
<g id="node3" class="node">
<title>2</title>
<path fill="#ffffff" stroke="transparent" d="M139.5,-37C139.5,-37 93.5,-37 93.5,-37 87.5,-37 81.5,-31 81.5,-25 81.5,-25 81.5,-13 81.5,-13 81.5,-7 87.5,-1 93.5,-1 93.5,-1 139.5,-1 139.5,-1 145.5,-1 151.5,-7 151.5,-13 151.5,-13 151.5,-25 151.5,-25 151.5,-31 145.5,-37 139.5,-37"/>
<text text-anchor="middle" x="116.5" y="-15.3" font-family="Helvetica,sans-Serif" font-size="14.00">Divorced</text>
</g>
<!-- 0&#45;&gt;2 -->
<g id="edge2" class="edge">
<title>0&#45;&gt;2</title>
<path fill="none" stroke="black" d="M83.69,-74.17C88.81,-65.72 95.12,-55.29 100.84,-45.85"/>
<polygon fill="black" stroke="black" points="103.9,-47.57 106.08,-37.2 97.91,-43.94 103.9,-47.57"/>
</g>
</g>
</svg>
