<?xml version="1.0" encoding="UTF-8" standalone="no"?>
<!DOCTYPE svg PUBLIC "-//W3C//DTD SVG 1.1//EN"
 "http://www.w3.org/Graphics/SVG/1.1/DTD/svg11.dtd">
<!-- Generated by graphviz version 2.50.0 (0)
 -->
<!-- Title: Tree Pages: 1 -->
<svg width="302pt" height="329pt"
 viewBox="0.00 0.00 302.00 329.00" xmlns="http://www.w3.org/2000/svg" xmlns:xlink="http://www.w3.org/1999/xlink">
<g id="graph0" class="graph" transform="scale(1 1) rotate(0) translate(4 325)">
<title>Tree</title>
<polygon fill="white" stroke="transparent" points="-4,4 -4,-325 298,-325 298,4 -4,4"/>
<!-- 0 -->
<g id="node1" class="node">
<title>0</title>
<path fill="#ffffff" stroke="black" d="M156,-321C156,-321 75,-321 75,-321 69,-321 63,-315 63,-309 63,-309 63,-235 63,-235 63,-229 69,-223 75,-223 75,-223 156,-223 156,-223 162,-223 168,-229 168,-235 168,-235 168,-309 168,-309 168,-315 162,-321 156,-321"/>
<text text-anchor="middle" x="115.5" y="-305.8" font-family="Helvetica,sans-Serif" font-size="14.00">Home Owner?</text>
<text text-anchor="middle" x="115.5" y="-290.8" font-family="Helvetica,sans-Serif" font-size="14.00">&#45;&#45;&#45;</text>
<text text-anchor="middle" x="115.5" y="-275.8" font-family="Helvetica,sans-Serif" font-size="14.00">samples = 10</text>
<text text-anchor="middle" x="115.5" y="-260.8" font-family="Helvetica,sans-Serif" font-size="14.00">values = [7, 3]</text>
<text text-anchor="middle" x="115.5" y="-245.8" font-family="Helvetica,sans-Serif" font-size="14.00">defaulted = No</text>
<text text-anchor="middle" x="115.5" y="-230.8" font-family="Helvetica,sans-Serif" font-size="14.00">error = 30%</text>
</g>
<!-- 1 -->
<g id="node2" class="node">
<title>1</title>
<path fill="#e58139" stroke="black" d="M93,-179.5C93,-179.5 12,-179.5 12,-179.5 6,-179.5 0,-173.5 0,-167.5 0,-167.5 0,-123.5 0,-123.5 0,-117.5 6,-111.5 12,-111.5 12,-111.5 93,-111.5 93,-111.5 99,-111.5 105,-117.5 105,-123.5 105,-123.5 105,-167.5 105,-167.5 105,-173.5 99,-179.5 93,-179.5"/>
<text text-anchor="middle" x="52.5" y="-164.3" font-family="Helvetica,sans-Serif" font-size="14.00">samples = 3</text>
<text text-anchor="middle" x="52.5" y="-149.3" font-family="Helvetica,sans-Serif" font-size="14.00">value = [3, 0]</text>
<text text-anchor="middle" x="52.5" y="-134.3" font-family="Helvetica,sans-Serif" font-size="14.00">defaulted = No</text>
<text text-anchor="middle" x="52.5" y="-119.3" font-family="Helvetica,sans-Serif" font-size="14.00">error = 0%</text>
</g>
<!-- 0&#45;&gt;1 -->
<g id="edge1" class="edge">
<title>0&#45;&gt;1</title>
<path fill="none" stroke="black" d="M91.14,-222.87C85.46,-211.64 79.45,-199.77 73.91,-188.81"/>
<polygon fill="black" stroke="black" points="77.02,-187.21 69.38,-179.86 70.78,-190.37 77.02,-187.21"/>
<text text-anchor="middle" x="61.59" y="-199.92" font-family="Helvetica,sans-Serif" font-size="14.00">Yes</text>
</g>
<!-- 2 -->
<g id="node3" class="node">
<title>2</title>
<path fill="#ffffff" stroke="black" d="M221.5,-187C221.5,-187 135.5,-187 135.5,-187 129.5,-187 123.5,-181 123.5,-175 123.5,-175 123.5,-116 123.5,-116 123.5,-110 129.5,-104 135.5,-104 135.5,-104 221.5,-104 221.5,-104 227.5,-104 233.5,-110 233.5,-116 233.5,-116 233.5,-175 233.5,-175 233.5,-181 227.5,-187 221.5,-187"/>
<text text-anchor="middle" x="178.5" y="-171.8" font-family="Helvetica,sans-Serif" font-size="14.00">Marital Status?</text>
<text text-anchor="middle" x="178.5" y="-156.8" font-family="Helvetica,sans-Serif" font-size="14.00">&#45;&#45;&#45;</text>
<text text-anchor="middle" x="178.5" y="-141.8" font-family="Helvetica,sans-Serif" font-size="14.00">samples = 7</text>
<text text-anchor="middle" x="178.5" y="-126.8" font-family="Helvetica,sans-Serif" font-size="14.00">value = [4, 3]</text>
<text text-anchor="middle" x="178.5" y="-111.8" font-family="Helvetica,sans-Serif" font-size="14.00">defaulted = Yes</text>
</g>
<!-- 0&#45;&gt;2 -->
<g id="edge2" class="edge">
<title>0&#45;&gt;2</title>
<path fill="none" stroke="black" d="M139.86,-222.87C144.28,-214.13 148.9,-205 153.34,-196.22"/>
<polygon fill="black" stroke="black" points="156.5,-197.73 157.89,-187.23 150.25,-194.57 156.5,-197.73"/>
<text text-anchor="middle" x="165.68" y="-207.29" font-family="Helvetica,sans-Serif" font-size="14.00">No</text>
</g>
<!-- 3 -->
<g id="node4" class="node">
<title>3</title>
<path fill="#ffffff" stroke="black" d="M158.5,-68C158.5,-68 72.5,-68 72.5,-68 66.5,-68 60.5,-62 60.5,-56 60.5,-56 60.5,-12 60.5,-12 60.5,-6 66.5,0 72.5,0 72.5,0 158.5,0 158.5,0 164.5,0 170.5,-6 170.5,-12 170.5,-12 170.5,-56 170.5,-56 170.5,-62 164.5,-68 158.5,-68"/>
<text text-anchor="middle" x="115.5" y="-52.8" font-family="Helvetica,sans-Serif" font-size="14.00">samples = 4</text>
<text text-anchor="middle" x="115.5" y="-37.8" font-family="Helvetica,sans-Serif" font-size="14.00">value = [1, 3]</text>
<text text-anchor="middle" x="115.5" y="-22.8" font-family="Helvetica,sans-Serif" font-size="14.00">defaulted = Yes</text>
<text text-anchor="middle" x="115.5" y="-7.8" font-family="Helvetica,sans-Serif" font-size="14.00">error = 25%</text>
</g>
<!-- 2&#45;&gt;3 -->
<g id="edge3" class="edge">
<title>2&#45;&gt;3</title>
<path fill="none" stroke="black" d="M155.04,-103.73C150.06,-95.06 144.78,-85.9 139.77,-77.18"/>
<polygon fill="black" stroke="black" points="142.68,-75.22 134.66,-68.3 136.61,-78.71 142.68,-75.22"/>
<text text-anchor="middle" x="128.15" y="-96.24" font-family="Helvetica,sans-Serif" font-size="14.00">Single,</text>
<text text-anchor="middle" x="128.15" y="-81.24" font-family="Helvetica,sans-Serif" font-size="14.00">Divorced</text>
</g>
<!-- 4 -->
<g id="node5" class="node">
<title>4</title>
<path fill="#e58139" stroke="black" d="M282,-68C282,-68 201,-68 201,-68 195,-68 189,-62 189,-56 189,-56 189,-12 189,-12 189,-6 195,0 201,0 201,0 282,0 282,0 288,0 294,-6 294,-12 294,-12 294,-56 294,-56 294,-62 288,-68 282,-68"/>
<text text-anchor="middle" x="241.5" y="-52.8" font-family="Helvetica,sans-Serif" font-size="14.00">samples = 3</text>
<text text-anchor="middle" x="241.5" y="-37.8" font-family="Helvetica,sans-Serif" font-size="14.00">value = [3, 0]</text>
<text text-anchor="middle" x="241.5" y="-22.8" font-family="Helvetica,sans-Serif" font-size="14.00">defaulted = No</text>
<text text-anchor="middle" x="241.5" y="-7.8" font-family="Helvetica,sans-Serif" font-size="14.00">error = 0%</text>
</g>
<!-- 2&#45;&gt;4 -->
<g id="edge4" class="edge">
<title>2&#45;&gt;4</title>
<path fill="none" stroke="black" d="M201.96,-103.73C206.94,-95.06 212.22,-85.9 217.23,-77.18"/>
<polygon fill="black" stroke="black" points="220.39,-78.71 222.34,-68.3 214.32,-75.22 220.39,-78.71"/>
<text text-anchor="middle" x="228.85" y="-88.74" font-family="Helvetica,sans-Serif" font-size="14.00">Married</text>
</g>
</g>
</svg>
