<?xml version="1.0" encoding="UTF-8" standalone="no"?>
<!DOCTYPE svg PUBLIC "-//W3C//DTD SVG 1.1//EN"
 "http://www.w3.org/Graphics/SVG/1.1/DTD/svg11.dtd">
<!-- Generated by graphviz version 2.50.0 (0)
 -->
<!-- Title: Tree Pages: 1 -->
<svg width="192pt" height="136pt"
 viewBox="0.00 0.00 192.00 135.74" xmlns="http://www.w3.org/2000/svg" xmlns:xlink="http://www.w3.org/1999/xlink">
<g id="graph0" class="graph" transform="scale(1 1) rotate(0) translate(4 131.74)">
<title>Tree</title>
<polygon fill="white" stroke="transparent" points="-4,4 -4,-131.74 188,-131.74 188,4 -4,4"/>
<!-- 0 -->
<g id="node1" class="node">
<title>0</title>
<ellipse fill="#ffffff" stroke="black" cx="77" cy="-100.87" rx="31.23" ry="26.74"/>
<text text-anchor="middle" x="77" y="-104.67" font-family="Helvetica,sans-Serif" font-size="14.00">Shirt</text>
<text text-anchor="middle" x="77" y="-89.67" font-family="Helvetica,sans-Serif" font-size="14.00">Size</text>
</g>
<!-- 1 -->
<g id="node2" class="node">
<title>1</title>
<path fill="#ffffff" stroke="transparent" d="M42,-37C42,-37 12,-37 12,-37 6,-37 0,-31 0,-25 0,-25 0,-13 0,-13 0,-7 6,-1 12,-1 12,-1 42,-1 42,-1 48,-1 54,-7 54,-13 54,-13 54,-25 54,-25 54,-31 48,-37 42,-37"/>
<text text-anchor="middle" x="27" y="-15.3" font-family="Helvetica,sans-Serif" font-size="14.00">Small</text>
</g>
<!-- 0&#45;&gt;1 -->
<g id="edge1" class="edge">
<title>0&#45;&gt;1</title>
<path fill="none" stroke="black" d="M62.54,-76.77C56.49,-67.1 49.43,-55.83 43.2,-45.89"/>
<polygon fill="black" stroke="black" points="46.05,-43.83 37.78,-37.21 40.11,-47.55 46.05,-43.83"/>
</g>
<!-- 2 -->
<g id="node3" class="node">
<title>2</title>
<path fill="#ffffff" stroke="transparent" d="M172,-38C172,-38 84,-38 84,-38 78,-38 72,-32 72,-26 72,-26 72,-12 72,-12 72,-6 78,0 84,0 84,0 172,0 172,0 178,0 184,-6 184,-12 184,-12 184,-26 184,-26 184,-32 178,-38 172,-38"/>
<text text-anchor="middle" x="128" y="-22.8" font-family="Helvetica,sans-Serif" font-size="14.00">Medium, Large,</text>
<text text-anchor="middle" x="128" y="-7.8" font-family="Helvetica,sans-Serif" font-size="14.00">X&#45;Large</text>
</g>
<!-- 0&#45;&gt;2 -->
<g id="edge2" class="edge">
<title>0&#45;&gt;2</title>
<path fill="none" stroke="black" d="M91.75,-76.77C97.74,-67.39 104.7,-56.49 110.91,-46.76"/>
<polygon fill="black" stroke="black" points="113.92,-48.55 116.36,-38.23 108.02,-44.78 113.92,-48.55"/>
</g>
</g>
</svg>
