<?xml version="1.0" encoding="UTF-8" standalone="no"?>
<!DOCTYPE svg PUBLIC "-//W3C//DTD SVG 1.1//EN"
 "http://www.w3.org/Graphics/SVG/1.1/DTD/svg11.dtd">
<!-- Generated by graphviz version 2.50.0 (0)
 -->
<!-- Title: Tree Pages: 1 -->
<svg width="302pt" height="448pt"
 viewBox="0.00 0.00 302.00 448.00" xmlns="http://www.w3.org/2000/svg" xmlns:xlink="http://www.w3.org/1999/xlink">
<g id="graph0" class="graph" transform="scale(1 1) rotate(0) translate(4 444)">
<title>Tree</title>
<polygon fill="white" stroke="transparent" points="-4,4 -4,-444 298,-444 298,4 -4,4"/>
<!-- 0 -->
<g id="node1" class="node">
<title>0</title>
<path fill="#ffffff" stroke="black" d="M156,-440C156,-440 75,-440 75,-440 69,-440 63,-434 63,-428 63,-428 63,-354 63,-354 63,-348 69,-342 75,-342 75,-342 156,-342 156,-342 162,-342 168,-348 168,-354 168,-354 168,-428 168,-428 168,-434 162,-440 156,-440"/>
<text text-anchor="middle" x="115.5" y="-424.8" font-family="Helvetica,sans-Serif" font-size="14.00">Home Owner</text>
<text text-anchor="middle" x="115.5" y="-409.8" font-family="Helvetica,sans-Serif" font-size="14.00">&#45;&#45;&#45;</text>
<text text-anchor="middle" x="115.5" y="-394.8" font-family="Helvetica,sans-Serif" font-size="14.00">samples = 10</text>
<text text-anchor="middle" x="115.5" y="-379.8" font-family="Helvetica,sans-Serif" font-size="14.00">values = [7, 3]</text>
<text text-anchor="middle" x="115.5" y="-364.8" font-family="Helvetica,sans-Serif" font-size="14.00">defaulted = No</text>
<text text-anchor="middle" x="115.5" y="-349.8" font-family="Helvetica,sans-Serif" font-size="14.00">error = 30%</text>
</g>
<!-- 1 -->
<g id="node2" class="node">
<title>1</title>
<path fill="#e58139" stroke="black" d="M93,-298.5C93,-298.5 12,-298.5 12,-298.5 6,-298.5 0,-292.5 0,-286.5 0,-286.5 0,-242.5 0,-242.5 0,-236.5 6,-230.5 12,-230.5 12,-230.5 93,-230.5 93,-230.5 99,-230.5 105,-236.5 105,-242.5 105,-242.5 105,-286.5 105,-286.5 105,-292.5 99,-298.5 93,-298.5"/>
<text text-anchor="middle" x="52.5" y="-283.3" font-family="Helvetica,sans-Serif" font-size="14.00">samples = 3</text>
<text text-anchor="middle" x="52.5" y="-268.3" font-family="Helvetica,sans-Serif" font-size="14.00">value = [3, 0]</text>
<text text-anchor="middle" x="52.5" y="-253.3" font-family="Helvetica,sans-Serif" font-size="14.00">defaulted = No</text>
<text text-anchor="middle" x="52.5" y="-238.3" font-family="Helvetica,sans-Serif" font-size="14.00">error = 0%</text>
</g>
<!-- 0&#45;&gt;1 -->
<g id="edge1" class="edge">
<title>0&#45;&gt;1</title>
<path fill="none" stroke="black" d="M91.14,-341.87C85.46,-330.64 79.45,-318.77 73.91,-307.81"/>
<polygon fill="black" stroke="black" points="77.02,-306.21 69.38,-298.86 70.78,-309.37 77.02,-306.21"/>
<text text-anchor="middle" x="61.59" y="-318.92" font-family="Helvetica,sans-Serif" font-size="14.00">Yes</text>
</g>
<!-- 2 -->
<g id="node3" class="node">
<title>2</title>
<path fill="#ffffff" stroke="black" d="M221.5,-306C221.5,-306 135.5,-306 135.5,-306 129.5,-306 123.5,-300 123.5,-294 123.5,-294 123.5,-235 123.5,-235 123.5,-229 129.5,-223 135.5,-223 135.5,-223 221.5,-223 221.5,-223 227.5,-223 233.5,-229 233.5,-235 233.5,-235 233.5,-294 233.5,-294 233.5,-300 227.5,-306 221.5,-306"/>
<text text-anchor="middle" x="178.5" y="-290.8" font-family="Helvetica,sans-Serif" font-size="14.00">Marital Status</text>
<text text-anchor="middle" x="178.5" y="-275.8" font-family="Helvetica,sans-Serif" font-size="14.00">&#45;&#45;&#45;</text>
<text text-anchor="middle" x="178.5" y="-260.8" font-family="Helvetica,sans-Serif" font-size="14.00">samples = 7</text>
<text text-anchor="middle" x="178.5" y="-245.8" font-family="Helvetica,sans-Serif" font-size="14.00">value = [4, 3]</text>
<text text-anchor="middle" x="178.5" y="-230.8" font-family="Helvetica,sans-Serif" font-size="14.00">defaulted = Yes</text>
</g>
<!-- 0&#45;&gt;2 -->
<g id="edge2" class="edge">
<title>0&#45;&gt;2</title>
<path fill="none" stroke="black" d="M139.86,-341.87C144.28,-333.13 148.9,-324 153.34,-315.22"/>
<polygon fill="black" stroke="black" points="156.5,-316.73 157.89,-306.23 150.25,-313.57 156.5,-316.73"/>
<text text-anchor="middle" x="165.68" y="-326.29" font-family="Helvetica,sans-Serif" font-size="14.00">No</text>
</g>
<!-- 3 -->
<g id="node4" class="node">
<title>3</title>
<path fill="#ffffff" stroke="black" d="M158.5,-187C158.5,-187 72.5,-187 72.5,-187 66.5,-187 60.5,-181 60.5,-175 60.5,-175 60.5,-116 60.5,-116 60.5,-110 66.5,-104 72.5,-104 72.5,-104 158.5,-104 158.5,-104 164.5,-104 170.5,-110 170.5,-116 170.5,-116 170.5,-175 170.5,-175 170.5,-181 164.5,-187 158.5,-187"/>
<text text-anchor="middle" x="115.5" y="-171.8" font-family="Helvetica,sans-Serif" font-size="14.00">Income &lt;= 75K</text>
<text text-anchor="middle" x="115.5" y="-156.8" font-family="Helvetica,sans-Serif" font-size="14.00">samples = 4</text>
<text text-anchor="middle" x="115.5" y="-141.8" font-family="Helvetica,sans-Serif" font-size="14.00">value = [1, 3]</text>
<text text-anchor="middle" x="115.5" y="-126.8" font-family="Helvetica,sans-Serif" font-size="14.00">defaulted = Yes</text>
<text text-anchor="middle" x="115.5" y="-111.8" font-family="Helvetica,sans-Serif" font-size="14.00">error = 25%</text>
</g>
<!-- 2&#45;&gt;3 -->
<g id="edge3" class="edge">
<title>2&#45;&gt;3</title>
<path fill="none" stroke="black" d="M156.64,-222.91C151.95,-214.2 146.94,-204.9 142.1,-195.89"/>
<polygon fill="black" stroke="black" points="145.14,-194.17 137.32,-187.02 138.98,-197.48 145.14,-194.17"/>
<text text-anchor="middle" x="130.14" y="-214.77" font-family="Helvetica,sans-Serif" font-size="14.00">Single,</text>
<text text-anchor="middle" x="130.14" y="-199.77" font-family="Helvetica,sans-Serif" font-size="14.00">Divorced</text>
</g>
<!-- 4 -->
<g id="node5" class="node">
<title>4</title>
<path fill="#e58139" stroke="black" d="M282,-179.5C282,-179.5 201,-179.5 201,-179.5 195,-179.5 189,-173.5 189,-167.5 189,-167.5 189,-123.5 189,-123.5 189,-117.5 195,-111.5 201,-111.5 201,-111.5 282,-111.5 282,-111.5 288,-111.5 294,-117.5 294,-123.5 294,-123.5 294,-167.5 294,-167.5 294,-173.5 288,-179.5 282,-179.5"/>
<text text-anchor="middle" x="241.5" y="-164.3" font-family="Helvetica,sans-Serif" font-size="14.00">samples = 3</text>
<text text-anchor="middle" x="241.5" y="-149.3" font-family="Helvetica,sans-Serif" font-size="14.00">value = [3, 0]</text>
<text text-anchor="middle" x="241.5" y="-134.3" font-family="Helvetica,sans-Serif" font-size="14.00">defaulted = No</text>
<text text-anchor="middle" x="241.5" y="-119.3" font-family="Helvetica,sans-Serif" font-size="14.00">error = 0%</text>
</g>
<!-- 2&#45;&gt;4 -->
<g id="edge4" class="edge">
<title>2&#45;&gt;4</title>
<path fill="none" stroke="black" d="M200.36,-222.91C206.3,-211.87 212.75,-199.9 218.74,-188.77"/>
<polygon fill="black" stroke="black" points="221.98,-190.13 223.64,-179.67 215.82,-186.81 221.98,-190.13"/>
<text text-anchor="middle" x="230.82" y="-199.91" font-family="Helvetica,sans-Serif" font-size="14.00">Married</text>
</g>
<!-- 5 -->
<g id="node6" class="node">
<title>5</title>
<path fill="#e58139" stroke="black" d="M93,-68C93,-68 12,-68 12,-68 6,-68 0,-62 0,-56 0,-56 0,-12 0,-12 0,-6 6,0 12,0 12,0 93,0 93,0 99,0 105,-6 105,-12 105,-12 105,-56 105,-56 105,-62 99,-68 93,-68"/>
<text text-anchor="middle" x="52.5" y="-52.8" font-family="Helvetica,sans-Serif" font-size="14.00">samples = 1</text>
<text text-anchor="middle" x="52.5" y="-37.8" font-family="Helvetica,sans-Serif" font-size="14.00">value = [1, 0]</text>
<text text-anchor="middle" x="52.5" y="-22.8" font-family="Helvetica,sans-Serif" font-size="14.00">defaulted = No</text>
<text text-anchor="middle" x="52.5" y="-7.8" font-family="Helvetica,sans-Serif" font-size="14.00">error = 0%</text>
</g>
<!-- 3&#45;&gt;5 -->
<g id="edge5" class="edge">
<title>3&#45;&gt;5</title>
<path fill="none" stroke="black" d="M92.04,-103.73C87.06,-95.06 81.78,-85.9 76.77,-77.18"/>
<polygon fill="black" stroke="black" points="79.68,-75.22 71.66,-68.3 73.61,-78.71 79.68,-75.22"/>
<text text-anchor="middle" x="65.15" y="-88.74" font-family="Helvetica,sans-Serif" font-size="14.00">Yes</text>
</g>
<!-- 6 -->
<g id="node7" class="node">
<title>6</title>
<path fill="#e58139" stroke="black" d="M221.5,-68C221.5,-68 135.5,-68 135.5,-68 129.5,-68 123.5,-62 123.5,-56 123.5,-56 123.5,-12 123.5,-12 123.5,-6 129.5,0 135.5,0 135.5,0 221.5,0 221.5,0 227.5,0 233.5,-6 233.5,-12 233.5,-12 233.5,-56 233.5,-56 233.5,-62 227.5,-68 221.5,-68"/>
<text text-anchor="middle" x="178.5" y="-52.8" font-family="Helvetica,sans-Serif" font-size="14.00">samples = 3</text>
<text text-anchor="middle" x="178.5" y="-37.8" font-family="Helvetica,sans-Serif" font-size="14.00">value = [0, 3]</text>
<text text-anchor="middle" x="178.5" y="-22.8" font-family="Helvetica,sans-Serif" font-size="14.00">defaulted = Yes</text>
<text text-anchor="middle" x="178.5" y="-7.8" font-family="Helvetica,sans-Serif" font-size="14.00">error = 0%</text>
</g>
<!-- 3&#45;&gt;6 -->
<g id="edge6" class="edge">
<title>3&#45;&gt;6</title>
<path fill="none" stroke="black" d="M138.96,-103.73C143.94,-95.06 149.22,-85.9 154.23,-77.18"/>
<polygon fill="black" stroke="black" points="157.39,-78.71 159.34,-68.3 151.32,-75.22 157.39,-78.71"/>
<text text-anchor="middle" x="165.85" y="-88.74" font-family="Helvetica,sans-Serif" font-size="14.00">No</text>
</g>
</g>
</svg>
